<?xml version="1.0" encoding="utf-8"?>
<!-- Generator: Adobe Illustrator 24.1.2, SVG Export Plug-In . SVG Version: 6.00 Build 0)  -->
<svg version="1.1" id="Layer_1" xmlns="http://www.w3.org/2000/svg" xmlns:xlink="http://www.w3.org/1999/xlink" x="0px" y="0px"
	 viewBox="0 0 300 300" style="enable-background:new 0 0 300 300;" xml:space="preserve">
<style type="text/css">
	.st0{fill-rule:evenodd;clip-rule:evenodd;fill:#3C4752;}
</style>
<path class="st0" d="M253.8,95.7c-14-0.9-28.1-1.5-42.2-1.5l2,31.4c14.7,0.1,28.9,0.3,41.9,0.6c8.3,0.2,9.6-4.6,8-11.6
	c-1.3-5.1-2.9-10.2-5-15.3C257.3,96.5,255.9,95.8,253.8,95.7L253.8,95.7z M199.8,125.5l-2-31.3c-10.8,0.2-21.8,0.7-33.2,1.5
	c-6.6,0.5-16.5,5.1-26.8,11.2c-6.2,3.7-12.3,7.8-17.9,12c-4,3-2.9,8.9,2.9,8.6C147,126,173.8,125.5,199.8,125.5L199.8,125.5z
	 M25.6,201.4H29c-0.7-3-1.1-6-1.1-9.2c0-21,17-38.1,38.1-38.1c21,0,38.1,17,38.1,38.1c0,3.2-0.4,6.3-1.1,9.2c32.6,0,64.6,0,97,0
	c-0.7-2.9-1.1-6-1.1-9.2c0-21,17-38.1,38.1-38.1c21,0,38.1,17,38.1,38.1c0,3.2-0.4,6.3-1.1,9.2l4.4,0c8.4,0,19.6,0.6,19.6-12
	c0-2.7,0-5.5,0-8.2c0-4.2-1.6-7.7-4.8-10.5l-2.2-1.9c0-8.1-0.2-15.6-0.7-22.9h-7.4c-2.5,0-4-2.2-4.6-4.6l-1.2-4.6
	c-0.6-2.5,2.1-4.6,4.6-4.6h6.9c-2.3-13.6-6.6-26.6-14.8-40.8c-2.9-5.1-7-8.6-12.8-9c-32.7-2.3-64.2-2.7-97.3-0.3
	c-20.8,1.5-58.2,28.8-72.3,43c-14.6,2.5-76.5,10.6-80.4,26.9c-0.1,0.3-0.2,0.7-0.2,1h13.7c-1.3,5.1-4.6,9.8-10.7,10.4l-4.3,0.4
	c-0.3,3-0.6,6-1.2,8.8c-3.6,1.6-5.8,4.4-5.8,8.3v5.9C2.5,199.9,15.4,201.4,25.6,201.4L25.6,201.4z M65.9,163.3
	c15.9,0,28.8,12.9,28.8,28.8c0,15.9-12.9,28.8-28.8,28.8c-15.9,0-28.8-12.9-28.8-28.8C37.1,176.2,50,163.3,65.9,163.3L65.9,163.3z
	 M74.9,183.2c-2.3-2.3-5.5-3.7-9-3.7c-3.5,0-6.7,1.4-9,3.7c-2.3,2.3-3.7,5.5-3.7,9c0,3.5,1.4,6.7,3.7,9c2.3,2.3,5.5,3.7,9,3.7
	c3.5,0,6.7-1.4,9-3.7c2.3-2.3,3.7-5.5,3.7-9C78.6,188.6,77.2,185.4,74.9,183.2L74.9,183.2z M236.9,163.3c15.9,0,28.8,12.9,28.8,28.8
	c0,15.9-12.9,28.8-28.8,28.8c-15.9,0-28.8-12.9-28.8-28.8C208,176.2,220.9,163.3,236.9,163.3L236.9,163.3z M245.8,183.2
	c-2.3-2.3-5.5-3.7-9-3.7c-3.5,0-6.7,1.4-9,3.7c-2.3,2.3-3.7,5.5-3.7,9c0,3.5,1.4,6.7,3.7,9c2.3,2.3,5.5,3.7,9,3.7
	c3.5,0,6.7-1.4,9-3.7c2.3-2.3,3.7-5.5,3.7-9C249.6,188.6,248.1,185.4,245.8,183.2L245.8,183.2z"/>
</svg>
