<?xml version="1.0" encoding="UTF-8" standalone="no"?>
<!-- Generator: Adobe Illustrator 21.0.0, SVG Export Plug-In . SVG Version: 6.00 Build 0)  -->
<svg id="Layer_1" style="enable-background:new 0 0 144 72" xmlns="http://www.w3.org/2000/svg" xml:space="preserve" viewBox="0 0 144 72" height="72px" version="1.1" y="0px" x="0px" xmlns:xlink="http://www.w3.org/1999/xlink">
<style type="text/css">
	.st0{fill:none;stroke:#343434;stroke-width:2;stroke-linecap:round;stroke-linejoin:round;stroke-miterlimit:10;}
	.st1{fill:#FFFFFF;}
</style>
<g transform="translate(92 20)">
	<line y1="6" x2="5" x1="27" y2="28" class="st0"/>
	<line y1="28" x2="5" x1="27" y2="6" class="st0"/>
</g>
<path class="st1" d="m30.5 24.2c-0.2-0.2-0.6-0.2-0.9 0-0.2 0.2-0.2 0.6 0 0.9l4.4 4.4h-14.4c-0.3 0-0.6 0.3-0.6 0.6s0.3 0.6 0.6 0.6h14.4l-4.4 4.3c-0.2 0.2-0.2 0.6 0 0.9 0.2 0.2 0.6 0.2 0.9 0l5.4-5.4c0.2-0.2 0.2-0.6 0-0.9l-5.4-5.4z"/>
<path class="st1" d="m42.4 49.8c0.2 0.2 0.6 0.2 0.9 0 0.2-0.2 0.2-0.6 0-0.9l-4.4-4.4h14.4c0.3 0 0.6-0.3 0.6-0.6s-0.3-0.6-0.6-0.6h-14.4l4.4-4.3c0.2-0.2 0.2-0.6 0-0.9-0.2-0.2-0.6-0.2-0.9 0l-5.4 5.5c-0.2 0.2-0.2 0.6 0 0.9l5.4 5.3z"/>
</svg>
