<svg xmlns="http://www.w3.org/2000/svg" width="379.397" height="94.895" viewBox="0 0 379.397 94.895">
  <g id="logo-ar" transform="translate(-33.074 -200.624)">
    <path id="Path_680" data-name="Path 680" d="M708.577,256.392H644.253a5.869,5.869,0,0,1,0-11.738h64.324a5.869,5.869,0,0,1,0,11.738" transform="translate(-309.267 -22.496)" fill="#007db6"/>
    <path id="Path_681" data-name="Path 681" d="M695.034,301.718H644.253a5.869,5.869,0,0,1,0-11.738h50.781a5.869,5.869,0,0,1,0,11.738" transform="translate(-309.267 -45.654)" fill="#299b60"/>
    <path id="Path_682" data-name="Path 682" d="M715.869,347.046H644.252a5.869,5.869,0,1,1,0-11.738h71.617a5.869,5.869,0,0,1,0,11.738" transform="translate(-309.266 -68.813)" fill="#5456a1"/>
    <path id="Path_683" data-name="Path 683" d="M106.093,246.069a6.353,6.353,0,0,0,6.227-6.439,6.28,6.28,0,0,0-12.56,0,6.307,6.307,0,0,0,6.333,6.439" transform="translate(-34.071 -16.747)" fill="#052d72"/>
    <path id="Path_684" data-name="Path 684" d="M134.864,246.069a6.353,6.353,0,0,0,6.227-6.439,6.28,6.28,0,0,0-12.56,0,6.307,6.307,0,0,0,6.333,6.439" transform="translate(-48.771 -16.747)" fill="#052d72"/>
    <path id="Path_685" data-name="Path 685" d="M492.66,368.073a6.132,6.132,0,0,0-6.333,6.227,6.282,6.282,0,1,0,12.56,0,6.171,6.171,0,0,0-6.227-6.227" transform="translate(-231.577 -85.554)" fill="#052d72"/>
    <path id="Path_686" data-name="Path 686" d="M521.431,368.073A6.133,6.133,0,0,0,515.1,374.3a6.282,6.282,0,1,0,12.56,0,6.171,6.171,0,0,0-6.227-6.227" transform="translate(-246.277 -85.554)" fill="#052d72"/>
    <path id="Path_687" data-name="Path 687" d="M574.668,276.559a5.462,5.462,0,0,0,5.595-5.7v-64.28a5.723,5.723,0,0,0-5.595-5.7,5.587,5.587,0,0,0-5.593,5.7v64.28a5.8,5.8,0,0,0,5.593,5.7" transform="translate(-273.855 -0.131)" fill="#052d72"/>
    <path id="Path_688" data-name="Path 688" d="M375.558,200.879a5.587,5.587,0,0,0-5.594,5.7v64.28a5.8,5.8,0,0,0,5.594,5.7,5.462,5.462,0,0,0,5.594-5.7v-64.28a5.724,5.724,0,0,0-5.594-5.7" transform="translate(-172.125 -0.13)" fill="#052d72"/>
    <path id="Path_689" data-name="Path 689" d="M117.036,252.888a5.676,5.676,0,0,0-5.594,5.8v30.829c-3.8,2.323-21.564,3.48-26.106,3.48-7.595,0-12.241-4.542-12.241-11.824V262.881a5.66,5.66,0,0,0-5.7-5.907c-3.375,0-5.49,2.531-5.49,5.907v18.4c0,14.251,8.97,22.481,23.326,22.481,8.448,0,31.367-2.136,37.388-6.355l.01-38.715a5.676,5.676,0,0,0-5.594-5.8" transform="translate(-14.731 -26.703)" fill="#052d72"/>
    <path id="Path_690" data-name="Path 690" d="M469.8,237.977a5.68,5.68,0,0,0-5.594,5.806v38.669a23.713,23.713,0,0,1-12.561,3.484,15.836,15.836,0,0,1-4.006-.495v-26.01a21.219,21.219,0,0,0-20.834-21.224,51.455,51.455,0,0,0-6.8.31,5.155,5.155,0,1,0,1.341,10.219,25.767,25.767,0,0,1,3.807-.3c8.128,0,11.716,3.061,11.716,10.238v24.076l-.387.582c-2.738,2.02-6.712,3-11.857,3-3.706,0-6.578-.754-8.54-2.215a5.3,5.3,0,1,0-5.854,8.841c3.459,2.048,7.969,3.191,13.445,3.191a45.284,45.284,0,0,0,14.806-2.465,26.777,26.777,0,0,0,13.053,3.02c8.445,0,15.726-2.11,21.744-6.333a4.8,4.8,0,0,0,2.11-4.223V243.783a5.68,5.68,0,0,0-5.594-5.806" transform="translate(-191.387 -19.085)" fill="#052d72"/>
    <path id="Path_691" data-name="Path 691" d="M259.436,229.036c5.2,0,9.094,2.21,11.09,5.874a5.158,5.158,0,0,0,4.542,2.652,5.234,5.234,0,0,0,4.473-7.949,20.969,20.969,0,0,0-3.111-3.954c-4.328-4.327-9.922-6.544-16.993-6.544-6.65,0-12.244,2.005-16.678,6.016s-6.861,9.395-7.388,16.149a90.13,90.13,0,0,0,0,13.088,25.8,25.8,0,0,0,3.293,11.464,14.676,14.676,0,0,1-5.547,1.019,23.721,23.721,0,0,1-12.561-3.483V206.429a5.6,5.6,0,1,0-11.188,0v60.632a4.8,4.8,0,0,0,2.11,4.222c6.017,4.223,13.3,6.333,21.743,6.333a26.1,26.1,0,0,0,13.9-3.539,26.647,26.647,0,0,0,12.844,2.984c7.389,0,13.088-1.267,17.1-3.694a5.342,5.342,0,0,0,2.849-4.751c0-3.378-3.271-6.016-7.6-4.327a37.216,37.216,0,0,1-12.138,2.533c-8.443,0-13.932-4.75-13.932-13.089V243.6c-.317-8.972,4.327-14.566,13.194-14.566" transform="translate(-90.072)" fill="#052d72"/>
    <path id="Path_692" data-name="Path 692" d="M40.469,246.244a4.116,4.116,0,0,0-1.387-.9,4.543,4.543,0,0,0-3.3,0,4.1,4.1,0,0,0-1.387.9,4.393,4.393,0,0,0-.959,1.45,5.444,5.444,0,0,0,0,3.886,4.412,4.412,0,0,0,.959,1.443,4.1,4.1,0,0,0,1.387.9,4.529,4.529,0,0,0,3.3,0,4.112,4.112,0,0,0,1.387-.9,4.336,4.336,0,0,0,.952-1.443,5.514,5.514,0,0,0,0-3.886,4.318,4.318,0,0,0-.952-1.45m-.031,4.852a3.314,3.314,0,0,1-.675,1.132,2.974,2.974,0,0,1-1.027.725,3.511,3.511,0,0,1-2.624,0,2.921,2.921,0,0,1-1.02-.725,3.349,3.349,0,0,1-.669-1.132,4.283,4.283,0,0,1-.239-1.463,4.238,4.238,0,0,1,.239-1.456,3.375,3.375,0,0,1,.669-1.126,2.952,2.952,0,0,1,1.02-.725,3.517,3.517,0,0,1,2.624,0,3.006,3.006,0,0,1,1.027.725,3.34,3.34,0,0,1,.675,1.126,4.238,4.238,0,0,1,.239,1.456,4.283,4.283,0,0,1-.239,1.463" transform="translate(0 -22.688)" fill="#052d72"/>
    <path id="Path_693" data-name="Path 693" d="M41.21,252.247a1.315,1.315,0,0,0,.806-1.259,1.385,1.385,0,0,0-.536-1.2A2.65,2.65,0,0,0,39.9,249.4c-.193,0-.415.013-.668.038a5.118,5.118,0,0,0-.769.14v4.642h1.059v-1.7h.68a6.365,6.365,0,0,1,.48.732q.252.439.5.973H42.32a9.746,9.746,0,0,0-.567-1.12c-.193-.321-.374-.606-.543-.851m-.555-.732a1.9,1.9,0,0,1-.783.134h-.352v-1.3a1.378,1.378,0,0,1,.246-.026h.221a1.438,1.438,0,0,1,.686.146.524.524,0,0,1,.271.5.533.533,0,0,1-.29.54" transform="translate(-2.753 -24.92)" fill="#052d72"/>
    <path id="Path_694" data-name="Path 694" d="M576.457,374.217h-4.631a2.45,2.45,0,0,1-2.586-2.632v-1.265a3.108,3.108,0,0,1,.69-2.321,2.668,2.668,0,0,1,2-.7,2.375,2.375,0,0,1,2.227,1.134A2.227,2.227,0,1,0,578,366.185a6.437,6.437,0,0,0-.953-1.209,6.955,6.955,0,0,0-5.12-1.989,7.217,7.217,0,0,0-5.008,1.82,7.055,7.055,0,0,0-2.242,4.868l-.024.367a6.673,6.673,0,0,0,0,1.477l.023.289a7.928,7.928,0,0,0,.53,2.41h-2.324a2.2,2.2,0,0,0-2.156,2.129,2.1,2.1,0,0,0,2.156,2.128h13.573a2.17,2.17,0,0,0,2.156-2.128,2.12,2.12,0,0,0-2.156-2.129" transform="translate(-269.59 -82.955)" fill="#052d72"/>
  </g>
</svg>
