<svg xmlns="http://www.w3.org/2000/svg" viewBox="0 0 133.18 61.6"><defs><style>.cls-1{fill:#f4f4f5;stroke:#cbcbcb;stroke-miterlimit:10;stroke-width:1.07px;}.cls-2{fill:#85b840;}.cls-3{fill:#289bd7;}.cls-4{fill:#282a2d;}</style></defs><title>Asset 3</title><g id="Layer_2" data-name="Layer 2"><g id="Layer_34" data-name="Layer 34"><rect class="cls-1" x="0.54" y="0.54" width="132.11" height="60.53" rx="8.75"/><rect class="cls-2" x="13.94" y="34.13" width="44.36" height="14.78"/><rect class="cls-3" x="13.94" y="13.96" width="44.36" height="14.79"/><path class="cls-4" d="M102.67,45.9l-.2,0a6.55,6.55,0,0,1-1.43.19c-1.16,0-2.53-.6-2.53-3.39,0-1.43.23-3.34,2.39-3.34h0a6,6,0,0,1,1.58.3l.17,0V45.9ZM103,32l-.35.07v5.16l-.32-.09-.09,0a7.44,7.44,0,0,0-2-.34c-4.32,0-5.23,3.27-5.23,6,0,3.75,2.11,5.91,5.78,5.91a11.76,11.76,0,0,0,3.86-.54,1.7,1.7,0,0,0,1.45-1.87V31.44c-1,.19-2.09.37-3.14.54"/><path class="cls-4" d="M115.51,46l-.18,0-.66.17a6.75,6.75,0,0,1-1.6.25c-1,0-1.62-.5-1.62-1.36,0-.55.26-1.49,1.91-1.49h2.15ZM114,36.68a14.51,14.51,0,0,0-4.4.77l-1.11.33.37,2.5,1.08-.36a12.62,12.62,0,0,1,3.6-.6c.47,0,1.92,0,1.92,1.57v.68h-2c-3.67,0-5.37,1.17-5.37,3.69,0,2.15,1.57,3.44,4.2,3.44a13.49,13.49,0,0,0,2.93-.4h.1l.33.05,3.14.57V40.7c0-2.66-1.61-4-4.77-4"/><path class="cls-4" d="M89.92,46l-.19,0-.65.17a6.68,6.68,0,0,1-1.6.25c-1,0-1.62-.5-1.62-1.36,0-.55.25-1.49,1.9-1.49h2.15V46Zm-1.5-9.32a14.41,14.41,0,0,0-4.4.77l-1.11.33.37,2.5,1.08-.36a12.62,12.62,0,0,1,3.6-.6c.47,0,1.92,0,1.92,1.57v.68h-2c-3.67,0-5.38,1.17-5.38,3.69,0,2.15,1.56,3.44,4.21,3.44a13.49,13.49,0,0,0,2.93-.4h.1l.32.05c1,.19,2.09.37,3.13.58V40.71c0-2.68-1.59-4-4.75-4"/><path class="cls-4" d="M76.05,36.71a8.84,8.84,0,0,0-3.57.79l-.13.07-.12-.1A5.43,5.43,0,0,0,69,36.7a13.12,13.12,0,0,0-3.78.56c-1.12.35-1.56.89-1.56,1.9v9.39H67.2V39.87l.17,0a4.39,4.39,0,0,1,1.54-.28c1,0,1.53.54,1.53,1.6v7.42h3.45V41a2.19,2.19,0,0,0-.11-.76L73.66,40l.24-.1a4.13,4.13,0,0,1,1.71-.36,1.4,1.4,0,0,1,1.53,1.6v7.42h3.44V40.79c0-2.75-1.48-4.08-4.53-4.08"/><path class="cls-4" d="M112.93,23.6a12.09,12.09,0,0,1-2-.18l-.2,0V18.31a2.74,2.74,0,0,0-.09-.73l-.11-.21.23-.09a.67.67,0,0,1,.17-.06l0,0,.24-.08a.32.32,0,0,1,.09,0,8.41,8.41,0,0,1,1.8-.21h0c2.15,0,2.4,1.91,2.4,3.35,0,2.79-1.39,3.38-2.54,3.38m0-9.64h-.1c-2,0-4.08.55-4.82,1.63a3.33,3.33,0,0,0-.63,2h0v5.23a1.73,1.73,0,0,1-.1.66l-.12.22h-6.36V20h0c-.08-3.83-2.34-5.94-5.62-5.94H92c-.13.94-.24,1.6-.37,2.53h3.19c1.67,0,2.55,1.42,2.55,3.61v3.66l-.22-.12a2.67,2.67,0,0,0-.75-.1H90.84c-.1.7-.24,1.61-.38,2.52h16.92c.58-.12,1.26-.23,1.84-.32a9.53,9.53,0,0,0,3.54.64c3.67,0,6.06-2.46,6.06-6.25S116.5,14,112.92,14"/><path class="cls-4" d="M83.24,27.73h.16c3.67,0,5.39-1.22,5.39-4.21,0-2.14-1.57-3.86-4.21-3.86H81.2a1.45,1.45,0,0,1-1.62-1.55c0-.66.25-1.47,1.91-1.47h7.4c.16-1,.24-1.57.38-2.53H81.58c-3.58,0-5.39,1.5-5.39,4s1.57,3.77,4.21,3.77h3.38a1.6,1.6,0,0,1,1.62,1.64c0,.56-.25,1.7-1.9,1.7h-.56l-10.84,0h-2c-1.67,0-2.84-.95-2.84-3.15V20.53c0-2.29.9-3.71,2.84-3.71h3.22c.14-1,.23-1.59.36-2.52H69.32c-3.28,0-5.55,2.2-5.63,6h0v1.71c.08,3.83,2.35,5.66,5.63,5.66h3.2l5.87,0h4.85Z"/></g></g></svg>