<svg id="Layer_1" data-name="Layer 1" xmlns="http://www.w3.org/2000/svg" viewBox="0 0 19.69 25.43"><defs><style>.cls-1{fill:#50aa5a;}</style></defs><title>Artwork1_6d3250e2-c478-4111-b3b7-88ff87c576b6</title><path class="cls-1" d="M.42,13a1.29,1.29,0,0,0,.79.23H2.44a.43.43,0,0,0,.46-.32,1.46,1.46,0,0,0,0-.31v-1.3a.58.58,0,0,1,.43.07.81.81,0,0,1,.35.49,1.79,1.79,0,0,1,0,.29c0,.14,0,.28,0,.4l0,.2a.46.46,0,0,0,.23.33.69.69,0,0,0,.43.12H5.92a.48.48,0,0,0,.31-.09.85.85,0,0,0,.35.08H7l2.38,0c.28,0,.28-.19,0-.55-.09-.12-.19-.23-.29-.35l-.48-.54A5.87,5.87,0,0,0,8,11.05a1.44,1.44,0,0,0-.5-.28.75.75,0,0,0-.59.07.48.48,0,0,0-.18.38,1.09,1.09,0,0,0,.31.56.51.51,0,0,1,.14-.34.32.32,0,0,1,.26-.09.86.86,0,0,1,.29.11.9.9,0,0,1,.27.21c.39.41.71.75,1,1l-2,0H6.67a.22.22,0,0,1-.24-.15s0-.06,0-.11,0-.18,0-.21V10.79l-.58.2a.85.85,0,0,1,.06.19,1.34,1.34,0,0,1,0,.34v.41a1.45,1.45,0,0,1-.1.73c0,.06-.17.08-.4.09H4.6a.23.23,0,0,1-.25-.16s0-.07,0-.12V12.3a1.64,1.64,0,0,0-.22-.77,1.35,1.35,0,0,0-.71-.61,1.63,1.63,0,0,0-.57-.13,1.12,1.12,0,0,0-.38.09h0c0,.75,0,1.19,0,1.33a1,1,0,0,1-.07.48c-.06.06-.19.08-.41.09H1.1a1.08,1.08,0,0,1-.94-.71.52.52,0,0,0-.07.46A.84.84,0,0,0,.42,13" transform="translate(0)"/><polygon class="cls-1" points="6.47 10.01 6.01 9.65 5.72 10.03 6.17 10.39 6.47 10.01"/><polygon class="cls-1" points="5.59 10.02 5.14 9.66 4.85 10.04 5.3 10.4 5.59 10.02"/><path class="cls-1" d="M11.29,12.9a.62.62,0,0,0,1.08-.2.59.59,0,0,0,.26.26.71.71,0,0,0,.39.1h1c.2,0,.31-.06.34-.16a.81.81,0,0,0,.27.17.71.71,0,0,0,.89-.14l.11.05a.5.5,0,0,0,.28,0h.46l3,0a1.53,1.53,0,0,0-.17-1.87,1.68,1.68,0,0,0-1.4-.48,1.12,1.12,0,0,0-.7.3.89.89,0,0,0-.31.65.17.17,0,0,0,0,.07l-.17.13a.68.68,0,0,0-.15.65c0,.05,0,.12.07.18H16c-.13,0-.22-.05-.24-.16s0-.05,0-.11a1.2,1.2,0,0,0,0-.42,1.6,1.6,0,0,0-.14-.44,1.44,1.44,0,0,0-.3-.41,1.49,1.49,0,0,0-.46-.31,1.41,1.41,0,0,0-.56-.12.81.81,0,0,0-.43.09v1.59a.48.48,0,0,1,0,.18s-.06.07-.12.1a1.19,1.19,0,0,1-.32,0h-.25a.2.2,0,0,1-.23-.16.31.31,0,0,1,0-.1c0-.27,0-.54,0-.83s0-.49,0-.59v-.17a1.61,1.61,0,0,0-.78-.08,1.42,1.42,0,0,0-.64.26,1.18,1.18,0,0,0-.36.5,1.38,1.38,0,0,0-.07.74,1.2,1.2,0,0,0,.25.67m6.23-1.56a1,1,0,0,1,.85-.11.76.76,0,0,1,.44.23.87.87,0,0,1,.23.47,1.23,1.23,0,0,1-.14.66h-.38a.88.88,0,0,0,0-.31.93.93,0,0,0-.37-.55,1.32,1.32,0,0,0-.77-.22.49.49,0,0,1,.17-.18m-.46.73.1,0a.55.55,0,0,0,.33,0,.38.38,0,0,1-.16-.11h.09a.5.5,0,0,1,.55.39.37.37,0,0,1,0,.27h-.81a.38.38,0,0,1-.13-.2.33.33,0,0,1,.07-.34m-2.72-1a.55.55,0,0,1,.43.08.75.75,0,0,1,.35.48,1.22,1.22,0,0,1,0,.68.38.38,0,0,1-.2.28.32.32,0,0,1-.33,0,.54.54,0,0,1-.18-.1c-.06,0-.09-.09-.09-.11Zm-2.62.44a.9.9,0,0,1,.65-.35,2.91,2.91,0,0,1-.13,1.08c-.1.24-.23.36-.42.37a.21.21,0,0,1-.17-.1.6.6,0,0,1-.1-.31.9.9,0,0,1,.17-.69" transform="translate(0)"/><polygon class="cls-1" points="13.05 10.08 12.59 9.72 12.3 10.1 12.75 10.46 13.05 10.08"/><polygon class="cls-1" points="12.06 10.09 11.61 9.73 11.32 10.11 11.77 10.47 12.06 10.09"/><path class="cls-1" d="M13.9,10.1a.38.38,0,0,0,.37.32.15.15,0,0,0,.16-.11h0a.2.2,0,0,0,.19.11.17.17,0,0,0,.13,0,.19.19,0,0,0,.05-.09,1.05,1.05,0,0,0,0-.18V9.79l-.21.07,0,.07a.41.41,0,0,1,0,.16.28.28,0,0,1,0,.15.18.18,0,0,1-.14,0h0a.81.81,0,0,0,0-.17,2.2,2.2,0,0,1,0-.31l-.21.06s0,0,0,.07a.67.67,0,0,1,0,.16c0,.08,0,.13,0,.15s-.06,0-.13,0h0a.76.76,0,0,0,0-.17c0-.16,0-.26,0-.31l-.21.07s0,0,0,.07v.16" transform="translate(0)"/><polygon class="cls-1" points="1.65 15.6 2.21 14.87 1.34 14.18 0.78 14.91 1.65 15.6"/><polygon class="cls-1" points="2.67 14.88 3.54 15.57 4.1 14.85 3.23 14.16 2.67 14.88"/><path class="cls-1" d="M7.08,14.44a.49.49,0,0,1,0,.14.85.85,0,0,1,0,.3.55.55,0,0,1-.07.29.33.33,0,0,1-.26.08h0a1.12,1.12,0,0,0,0-.34c0-.29,0-.49,0-.59l-.41.13a.34.34,0,0,1,.05.13,1.53,1.53,0,0,1,0,.31.42.42,0,0,1-.08.29c0,.05-.12.07-.25.08H6.06a1.12,1.12,0,0,0,0-.34c0-.3,0-.5,0-.59l-.41.13a.34.34,0,0,1,0,.13,1.13,1.13,0,0,1,0,.31.73.73,0,0,0,.71.61.3.3,0,0,0,.32-.2,0,0,0,0,1,0,0,.42.42,0,0,0,.37.23.34.34,0,0,0,.24-.08.31.31,0,0,0,.09-.18,1.48,1.48,0,0,0,0-.34v-.6Z" transform="translate(0)"/><polygon class="cls-1" points="12.05 14.5 12.92 15.2 13.49 14.46 12.61 13.77 12.05 14.5"/><polygon class="cls-1" points="11.81 14.48 10.94 13.79 10.37 14.52 11.25 15.22 11.81 14.48"/><path class="cls-1" d="M16.28,14.74a1.69,1.69,0,0,1,.14.36,3.8,3.8,0,0,1,0,.69c0,.85,0,1.79,0,2.83a1.46,1.46,0,0,1-.16.87c-.1.12-.36.18-.79.19H14.44a2.41,2.41,0,0,0,.47-2,2.09,2.09,0,0,0-.78-1.2,2.7,2.7,0,0,0-1.6-.59,2.28,2.28,0,0,0-1.65.47,1.46,1.46,0,0,0-.41,1.49,3.9,3.9,0,0,0,1,1.86H9.74a.4.4,0,0,1-.46-.3,1.22,1.22,0,0,1,0-.21,2.72,2.72,0,0,0,0-.8A3.63,3.63,0,0,0,9,17.58a2.81,2.81,0,0,0-.57-.8,3,3,0,0,0-.89-.58A2.47,2.47,0,0,0,6.41,16a1.56,1.56,0,0,0-.83.17V19.2a1.3,1.3,0,0,1-.08.34.4.4,0,0,1-.24.18,1.76,1.76,0,0,1-.6.08H4.17a.39.39,0,0,1-.44-.3.65.65,0,0,1,0-.2c0-.51,0-1,0-1.6s0-.93,0-1.13,0-.31,0-.33a3.07,3.07,0,0,0-1.49-.14,2.61,2.61,0,0,0-1.24.49,2.19,2.19,0,0,0-.69.95A2.7,2.7,0,0,0,.24,19a2.33,2.33,0,0,0,.48,1.27,1.16,1.16,0,0,0,1,.46,1.2,1.2,0,0,0,1.11-.84,1.08,1.08,0,0,0,.48.51,1.39,1.39,0,0,0,.75.18h1.9c.37,0,.59-.1.65-.3a1.84,1.84,0,0,0,.51.33,1.39,1.39,0,0,0,1.72-.27l.21.1a1.27,1.27,0,0,0,.54.1h.87l5.1-.06h.93c.44,0,.71-.13.82-.37a3.6,3.6,0,0,0,.15-1.34V14.35ZM2.54,19.07c-.17.47-.44.71-.79.72a.39.39,0,0,1-.33-.19,1.28,1.28,0,0,1-.2-.59A1.75,1.75,0,0,1,2.8,17a5.19,5.19,0,0,1-.26,2.08m5.59.15a.8.8,0,0,1-.38.54.71.71,0,0,1-.65,0,.92.92,0,0,1-.34-.2c-.11-.1-.17-.17-.17-.21v-2.5a1,1,0,0,1,.83.14,1.43,1.43,0,0,1,.67.93,2.35,2.35,0,0,1,0,1.31m5.51-.34a1.56,1.56,0,0,1-.74.83h0a3,3,0,0,1-.78-.87,3.35,3.35,0,0,1-.44-1,1.09,1.09,0,0,1,.14-.84.89.89,0,0,1,.78-.3,1.25,1.25,0,0,1,.82.32,1.22,1.22,0,0,1,.4.71,2,2,0,0,1-.14,1.13" transform="translate(0)"/><path class="cls-1" d="M18.28,14.76a1.14,1.14,0,0,1,.18.68v4.42c0,.05,0,.25,0,.6a1.71,1.71,0,0,0,.51-.1.7.7,0,0,0,.49-.68l0-5.31Z" transform="translate(0)"/><path class="cls-1" d="M6.83,3.14s0,0,0,0h0a.34.34,0,0,1,.08.09.25.25,0,0,1,0,.07s0,0,0,0,0,0,0-.08S6.87,3.1,6.83,3a.43.43,0,0,1-.07-.2.83.83,0,0,0,0-.15.21.21,0,0,1,0-.11s0,.08,0,.1a.54.54,0,0,0,0-.22.86.86,0,0,0-.06-.23s0,0-.06-.08h0c.09.14,0,.28.06.44l0,.1s0,.09,0,.13a2.25,2.25,0,0,0,.08.24.41.41,0,0,1,0,.09" transform="translate(0)"/><path class="cls-1" d="M7.74,1.89a.2.2,0,0,0-.09-.07H7.44c-.07,0-.16,0-.14-.09a.35.35,0,0,1,0-.08.13.13,0,0,1,.08,0,.57.57,0,0,1,.13,0s.08,0,.1,0h0a.13.13,0,0,0,0-.06h0a.08.08,0,0,1,0,0,.34.34,0,0,0,0-.14.09.09,0,0,0-.07,0l-.09,0H7.22a.64.64,0,0,0-.28.07.2.2,0,0,0-.09.09s0,0,0,.08a0,0,0,0,0,0,0h0l.06,0,.07,0H7s0,0,.06.08,0,.06,0,.08h0a.15.15,0,0,0-.11,0s-.1,0-.1,0,0,0,0,0H7s0,0,0,0a.34.34,0,0,0-.14.05s-.1,0-.11.1a.44.44,0,0,0,0,.2,1.17,1.17,0,0,0,.05.11s0,.06,0,.06S7,2.27,7,2.25l0-.07s0,0,0-.05-.05,0,0-.06h.22s.08,0,.07,0,0,0,0,0l0,0,.09.07a.25.25,0,0,1,0,.09.06.06,0,0,1,0,0s0,0,0-.05a.25.25,0,0,1,0-.08.19.19,0,0,1,.12-.09c.06,0,.16-.08.12-.16a1,1,0,0,0,0-.1" transform="translate(0)"/><path class="cls-1" d="M6.75,1.79s0,0,0,0a.09.09,0,0,0,.06,0,.32.32,0,0,0,0-.09h0s0,0,0-.06,0-.07,0-.11,0-.1,0-.12.11,0,.17,0a.24.24,0,0,0,.12,0l0,0s0,0,.08,0,.11,0,.16,0a.13.13,0,0,1,.13,0s.14.07.19,0,0-.08,0-.1-.12,0-.16,0,.09,0,.12,0a.14.14,0,0,1,.11,0h0s0,0,0,0l-.07,0a.28.28,0,0,0-.13,0,.88.88,0,0,0-.16,0l-.06,0a.3.3,0,0,1-.13,0H7l-.2,0-.08,0s0,0,0,0a.07.07,0,0,1,0,0s0,.07,0,.11a.29.29,0,0,0,.05.13c0,.05.06.11,0,.15" transform="translate(0)"/><path class="cls-1" d="M7,2.42a.15.15,0,0,0,.09.16s0,0,0,0,0,0,0-.07.1-.06.15-.06.1,0,.1,0,0,.06,0,.09.11,0,.12-.05a.1.1,0,0,0,0-.13.27.27,0,0,0-.15,0H7.1S7,2.38,7,2.42" transform="translate(0)"/><path class="cls-1" d="M2.64,5.35l.68-1.5s.73.36,1.17,0c0,0-.94,0-1-.23a1.18,1.18,0,0,1,.11-.53,3.42,3.42,0,0,0,1.32-.84S3.72,3,3.27,2.84a2.79,2.79,0,0,1-.09.87c-.13.36-.77,1.68-.77,1.68L2.94,6.9Z" transform="translate(0)"/><path class="cls-1" d="M7.23,2.31v0s0,0,0,0l-.11,0S7,2.3,7,2.33s.08,0,.11,0,.08,0,.1,0" transform="translate(0)"/><path class="cls-1" d="M7.46,5.07h0V5s0,0,0,0,0,0,0,0h0s0,0,0,0l0,0,0,0H7.26s0,0,0,0h0a.06.06,0,0,1,0,0h0a0,0,0,0,1,0,0v0h0V4.69h0s0,0,0,0h0a0,0,0,0,1,0,0v0h0V4.34h0v0h0a.17.17,0,0,1,0-.07.44.44,0,0,1,0-.1h0a.32.32,0,0,1,0-.09l0-.07s0,0,0-.07l0,0,0,0h0l0,0s0-.11,0-.16h0v.58a.41.41,0,0,1,0-.11V4.22l0-.09s0,0,0-.08,0,0,0-.06l0-.07v0h0v0h0v0h0l0-.06v0h0a.34.34,0,0,1,0,.1s0,0,0,.07S7.1,4,7.1,4s0,.07,0,.1a.28.28,0,0,0,0,.09v.08a.22.22,0,0,1,0,.08v.2h0s0,0,0,.07a.13.13,0,0,1,0,.06.13.13,0,0,1,0,.06s0,0,0,.06a.08.08,0,0,0-.07,0H6.91a.39.39,0,0,0-.35,0s0,0,0,0,0,.05,0,.06l-.08,0-.06,0h0l0,0A.45.45,0,0,0,6,4.77l-.12,0a.41.41,0,0,0-.13.1h0a.29.29,0,0,0,.16,0h.21a.21.21,0,0,1,.1.06V5h0V5h0v0h0v0a.19.19,0,0,0,0,.07v0h0l.06,0h.06a.11.11,0,0,1,0,0v0h0v0h0l.06,0,.07,0h.09l.06,0H7.1l.14,0h.07l.09,0h.07a.09.09,0,0,0,0,0v0" transform="translate(0)"/><path class="cls-1" d="M5.93,4.69l0,0h.15a1.52,1.52,0,0,0,.2.06l-.05-.07c-.07-.1-.15-.18-.29-.12H5.9s0,0,0,0,0,0,0,0" transform="translate(0)"/><path class="cls-1" d="M11.13.52a0,0,0,0,0,0,0A.24.24,0,0,1,11,.5l-.28,0c-.2,0-.4,0-.6,0a.4.4,0,0,1-.15,0s0,0,0,.06h0s0,0,0,0v0h0a.14.14,0,0,0,.09,0h.24a1.68,1.68,0,0,1,.5,0l.23,0s.12,0,.1,0h0s0,0,0-.06" transform="translate(0)"/><path class="cls-1" d="M15,2.63c.05.23.15.47.18.69s0,.72,0,1.07v.17l0,0,.05-.06a3.11,3.11,0,0,0,0-.53,6.16,6.16,0,0,0-.05-.75A4.07,4.07,0,0,0,15,2.5c0-.14-.09-.28-.14-.41s0-.07-.05-.1l-.09-.14h0c0,.07,0,.15.08.21a3.06,3.06,0,0,1,.2.58" transform="translate(0)"/><path class="cls-1" d="M13.72,3.21s0,0-.07,0a.06.06,0,0,1,0,.07h0a.11.11,0,0,1,0,0l0,.1a.29.29,0,0,0,.09-.15s0-.13,0-.12" transform="translate(0)"/><path class="cls-1" d="M16.67,4.32l.25,1.26.84.52-.71-.62a3.79,3.79,0,0,1-.08-2l-.76-.33.55.39Z" transform="translate(0)"/><path class="cls-1" d="M14.55,3.32a5.9,5.9,0,0,0,.09.72,2.74,2.74,0,0,1,0,.49v.28h.05V4.48c0-.37-.07-.73-.08-1.1s-.07-.64-.1-1a1.48,1.48,0,0,0,0-.21s0,0,0,0a.29.29,0,0,1,0-.13.47.47,0,0,0,0-.17.21.21,0,0,0-.11-.09l0,0a.46.46,0,0,1,.05.14,9.63,9.63,0,0,1,.15,1.42" transform="translate(0)"/><path class="cls-1" d="M13.61,3.1s0,0,.05,0l.05,0s0-.08,0-.11a.36.36,0,0,1,0-.11.24.24,0,0,1,0-.08.15.15,0,0,1,0-.06h0s0-.05,0-.07,0,0-.06,0h-.33l0,0s0,0,0,.06l0,0v0a.27.27,0,0,0,0,.12.38.38,0,0,0,.09.13l.07.08s0,0,0,0h0" transform="translate(0)"/><path class="cls-1" d="M13.4,2.46a.08.08,0,0,1,0,0h.13a.15.15,0,0,1,.09,0s0,0,0,0l0,0a.14.14,0,0,0-.1-.05h-.15s0,0,0,0h0a.16.16,0,0,0-.05.09v0h0l0,0" transform="translate(0)"/><path class="cls-1" d="M14,4.73c0-.06,0-.13,0-.15a.25.25,0,0,0,0-.12V4.34a.29.29,0,0,1,0,.09.41.41,0,0,1,0,.16v0s0,.06,0,.08a2.48,2.48,0,0,0-.09.32S14,5,14,4.73" transform="translate(0)"/><path class="cls-1" d="M13.66,4.55a.08.08,0,0,0,0,0s0-.1.05-.11a.23.23,0,0,0,0-.14s0,.15,0,.21a.43.43,0,0,0,0,0l0,.24s0,0,.09-.21" transform="translate(0)"/><path class="cls-1" d="M9.23,1.45c-.05,0-.09.06-.07.12h0s0,0,0,0a.76.76,0,0,1,.11-.14h0s0,0,0,.05" transform="translate(0)"/><path class="cls-1" d="M9.33,1.11A1.37,1.37,0,0,1,9.49.93l.09-.1s0-.07.06-.08h0v0s0,0,0,0,0,0,0,0L9.46.87A1.22,1.22,0,0,0,9.31,1s-.12.15-.09.17.1-.08.11-.1" transform="translate(0)"/><path class="cls-1" d="M12.62,5.75l0,0-.28.1,0,0h0s0,.08-.08,0-.17-.24-.23-.33a2.79,2.79,0,0,0-.24-.45,2,2,0,0,1-.29-.46c0-.06-.07-.15-.1-.23s-.07-.15-.09-.21A.76.76,0,0,0,11.12,4s0-.11-.06-.13a.09.09,0,0,0-.13,0,.42.42,0,0,0,.08.21l.06.11h0s.09.13.12.16a1.5,1.5,0,0,1,.19.38,2,2,0,0,1,.09.22.86.86,0,0,1,0,.16,1.64,1.64,0,0,1,0,.32c-.11,0-.18-.17-.21-.26a2.33,2.33,0,0,0-.1-.44,2.25,2.25,0,0,0-.12-.21.21.21,0,0,1,0-.11s0,0,0-.08A.21.21,0,0,1,11,4.27c-.08-.12-.1-.28-.19-.39s-.05-.09-.11-.09l-.11,0h0c0,.12.13.22.18.34a1.18,1.18,0,0,1,.19.48c0,.28-.34-.14-.39-.21A4.35,4.35,0,0,0,10,3.9a.27.27,0,0,1-.19,0L9.6,3.74c0,.13,0,.25,0,.37h0l.06,0c.13.1.28.18.42.28a7.3,7.3,0,0,1,.86.81c.15.15.45.38.31.6a2.19,2.19,0,0,1-.36,0c-.21,0-.42,0-.62-.06a2.26,2.26,0,0,0-.52,0,1.72,1.72,0,0,0,.74.17l-.16.16a5.4,5.4,0,0,0-.73-.32H9.58A5.42,5.42,0,0,1,9,5.83H9l.19.09h0a.26.26,0,0,1,.12.11.39.39,0,0,1,0,.15.46.46,0,0,0,.15.33l-.07.18a9.6,9.6,0,0,0-.53,1.73l-.06.12c.45-.56.51-1.17.93-1.75l0-.06a.24.24,0,0,0,.07-.12.19.19,0,0,0,0-.08,2.22,2.22,0,0,0-.14-.32L9.5,6c.2-.08.7.25.88.36a1.54,1.54,0,0,1,1.22-.46h.2l0,.06s.36.18.55.11l.47-.18a.92.92,0,0,1-.25-.09h0" transform="translate(0)"/><path class="cls-1" d="M9.18,1.41l.09-.08.2-.18L9.6,1,9.67,1h0s0,0,0,0h0a.45.45,0,0,1-.13.1,1.3,1.3,0,0,0-.18.15l-.16.16s-.13.14-.07.14,0-.05,0-.06" transform="translate(0)"/><path class="cls-1" d="M10.91,2.58l-.07,0a.41.41,0,0,0-.11,0,.85.85,0,0,0-.16,0h-.08l-.09,0s0,0,0,0l.08,0h.09l.08,0h.11s0,0,0,0a.06.06,0,0,1,0,0s0,0,.05,0,0,0,0,0,0,0,0,0" transform="translate(0)"/><path class="cls-1" d="M19.65,9.19a5.39,5.39,0,0,1-.48-.79,11.65,11.65,0,0,0-.79-1.65c0-.08.05-.16.07-.23a.43.43,0,0,0-.1-.48s0-.07,0-.09a.13.13,0,0,0,0-.06.79.79,0,0,0,0-.37.45.45,0,0,1,0-.08.28.28,0,0,0,0-.09,2.1,2.1,0,0,0-.19-.95c-.05-.07,0-.27,0-.42l0-.19a1.43,1.43,0,0,1,0-.16.94.94,0,0,0,0-.62,1.42,1.42,0,0,0-.13-.22.35.35,0,0,1-.05-.08A.38.38,0,0,0,18,2.46a.35.35,0,0,0-.26-.11h0l-.26-.05a5.24,5.24,0,0,0-.77-.1h-.54a.58.58,0,0,0-.32.08.3.3,0,0,0-.11.14l-.13.28,0-.05A3.75,3.75,0,0,0,15.26,2a.41.41,0,0,0-.07-.12.2.2,0,0,0,0-.08l0-.06h0v0a.23.23,0,0,0,0-.09A.39.39,0,0,0,15,1.47a.43.43,0,0,0-.1-.24.25.25,0,0,0,0-.07A.43.43,0,0,0,14.63,1l-.07,0-.07,0L14.32.84a1.24,1.24,0,0,0-.39-.1h-.09a2,2,0,0,0-.37.05,2.07,2.07,0,0,0-.36.11A1,1,0,0,0,12.9,1l-.18,0a.43.43,0,0,0-.24.24.43.43,0,0,0-.11.26h0a.4.4,0,0,0-.13.38.25.25,0,0,0,0,.08h0a.73.73,0,0,0-.23.12v-.2a.2.2,0,0,1,0-.07v0s0,0,0-.05V1.63l0-.11a1,1,0,0,0-.11-.31.34.34,0,0,0-.08-.09h0L11.72,1h0a1,1,0,0,0-.08-.39l0-.06h0a.5.5,0,0,0,0-.14.39.39,0,0,0-.1-.19.43.43,0,0,0-.2-.15.34.34,0,0,0-.15,0H11a.27.27,0,0,0-.12,0,2,2,0,0,0-.36,0h-.42L10,.05a.5.5,0,0,0-.16,0h0a.51.51,0,0,0-.22.05.51.51,0,0,0-.3.41h0a.08.08,0,0,0,0,0h0c-.07.08-.14.15-.2.23A.47.47,0,0,0,9,.87H9l-.05,0a.46.46,0,0,0-.22.45.51.51,0,0,0,0,.13.49.49,0,0,0,0,.26v0l-.08.29V2c0-.07,0-.13,0-.18l0-.08a1.22,1.22,0,0,0-.1-.24,1.17,1.17,0,0,1-.05-.11l0-.1a.47.47,0,0,0,0-.17.37.37,0,0,0-.25-.3A.61.61,0,0,0,7.9.75h0A1.06,1.06,0,0,0,7.34.66H7.28A1.1,1.1,0,0,0,6.72.8l0,0a.44.44,0,0,0-.28.3l0,.06h0a.38.38,0,0,0-.09.15l-.15,0a1,1,0,0,0-.26,0H5.78a.82.82,0,0,0-.58.2L5,1.54l-.32,0-.25,0a.62.62,0,0,0-.31-.07,1.56,1.56,0,0,0-.44.08l-.22,0a.6.6,0,0,0-.29.07A.65.65,0,0,0,3,2a2,2,0,0,1-.34.37.55.55,0,0,0-.39.47.76.76,0,0,0,0,.27.17.17,0,0,0,0,.07,1.19,1.19,0,0,1-.15.52,7.73,7.73,0,0,1-.66,1.11.48.48,0,0,0-.11.2.73.73,0,0,0,0,.38h0a3.83,3.83,0,0,1-.07,1.39.33.33,0,0,0,0,.14l0,0c-.12.26-.27.61-.42,1A10,10,0,0,1,.05,9.27a.32.32,0,0,0,0,.36.3.3,0,0,0,.25.12h.1l.35-.12A.5.5,0,0,0,1,9.67h.1a2,2,0,0,0,.31.38,2.61,2.61,0,0,1,.22.27.32.32,0,0,0,.27.14h.15a.31.31,0,0,0,.22-.16h0a.63.63,0,0,0,.15-.11,2.41,2.41,0,0,0,1-.57,1.65,1.65,0,0,1,.75-.44.92.92,0,0,0,.26,0h0a.3.3,0,0,0,.23.1.27.27,0,0,0,.13,0l.14-.06a2.07,2.07,0,0,1,.71-.22l.13,0L6,9a1.58,1.58,0,0,0,.63.16h.16a1.5,1.5,0,0,0,.32-.1A.6.6,0,0,1,7.29,9h0L7.4,9a.37.37,0,0,0,.17,0l0,0,.12,0H7.8A2.08,2.08,0,0,1,8,9.15a1.32,1.32,0,0,0,1.61.26l.11,0a.31.31,0,0,0,.13,0h.07a1.11,1.11,0,0,1,.23,0l.33.05h.09a3,3,0,0,0,.7-.1,4.39,4.39,0,0,1,1-.18.84.84,0,0,0,.2,0,.88.88,0,0,0,.57.28h.12a1.39,1.39,0,0,0,.65-.2,1,1,0,0,1,.35-.14l1.05-.19s0,.08,0,.13a.32.32,0,0,0,.3.21h.07l.15,0H16l.11,0a4.26,4.26,0,0,1,.94.44,3.74,3.74,0,0,0,.83.38,1.87,1.87,0,0,0,.44.06.69.69,0,0,0,.55-.22l.07-.09v0H19l.46-.11a.3.3,0,0,0,.22-.17.33.33,0,0,0,0-.29M15.77,2.77a2,2,0,0,0,0,.32,5.88,5.88,0,0,1,0,.78l-.24-.63-.18-.53ZM13.07,1.3s.14-.1.17-.11a1.42,1.42,0,0,1,.29-.1,1.54,1.54,0,0,1,.37,0,.84.84,0,0,1,.31.08l.2.11s.06,0,.06,0-.05,0-.07,0h-.66l-.42,0-.16,0s-.14,0-.09,0m-.29.1s0,0,.06,0a.26.26,0,0,1,.15,0h1c.14,0,.28,0,.41,0a.34.34,0,0,0,.1,0,.08.08,0,0,1,.07,0,.08.08,0,0,1,.08.09s-.09,0-.14,0l-.31,0c-.19,0-.38,0-.58,0s-.36,0-.55,0-.18,0-.24,0,0-.05,0-.07M7.33,1c.28,0,.34,0,.37.06H7.23L7,1l-.13,0A.72.72,0,0,1,7.33,1m-.42.1a.91.91,0,0,1,.33,0h.33l.29,0s.11,0,.11.06l-.08,0H7.5a1.61,1.61,0,0,0-.31,0l-.11,0-.14,0a.47.47,0,0,0-.2.06h0c0-.07.13-.11.18-.13m-1,.6c.12,0,.39-.11.34.08a1.21,1.21,0,0,1-.09.2c0,.07,0,.15,0,.21s-.21.1-.31,0a2.49,2.49,0,0,0-.38-.34c0-.13.39-.14.47-.15M1.65,5.32a.49.49,0,0,1,0-.24A.33.33,0,0,1,1.73,5,8.34,8.34,0,0,0,2.42,3.8a1.41,1.41,0,0,0,.17-.69,2.45,2.45,0,0,1,0-.27.21.21,0,0,1,.17-.2l0,0a2.05,2.05,0,0,0,.52-.54A.55.55,0,0,1,3.36,2a.4.4,0,0,1,.15,0c.26,0,.66-.21.86-.06s.66-.07.72,0a4.38,4.38,0,0,1,.74.54l0,.08h0l.24.1a.4.4,0,0,1,.26.33c0,.16-.23.21-.35.26s-.22.21-.34.32-.23.38-.23.38,0,.19-.07.31c-.08.37-.25,1-.09,1.26,0,0,.33,1.07.08,1.48-.06-.14,0-.15-.17-.18a.4.4,0,0,0-.28.08l-1.53.8a.2.2,0,0,1-.13,0,.2.2,0,0,1-.13-.08,3.25,3.25,0,0,0-1.58-.79,4.21,4.21,0,0,0,.08-1.5m3.74.4s0,0,0,0h0M8.73,9.54h0m10.18-.09a.36.36,0,0,0-.18.07c-.05,0-.07.1-.12.14s-.45.12-.68.07c-.39-.08-1.53-.9-1.93-.83l0,0a1.19,1.19,0,0,0-.42,0c-.11-.34-.39-1.1-.74-1.18a4.24,4.24,0,0,1,.38.84l-1.09.19c-.39.07-.62.38-1,.34a.49.49,0,0,1-.36-.17.68.68,0,0,1-.08-.24,3.49,3.49,0,0,0-.39-1.11,2.24,2.24,0,0,0,.09.89c.06.13.13.31,0,.38h-.09a5.56,5.56,0,0,0-1.08.2,2.27,2.27,0,0,1-.68.09c-.27,0-.54-.16-.78-.05A13.77,13.77,0,0,0,10,7.66a2.31,2.31,0,0,0-.5,1.42l-.08,0c-.15.21-.47.17-.73.16s-.66-.79-1-.65l.21-1.45A3.52,3.52,0,0,0,7.4,8.69c-.23-.08-.47.11-.71.14a1.64,1.64,0,0,1-.82-.21,2,2,0,0,0-1.22.27,1.61,1.61,0,0,0,0-1.2c-.2.23-.05.9-.31,1.07a.46.46,0,0,1-.25.06c-.68,0-1.2,1-1.87,1,0,.14-.22.13-.27.26l-.09,0a7.7,7.7,0,0,1-.57-.71c-.15-.28-.3.09-.49-.16l-.52.17c.39-.64.87-1.68,1.2-2.36l.08.07a1.46,1.46,0,0,1,.72.16c.25.14.4.41.63.58a.08.08,0,0,1,0,0A.09.09,0,0,1,3,8c-.08.26-.17.52-.26.78.16-.27.34-.53.52-.78l.11,0A10.62,10.62,0,0,1,5.1,7.06a.56.56,0,0,0,.27.38A2.88,2.88,0,0,0,6,6.75l.06-.09a1,1,0,0,1,.38-.35l.08,0h.06l.26.14L7,6.49l.28.19.5-.47L8,6h.11a.23.23,0,0,0,.19-.05h0s0,0,.07-.09H8.29c-.1,0-.16,0-.19-.08l0,0H8a.19.19,0,0,1,0,.08.23.23,0,0,1,0,.1.13.13,0,0,1-.12,0l-.07,0h0a5.55,5.55,0,0,0-.49.48l-.29-.2-.08-.06a.27.27,0,0,0-.21-.07h0a.82.82,0,0,0-.44.14,2.92,2.92,0,0,0-.49.42c.12-.32-.23-1.1-.28-1.31a3.55,3.55,0,0,1,.13-1s0,0,0,0a1.19,1.19,0,0,1,.17-.51.48.48,0,0,1,.09-.11h0l.11-.13h0s0,0,0,0a1.33,1.33,0,0,1,.41-.25s.05,0,.12-.08a.39.39,0,0,0-.09.36.43.43,0,0,1,0,.05h.11a.76.76,0,0,1,0-.26s0-.11,0-.14.12,0,.16-.06h0l0-.07-.09-.17-.06-.14-.14-.19a.84.84,0,0,1-.09-.25.3.3,0,0,1,.07-.35.86.86,0,0,1,.27-.09.2.2,0,0,0-.06-.12.35.35,0,0,1,0-.2.26.26,0,0,1,0-.09s0,0,.05-.06,0,0,0,0a.12.12,0,0,1,.06-.12h0l.1,0L7,1.14H8s.09,0,.09.06a.12.12,0,0,1,0,.11H8a.15.15,0,0,1,.05.06c.06.1.09.22.14.31a.61.61,0,0,1,.07.17,2,2,0,0,1,.07.23.88.88,0,0,0,.09.2.31.31,0,0,0,0,.08,1.07,1.07,0,0,1,.22.38.21.21,0,0,0,.17.16A2.51,2.51,0,0,1,9,2.26c0-.13.07-.27.11-.4a1.05,1.05,0,0,1,0-.19l0,0s0-.12,0-.17,0-.08,0-.12a.16.16,0,0,1,.07-.17s.07,0,.1-.06A1.67,1.67,0,0,1,9.33,1c.06-.08.13-.15.19-.22A1.71,1.71,0,0,1,9.63.6a.28.28,0,0,1,0-.09A.19.19,0,0,1,9.75.34l.1,0,.07,0s0,0,0,0h0v0a0,0,0,0,0,0,0h.43a2.11,2.11,0,0,1,.56,0s.17,0,.19,0,0,0,0,0,0,0,0,0h-.07l0,0h0s.09,0,.1,0a.14.14,0,0,1,.08,0,.25.25,0,0,1,0,.09s0,.08,0,.12a.38.38,0,0,0,.06.13A.7.7,0,0,1,11.4,1c0,.07-.06.1-.12.1a.17.17,0,0,1-.17-.07c-.06-.08.12-.07.15-.12s0,0,0,0,0,0,0,0l-.08,0h-.1l-.33,0a3,3,0,0,0-.6.05s-.08,0-.09,0h0a1.45,1.45,0,0,1,.59-.05,1.69,1.69,0,0,1,.32,0,1,1,0,0,1,.24,0h0s0,0,0,0,.13,0,.08-.06h-.06s.08,0,0,0-.05,0-.08,0h-.39c-.11,0-.22,0-.33,0s-.24,0-.36,0L10,.84s0,0,0,.05,0,0,0,.06,0,0,0,0,0,.12.05.17.07,0,0,.05-.08,0-.1,0-.2-.06-.28,0l0,0h0a.12.12,0,0,1,0,.05v0s0,.08-.08.12a1.49,1.49,0,0,1,0,.21A3.06,3.06,0,0,1,9.61,2V2l0,.07h0S9.7,2,9.74,2a.33.33,0,0,0,0-.2c0-.1,0-.3.06-.36s.26-.09.38-.16.08-.11.14-.16.13,0,.19,0,.19,0,.15.06-.17,0-.21,0-.14,0-.19.1-.12.1-.2.13a.46.46,0,0,0-.27.4,1.06,1.06,0,0,1,0,.25.32.32,0,0,1,0,.09.43.43,0,0,0,0,.25A1.9,1.9,0,0,0,10,2.8l.14.24,0,0,.08,0s.09.05.13.05,0-.08.06-.11.12.08.16,0,0-.11,0-.15.15,0,.2,0,.14.17.24.22.08,0,.11,0,0,0,.05-.08,0,0,0,0a.79.79,0,0,0,.05-.22c0-.12,0-.23.07-.35a1.25,1.25,0,0,0,0-.43,1.77,1.77,0,0,1,0-.23V1.65l0-.08a1.27,1.27,0,0,1-.06-.18c0-.06,0-.08-.07-.1l-.12,0s0,0-.07,0-.08,0-.1,0,.12-.06.14-.05.24.12.38.09.08,0,.12,0a.12.12,0,0,1,.05.05l.06,0a.71.71,0,0,1,.07.27h0v.06s0,0,0,.06v.07c0,.08,0,.16,0,.21s0,.28,0,.42a2.13,2.13,0,0,0,.07.44,2.71,2.71,0,0,1,0,.41s0,.06,0,.09.13-.07.22,0a1.75,1.75,0,0,1,.23.24l.06.06h0s0-.22,0-.27a2.54,2.54,0,0,0-.1-.37,1,1,0,0,1-.09-.53c.06-.18.26-.2.4-.29s.05-.22,0-.33,0-.09,0-.13.09-.06.13-.06h0a2.21,2.21,0,0,0-.08.35c0,.15,0,.29,0,.43a3.44,3.44,0,0,1,0,.45.92.92,0,0,0,.09.23,1.31,1.31,0,0,1,.06.27,1.09,1.09,0,0,0,.07.3.61.61,0,0,0,.25.23.2.2,0,0,1,.14.17h0l.06.07h0v0A.63.63,0,0,1,13.26,4h0l-.15,0a.21.21,0,0,1-.15-.2s0,0,.08,0h.22c.08,0,.17,0,.25,0s0,0,.05,0a.29.29,0,0,0,0-.09s0,0,0-.05v0s0,0,0,0-.06,0-.08.07a.39.39,0,0,1-.24,0h-.12s0,0-.06-.05l0,0s0,0,0,0,0,0,.06,0l.16,0a.47.47,0,0,0,.17,0l.11-.06h-.05s-.08,0-.12,0h-.31a.15.15,0,0,1-.09,0s0,0,0,0,0,0,.07,0l.1,0a.4.4,0,0,0,.15,0s.1,0,0-.07a.16.16,0,0,0-.1,0h-.11a.23.23,0,0,0-.18,0s0,.05-.06,0,0-.06,0-.08v0s-.06,0-.07,0,0,0,0-.06a.47.47,0,0,1,.05-.1.76.76,0,0,1,.08-.11l0,0a.11.11,0,0,0,0-.05c0,.07,0,.19.06.24a.1.1,0,0,0,.12,0,.21.21,0,0,0,0-.14c0-.11,0-.21,0-.31s0-.09,0-.14,0-.1,0-.14a.21.21,0,0,1,.1-.06.65.65,0,0,1,.24,0c.07,0,.1,0,.11-.1S13.59,2,13.54,2a.44.44,0,0,0-.16,0h-.25a.54.54,0,0,0-.27.07s-.12.07-.11.13h0l.05,0,.16,0s.11.05.13.09a.22.22,0,0,1,0,.08.13.13,0,0,0,0,.06v0a0,0,0,0,1,0,0h0s-.08,0-.11,0h-.11s0,0-.08,0a0,0,0,0,1,0,0s0,0,0,0h0s0,0,0,0l0,0h.07s0,0,0,0H13l0,0v0a.1.1,0,0,0,0-.08h-.13a.05.05,0,0,0-.05,0l0,.06,0,0,0,0a.34.34,0,0,1,0-.1.2.2,0,0,1,0-.11s0,0,0,0v0a.86.86,0,0,1,0-.16.22.22,0,0,1,0-.11s0,0,0,0,.06,0,.07,0l0,0H13l0,0a.07.07,0,0,0,.07-.08,0,0,0,0,1,0,0l0,0a.14.14,0,0,0,.09,0,.39.39,0,0,0,.15-.06l.19-.08c.06,0,.13,0,.2,0a.6.6,0,0,1,.09-.15h-.12c-.13,0-.27,0-.41,0h-.62s0,0,0-.07a.13.13,0,0,1,0-.08s0,0,.06,0l0,0c0,.05.14,0,.19,0h.65c.24,0,.48,0,.72-.05l.16,0a.45.45,0,0,1,.11,0s.06,0,.06.07a.22.22,0,0,1,0,.11h0a.19.19,0,0,1,.08.07h0a1,1,0,0,1,0,.1.37.37,0,0,0,0,.11l0,0,0,.05a.57.57,0,0,1,.07.13,5.3,5.3,0,0,1,.34.86c.11.28.43,1.11.46,1.21.07-.37.16-.33.16-.72,0,0,0-.54-.08-.63L16,2.55c.09-.06.28,0,.61,0a8.9,8.9,0,0,1,1.1.15s0,0,0,0c0,.16.14.29.2.44s-.05.44-.07.63-.13.6,0,.82a2.31,2.31,0,0,1,.14.77v0c0,.21.08.27,0,.48s-.09.35.1.45a.83.83,0,0,1-.1.35,6.24,6.24,0,0,1-1.23-.29l-1.16-.44s0-.48.05-.81l-.14,0s0,0,0,0h0a5.31,5.31,0,0,1-.11.8L14,5.67a4.59,4.59,0,0,1-.44-.33v0h-.22s0,0,0,0h0a.07.07,0,0,1,0,0c0,.09,0,.19,0,.29a.34.34,0,0,0,.15-.19,2,2,0,0,0,.39.32,5.32,5.32,0,0,0,.57.16c-.08.2-.15.39-.22.58a10.86,10.86,0,0,1,1.13,1A1.26,1.26,0,0,0,15,7.16L14.84,7c-.05-.08-.1-.16-.14-.24s-.32-.22-.36-.3a.19.19,0,0,1,0-.07.09.09,0,0,1,0-.06c.05-.09.11-.18.17-.27s.07-.07.1,0l0,0a3.64,3.64,0,0,1,1.76.38.85.85,0,0,1,.19.1c.08.07.67.12.72.2.27.4.56.78.86,1.15a7.25,7.25,0,0,0-.61-1.09l.52.08c.43.65.9,1.75,1.27,2.44l-.46.11M11.3,1.66s0,0,0,0,0,0,0,0h0s-.05-.07-.08,0,0,.06,0,.08l0,.06s0,.09.06.12-.07,0-.08,0a.43.43,0,0,1,0,.05.08.08,0,0,1,0,0,.16.16,0,0,1-.17.06S11,2,11,2s.07,0,.08,0a.11.11,0,0,0,.12-.13c0-.07-.08-.06-.14,0s-.12,0-.16,0a.15.15,0,0,1,0-.19s0,0,.07-.06a.53.53,0,0,1,.12,0h.11a.08.08,0,0,1,.07,0,.1.1,0,0,1,0,.07h0m-.25,1.05s0,0,0,0-.06.06-.09.1,0,0-.06,0,0,0,0-.05l-.05,0s0,0,0,0,0,0-.07,0h-.16s0,0-.06,0h-.08a.14.14,0,0,1-.12,0s0,0,0,0,0,0,0,.06,0-.07,0-.07h-.07s-.08,0-.1,0,0-.16.08-.22a1,1,0,0,1,.19-.22s.11-.1.15-.08h0a.12.12,0,0,0,0,.08c0,.07,0,.1.11.11h.12s0,.05.07.06.06,0,.1,0,0,0,0,0,0,0,.06,0,0,0,0,0,0,0,0,0a.23.23,0,0,0,0-.11s0,0,0-.06.06,0,.09,0l.08.09a.68.68,0,0,1,.08.34s0,.15-.05.13,0,0,0,0,0,0-.06,0,0,0,0,0m-1-.87s0,0,0-.06-.06,0-.07,0,0-.05.05-.06.16,0,.16-.08,0,0,0,0,0,0,0,0l.12,0h-.07a.51.51,0,0,0-.17,0s-.07,0-.07,0,0,0,0,0a.06.06,0,0,1,0-.06.22.22,0,0,1,.17-.09l.15,0,.1,0s.11.06.13.1h0a.1.1,0,0,1,.08.06c0,.06,0,.14,0,.19a.33.33,0,0,1-.06.1s0,0,0,.05a.21.21,0,0,1-.21.07.07.07,0,0,1,0-.06s0-.05,0,0,.08-.05.09-.09-.06,0-.1,0h-.07s0,0,0,.05,0,0,0,0h0s0,0-.07,0,0-.07,0-.09h0m2.71-.14h0s0,0,0,0l0,0h0" transform="translate(0)"/><path class="cls-1" d="M11.29,4.25v0h0s0-.08,0-.1,0,0,.06,0v0a.54.54,0,0,1,0-.18.67.67,0,0,1,0-.2c0-.17.07,0,.09,0a3.38,3.38,0,0,0,.12.57c.07.15.11.3.19.44l.06.09h0a2.12,2.12,0,0,1,.06-.44h0a.54.54,0,0,0-.05-.11l-.07-.13V4.3a.47.47,0,0,1,0,.17s0,.07,0,0,0-.13-.05-.18,0-.24,0-.36,0-.22,0-.33a1.28,1.28,0,0,0-.07-.28,1.33,1.33,0,0,1,0-.4,1.7,1.7,0,0,1-.1.32,1.44,1.44,0,0,0-.17.45s0,.23-.09.2a.75.75,0,0,0,0,.16,1.54,1.54,0,0,1,0,.17" transform="translate(0)"/><path class="cls-1" d="M8.49,3.39h0c0-.1,0-.2,0-.3V2.83s0-.23,0-.18h0c0,.19,0,.37,0,.56v.52s.06,0,.07-.26v0h0V3.39Z" transform="translate(0)"/><path class="cls-1" d="M7.49,1.67s-.06,0,0,0h.11s.06,0,.07,0-.12,0-.15,0" transform="translate(0)"/><path class="cls-1" d="M9.61,1.15c-.06.06-.14.1-.2.15h0l.14-.07h0l.06-.05s.06,0,.08,0a0,0,0,0,1,0,0s0,0,0,0l0,0,0,0h0l0,0a.61.61,0,0,1,0,.06" transform="translate(0)"/><path class="cls-1" d="M8.19,3.62a.11.11,0,0,1,0-.05.37.37,0,0,0,0-.11h0v0a2.33,2.33,0,0,0-.05-.28,1.63,1.63,0,0,1,0-.31.37.37,0,0,0,0,.25c0,.11.06.21.07.32h0v0a0,0,0,0,1,0,0v.21a1.74,1.74,0,0,1,0,.18s0,0,0-.19v0" transform="translate(0)"/><path class="cls-1" d="M6.88,1.76s.1,0,.07-.05a.18.18,0,0,0-.1,0s0,0,0,0" transform="translate(0)"/><path class="cls-1" d="M.63,24.69v-.41l-.12,0-.1,0A.3.3,0,0,1,.2,24a.36.36,0,0,1,.11-.28.31.31,0,0,1,.23-.08.32.32,0,0,1,.24.09.31.31,0,0,1,.08.23v.65Zm0-.77c0-.08,0-.11-.09-.11a.1.1,0,0,0-.09,0,.15.15,0,0,0,0,.1c0,.09,0,.14.11.14h0a.16.16,0,0,0,.09,0Z" transform="translate(0)"/><polygon class="cls-1" points="1.26 24.5 1.02 24.25 1.26 24.02 1.5 24.25 1.26 24.5"/><path class="cls-1" d="M3,24.16A.43.43,0,0,0,2.75,24a.13.13,0,0,0-.09,0,.09.09,0,0,0,0,.08.14.14,0,0,0,0,.11.53.53,0,0,0,.17.08.49.49,0,0,1,.18.09.21.21,0,0,1,.08.19.33.33,0,0,1-.17.3.73.73,0,0,1-.41.1.57.57,0,0,1-.46-.18.45.45,0,0,1-.12-.32A.56.56,0,0,1,2,24.26l.23,0a.5.5,0,0,0-.08.26.29.29,0,0,0,.09.23.4.4,0,0,0,.27.08.62.62,0,0,0,.27-.05.13.13,0,0,0,.08-.12.09.09,0,0,0,0-.07.4.4,0,0,0-.13-.06.79.79,0,0,1-.23-.12.34.34,0,0,1,0-.47.31.31,0,0,1,.2-.07A.35.35,0,0,1,3,24ZM2.4,25.43a.1.1,0,0,1-.09,0,.12.12,0,0,1,0-.09.11.11,0,0,1,0-.08.12.12,0,0,1,.18,0,.11.11,0,0,1,0,.08c0,.09,0,.13-.12.13m.28,0a.11.11,0,0,1-.08,0,.13.13,0,0,1,0-.1.11.11,0,0,1,.12-.12.1.1,0,0,1,.09,0,.12.12,0,0,1,0,.08c0,.09,0,.13-.13.13" transform="translate(0)"/><path class="cls-1" d="M3.2,24.67l.11-.23h.3c.06,0,.09,0,.09-.11A.33.33,0,0,0,3.51,24l.11-.2a.57.57,0,0,1,.32.51c0,.23-.1.34-.29.34Z" transform="translate(0)"/><path class="cls-1" d="M5.08,24.44v.23H4.85a.34.34,0,0,1-.15.26.38.38,0,0,1-.26.08A.49.49,0,0,1,4.21,25v-.2a.39.39,0,0,0,.2.06.24.24,0,0,0,.14,0,.14.14,0,0,0,.07-.1h-.1a.38.38,0,0,1-.29-.15.39.39,0,0,1-.09-.26.49.49,0,0,1,.11-.33.34.34,0,0,1,.26-.1.3.3,0,0,1,.26.11.36.36,0,0,1,.08.23v.29Zm-.46-.29c0-.08,0-.12-.11-.12s-.14.06-.14.2,0,.19.16.2h.09Z" transform="translate(0)"/><path class="cls-1" d="M5.88,24.44h.51v.23H5.85a.34.34,0,0,1-.17-.05.41.41,0,0,1-.18.05H5v-.23h.5l-.14-.11-.1-.1,0,0v-.11a.8.8,0,0,1,.21-.2.54.54,0,0,1,.27-.07.51.51,0,0,1,.26.07.63.63,0,0,1,.22.21v.1a1.62,1.62,0,0,1-.28.25m-.21-.09a.71.71,0,0,0,.21-.22.26.26,0,0,0-.41,0,.7.7,0,0,0,.2.22" transform="translate(0)"/><path class="cls-1" d="M6.28,24.67v-.23h.2a.15.15,0,0,0,.1,0,.13.13,0,0,0,0-.1v-.25l.23-.12v.37a.13.13,0,0,0,0,.1.15.15,0,0,0,.1,0H7.1a.11.11,0,0,0,.13-.13V24l.23-.12v.42a.13.13,0,0,0,0,.1.15.15,0,0,0,.1,0h.13a.11.11,0,0,0,.13-.13V24l.23-.12v.44a.17.17,0,0,0,0,.12.15.15,0,0,0,.12,0h.17v.23H8.23A.35.35,0,0,1,8,24.58a.4.4,0,0,1-.23.09H7.57a.28.28,0,0,1-.22-.09.34.34,0,0,1-.22.09H7a.28.28,0,0,1-.22-.09.32.32,0,0,1-.23.09Z" transform="translate(0)"/><path class="cls-1" d="M8.3,24.67v-.23h.12c.06,0,.1,0,.12,0a.17.17,0,0,0,0-.12v-.69l.23-.12v.81a.4.4,0,0,1-.11.29.41.41,0,0,1-.27.1Z" transform="translate(0)"/><polygon class="cls-1" points="9.11 24.66 9.11 23.59 9.34 23.47 9.34 24.66 9.11 24.66"/><path class="cls-1" d="M11.07,24.67a.35.35,0,0,1-.2.26.74.74,0,0,1-.38.09.6.6,0,0,1-.47-.18.5.5,0,0,1-.11-.32.46.46,0,0,1,.07-.26l.22,0a.48.48,0,0,0-.07.26.3.3,0,0,0,.09.24.37.37,0,0,0,.27.09c.18,0,.29,0,.33-.14h-.18l.12-.23h.31v.23Zm-.71.76a.12.12,0,0,1-.12-.13.11.11,0,0,1,0-.08.12.12,0,0,1,.09,0,.1.1,0,0,1,.09,0,.11.11,0,0,1,0,.08c0,.09,0,.13-.12.13m.29,0a.12.12,0,0,1-.09,0,.17.17,0,0,1,0-.1.11.11,0,0,1,.12-.12.1.1,0,0,1,.09,0,.11.11,0,0,1,0,.08c0,.09,0,.13-.12.13" transform="translate(0)"/><path class="cls-1" d="M11.64,24.44h.16v.23h-.18a.36.36,0,0,1-.23-.08.33.33,0,0,1-.22.08H11v-.23h.16a.11.11,0,0,0,.13-.13V24l.24-.12v.47a.11.11,0,0,0,.13.13m-.3-.79a.13.13,0,1,1,.12-.12.11.11,0,0,1-.12.12" transform="translate(0)"/><path class="cls-1" d="M12.28,24a.59.59,0,0,1,.44-.19.45.45,0,0,1,.35.15.5.5,0,0,1,.11.32v0a.33.33,0,0,1-.1.27.33.33,0,0,1-.22.08H11.69v-.23H12a.14.14,0,0,1,0-.06v-.79l.23-.12Zm.67.31v0a.23.23,0,0,0-.07-.18.19.19,0,0,0-.16-.07.4.4,0,0,0-.25.09.81.81,0,0,0-.19.27v.05h.57a.15.15,0,0,0,.08,0,.23.23,0,0,0,0-.11" transform="translate(0)"/><path class="cls-1" d="M14.31,24.44v.23h-.23a.31.31,0,0,1-.15.26.38.38,0,0,1-.26.08.46.46,0,0,1-.22-.06v-.2a.36.36,0,0,0,.2.06.24.24,0,0,0,.14,0,.11.11,0,0,0,.06-.1h-.09a.4.4,0,0,1-.3-.15.39.39,0,0,1-.09-.26.45.45,0,0,1,.12-.33.33.33,0,0,1,.26-.1.28.28,0,0,1,.25.11.31.31,0,0,1,.08.23v.29Zm-.46-.29c0-.08,0-.12-.1-.12s-.15.06-.15.2a.18.18,0,0,0,.17.2h.08Z" transform="translate(0)"/><path class="cls-1" d="M14.2,24.67v-.23h.12a.16.16,0,0,0,.12,0,.17.17,0,0,0,0-.12v-.69l.23-.12v.81a.4.4,0,0,1-.11.29.41.41,0,0,1-.27.1Z" transform="translate(0)"/><polygon class="cls-1" points="15 24.66 15 23.59 15.24 23.47 15.24 24.66 15 24.66"/><path class="cls-1" d="M15.71,25.25v-.46a.34.34,0,0,1,.1-.25.32.32,0,0,1,.22-.1.31.31,0,0,1-.05-.2.44.44,0,0,1,.11-.33.33.33,0,0,1,.26-.1.31.31,0,0,1,.26.11.36.36,0,0,1,.08.23v.22a.3.3,0,0,1-.1.22.44.44,0,0,1-.25.08h-.26a.11.11,0,0,0-.13.13v.33Zm.74-1.1c0-.08,0-.12-.1-.12a.12.12,0,0,0-.11,0,.33.33,0,0,0,0,.15c0,.14.05.21.14.21s.11,0,.11-.1Z" transform="translate(0)"/><path class="cls-1" d="M17.85,24.44v.23h-.23a.34.34,0,0,1-.15.26.38.38,0,0,1-.26.08A.49.49,0,0,1,17,25v-.2a.39.39,0,0,0,.2.06.24.24,0,0,0,.14,0,.14.14,0,0,0,.07-.1h-.1A.38.38,0,0,1,17,24.5a.39.39,0,0,1-.09-.26.49.49,0,0,1,.11-.33.34.34,0,0,1,.26-.1.3.3,0,0,1,.26.11.36.36,0,0,1,.08.23v.29Zm-.46-.29c0-.08,0-.12-.11-.12s-.14.06-.14.2.05.19.16.2h.09Z" transform="translate(0)"/><path class="cls-1" d="M18.4,24.44h.16v.23h-.19a.33.33,0,0,1-.22-.08.36.36,0,0,1-.23.08h-.19v-.23h.17a.11.11,0,0,0,.13-.13V24l.24-.12v.47a.11.11,0,0,0,.13.13m-.48.39a.12.12,0,0,1,.08,0A.13.13,0,0,1,18,25a.11.11,0,0,1-.12.12.12.12,0,0,1-.13-.12c0-.09,0-.13.13-.13m.28,0a.13.13,0,0,1,.09,0,.12.12,0,0,1,0,.09.11.11,0,0,1-.12.12.12.12,0,0,1-.09,0,.16.16,0,0,1,0-.09c0-.09,0-.13.12-.13" transform="translate(0)"/><path class="cls-1" d="M18.45,24.67v-.23h.12c.06,0,.1,0,.12,0a.17.17,0,0,0,0-.12v-.69l.23-.12v.81a.4.4,0,0,1-.11.29.41.41,0,0,1-.27.1Z" transform="translate(0)"/><polygon class="cls-1" points="19.26 24.66 19.26 23.59 19.49 23.47 19.49 24.66 19.26 24.66"/><path class="cls-1" d="M9.91,22Z" transform="translate(0)"/><path class="cls-1" d="M5,21.92a.06.06,0,0,0,.06-.06.06.06,0,0,0-.12,0A.06.06,0,0,0,5,21.92Z" transform="translate(0)"/><polygon class="cls-1" points="9.91 22.02 9.91 22.02 9.91 22.02 9.91 22.02 9.91 22.02"/><path class="cls-1" d="M9.05,21.73H8.48v.57h.57Zm-.13.44h-.3v-.3h.3Z" transform="translate(0)"/><path class="cls-1" d="M10.76,22.11a.06.06,0,0,0,0,.12.06.06,0,0,0,0-.12Z" transform="translate(0)"/><path class="cls-1" d="M11.35,22.11a.06.06,0,0,0,0,.12.06.06,0,0,0,0-.12Z" transform="translate(0)"/><path class="cls-1" d="M5,22.19a.06.06,0,0,0,.12,0,.06.06,0,0,0-.12,0Z" transform="translate(0)"/><path class="cls-1" d="M11.05,21.93a.13.13,0,0,0-.13.13.13.13,0,0,0,.13.14.14.14,0,0,0,.14-.14A.13.13,0,0,0,11.05,21.93Z" transform="translate(0)"/><path class="cls-1" d="M10.81,21.79s-.05,0-.05.06a0,0,0,0,0,.05,0,.06.06,0,0,0,.06,0A.06.06,0,0,0,10.81,21.79Z" transform="translate(0)"/><path class="cls-1" d="M11.05,22.31a.06.06,0,0,0,0,.12.06.06,0,0,0,0-.12Z" transform="translate(0)"/><path class="cls-1" d="M11.33,21.85s0-.06-.05-.06a.05.05,0,0,0-.06.06s0,0,.06,0A0,0,0,0,0,11.33,21.85Z" transform="translate(0)"/><path class="cls-1" d="M.76,22l.57.56L1.89,22l-.56-.57Zm.56.28L1,22l.28-.29.29.29Z" transform="translate(0)"/><path class="cls-1" d="M3.33,22.05a.07.07,0,0,0,.06.07.07.07,0,0,0,.07-.07A.07.07,0,0,0,3.39,22,.06.06,0,0,0,3.33,22.05Z" transform="translate(0)"/><path class="cls-1" d="M2.69,22a.07.07,0,0,0-.06.07.06.06,0,0,0,.06.06.07.07,0,0,0,.07-.06A.07.07,0,0,0,2.69,22Z" transform="translate(0)"/><rect class="cls-1" x="1.22" y="21.92" width="0.21" height="0.21" transform="translate(-15.19 7.39) rotate(-45)"/><path class="cls-1" d="M5.63,21.92a.05.05,0,0,0,.06-.06s0-.05-.06-.05a0,0,0,0,0,0,.05S5.6,21.92,5.63,21.92Z" transform="translate(0)"/><path class="cls-1" d="M5.34,21.72a.06.06,0,0,0,.06,0,.06.06,0,1,0-.12,0A.06.06,0,0,0,5.34,21.72Z" transform="translate(0)"/><path class="cls-1" d="M5.56,22.24a.06.06,0,0,0,.06,0,.06.06,0,0,0-.06-.06s0,0,0,.06A0,0,0,0,0,5.56,22.24Z" transform="translate(0)"/><path class="cls-1" d="M5.34,22.1A.13.13,0,0,0,5.48,22a.14.14,0,0,0-.14-.14.13.13,0,0,0-.13.14A.13.13,0,0,0,5.34,22.1Z" transform="translate(0)"/><path class="cls-1" d="M16.6,21.68a.34.34,0,1,0,.33.33A.33.33,0,0,0,16.6,21.68Zm0,.53a.19.19,0,0,1-.19-.2.19.19,0,0,1,.38,0A.19.19,0,0,1,16.6,22.21Z" transform="translate(0)"/><polygon class="cls-1" points="9.99 22.9 9.99 22.9 9.98 22.9 9.99 22.9"/><path class="cls-1" d="M17.17,21.44H16v1.15h1.14V21.44Zm-.57.91a.34.34,0,1,1,.33-.34A.34.34,0,0,1,16.6,22.35Z" transform="translate(0)"/><circle class="cls-1" cx="16.6" cy="22.01" r="0.19"/><rect class="cls-1" x="2.49" y="22.6" width="0.31"/><path class="cls-1" d="M3.42,21.61,3.05,22l-.38-.37.1-.15h-.3V22.6h.31l-.11-.16.38-.38.37.38-.11.16h.3V21.46H3.32Zm-.73.51a.06.06,0,0,1-.06-.06A.07.07,0,0,1,2.69,22a.07.07,0,0,1,.07.07A.07.07,0,0,1,2.69,22.12Zm.77-.07a.07.07,0,0,1-.07.07.07.07,0,0,1-.06-.07A.06.06,0,0,1,3.39,22,.07.07,0,0,1,3.46,22.05Z" transform="translate(0)"/><path class="cls-1" d="M7.7,21.8a.22.22,0,0,1,0,.11.14.14,0,0,1,0,.06.21.21,0,0,1-.06.1.35.35,0,0,1-.18.05h0a.23.23,0,0,0,.44-.06A.22.22,0,0,0,7.7,21.8Z" transform="translate(0)"/><path class="cls-1" d="M7.72,21.91a.22.22,0,0,0,0-.11h0a.23.23,0,0,0-.26.2.36.36,0,0,0,0,.11h0a.35.35,0,0,0,.18-.05A.21.21,0,0,0,7.7,22,.14.14,0,0,0,7.72,21.91Z" transform="translate(0)"/><path class="cls-1" d="M4.77,22.58H5l.29-.36.28.36h.3V21.45H4.77Zm.86-.77s.06,0,.06.05a.05.05,0,0,1-.06.06s0,0,0-.06A0,0,0,0,1,5.63,21.81Zm-.07.32a.06.06,0,0,1,.06.06.06.06,0,0,1-.06,0,0,0,0,0,1,0,0S5.53,22.13,5.56,22.13Zm-.22-.52a.06.06,0,0,1,.06.06.06.06,0,0,1-.12,0A.06.06,0,0,1,5.34,21.61Zm0,.22a.14.14,0,0,1,.14.14.13.13,0,0,1-.14.13A.13.13,0,0,1,5.21,22,.13.13,0,0,1,5.34,21.83Zm-.18.36a.06.06,0,0,1-.12,0,.06.06,0,0,1,.12,0ZM5,21.81a.06.06,0,0,1,.06.05.06.06,0,0,1-.12,0A.06.06,0,0,1,5,21.81Z" transform="translate(0)"/><path class="cls-1" d="M8.2,22.59H9.34V21.45H8.2Zm.28-.86h.57v.57H8.48Z" transform="translate(0)"/><rect class="cls-1" x="8.62" y="21.87" width="0.3" height="0.3"/><polygon class="cls-1" points="6.48 22.02 5.92 22.59 7.05 22.59 6.48 22.02 6.48 22.02 6.48 22.02"/><polygon class="cls-1" points="5.92 21.45 5.92 21.45 6.48 22.02 6.48 22.02 6.48 22.02 7.06 21.45 7.06 21.45 7.06 21.45 5.91 21.45 5.92 21.45"/><polygon class="cls-1" points="6.48 22.02 6.48 22.02 6.48 22.02 6.48 22.02 6.48 22.02"/><path class="cls-1" d="M11.62,21.52v-.07h-.29l-.29.37-.28-.37h-.28v1.14h1.14V21.52Zm-.86.71a.06.06,0,0,1,0-.12.06.06,0,0,1,0,.12Zm.05-.33a0,0,0,0,1-.05,0s0-.06.05-.06a.06.06,0,0,1,.06.06A.06.06,0,0,1,10.81,21.9Zm.24.53a.06.06,0,0,1,0-.12.06.06,0,0,1,0,.12Zm0-.23a.13.13,0,0,1-.13-.14.13.13,0,0,1,.13-.13.13.13,0,0,1,.14.13A.14.14,0,0,1,11.05,22.2Zm.17-.35a.05.05,0,0,1,.06-.06s.05,0,.05.06a0,0,0,0,1-.05,0S11.22,21.88,11.22,21.85Zm.13.38a.06.06,0,0,1,0-.12.06.06,0,0,1,0,.12Z" transform="translate(0)"/><polygon class="cls-1" points="11.86 21.81 12.15 21.45 11.62 21.45 11.62 21.52 11.86 21.81"/><polygon class="cls-1" points="12.73 21.45 12.15 21.45 12.44 21.81 12.73 21.45"/><polygon class="cls-1" points="11.62 22.52 11.86 22.22 11.62 21.92 11.62 22.52"/><polygon class="cls-1" points="11.86 22.22 12.15 22.59 12.15 22.59 12.44 22.22 12.15 21.85 11.86 22.22"/><polygon class="cls-1" points="12.74 21.84 12.74 21.85 12.44 22.22 12.74 22.59 12.74 22.59 12.74 22.02 12.74 21.84"/><polygon class="cls-1" points="13.31 21.44 13.31 22.01 13.31 22.01 13.31 22.02 13.87 22.02 13.31 21.44"/><polygon class="cls-1" points="13.31 22.01 13.03 21.73 13.03 22.3 13.03 22.3 13.03 22.3 13.59 22.3 13.31 22.02 13.31 22.02 13.31 22.01"/><rect class="cls-1" x="13.31" y="22.01"/><polygon class="cls-1" points="13.03 22.3 12.74 22.02 12.74 22.59 13.31 22.59 13.03 22.3 13.03 22.3 13.03 22.3"/><rect class="cls-1" x="13.03" y="22.3"/><polygon class="cls-1" points="14.01 21.71 14.26 21.71 14.14 21.83 14.42 21.83 14.64 21.83 14.52 21.71 14.77 21.71 14.64 21.58 14.89 21.58 14.77 21.45 14.01 21.45 13.88 21.58 14.14 21.58 14.01 21.71"/><polygon class="cls-1" points="14.39 21.83 14.26 21.96 14.51 21.96 14.39 21.83"/><polygon class="cls-1" points="14.77 22.34 14.51 22.34 14.64 22.22 14.36 22.22 14.13 22.22 14.25 22.34 14.01 22.34 14.14 22.47 13.88 22.47 14.01 22.6 14.76 22.6 14.89 22.47 14.64 22.47 14.77 22.34"/><polygon class="cls-1" points="14.39 22.22 14.51 22.09 14.26 22.09 14.39 22.22"/><polygon class="cls-1" points="15.82 21.8 16.03 21.59 15.88 21.44 15.75 21.44 15.89 21.59 15.68 21.8 15.89 22.02 15.68 22.23 15.89 22.44 15.75 22.59 15.89 22.59 16.03 22.44 15.82 22.23 16.03 22.02 15.82 21.8"/><polygon class="cls-1" points="15.43 21.8 15.64 21.59 15.49 21.44 15.35 21.44 15.5 21.59 15.29 21.8 15.5 22.02 15.29 22.23 15.5 22.44 15.36 22.59 15.49 22.59 15.64 22.44 15.43 22.23 15.64 22.02 15.43 21.8"/><polygon class="cls-1" points="15.03 21.8 15.25 21.59 15.1 21.44 14.96 21.44 15.11 21.59 14.89 21.8 15.11 22.02 14.89 22.23 15.11 22.44 14.96 22.59 15.1 22.59 15.25 22.44 15.03 22.23 15.25 22.02 15.03 21.8"/><path class="cls-1" d="M2.3,21.46h0L2,21.74l-.28-.28H.93l-.28.28-.28-.28H.19V22.6H.37l.28-.28.28.28h.81L2,22.32l.28.28h.17V21.46Zm-1,1.13L.76,22l.57-.57.56.57Z" transform="translate(0)"/><path class="cls-1" d="M1,22l.28.28L1.61,22l-.29-.29Zm.43,0-.14.15L1.18,22l.15-.15Z" transform="translate(0)"/><polygon class="cls-1" points="19.46 21.44 19.23 21.44 19.23 21.67 19 21.67 19 21.9 18.77 21.9 18.77 22.13 18.54 22.13 18.54 22.36 18.31 22.36 18.31 22.59 19.46 22.59 19.46 21.44"/><polygon class="cls-1" points="17.86 21.44 17.86 21.67 18.09 21.67 18.09 21.9 18.31 21.9 18.31 22.13 18.54 22.13 18.54 21.9 18.77 21.9 18.77 21.67 19 21.67 19 21.44 17.86 21.44"/><polygon class="cls-1" points="18.31 22.36 18.31 22.36 18.31 22.36 18.09 22.36 18.09 22.13 17.86 22.13 17.86 21.9 17.63 21.9 17.63 22.13 17.4 22.13 17.4 22.36 17.18 22.36 17.18 22.59 18.31 22.59 18.31 22.59 18.31 22.59 18.31 22.36"/><rect class="cls-1" x="18.31" y="22.36" height="0.23"/><path class="cls-1" d="M3.66,21.92a0,0,0,0,0,0,.08A0,0,0,0,0,3.66,21.92Z" transform="translate(0)"/><path class="cls-1" d="M4.67,21.76a0,0,0,0,0,0-.08A0,0,0,0,0,4.67,21.76Z" transform="translate(0)"/><path class="cls-1" d="M4.45,21.54a0,0,0,1,0,0-.08A0,0,0,0,0,4.45,21.54Z" transform="translate(0)"/><polygon class="cls-1" points="3.97 22.47 3.97 22.27 4.16 22.05 4.09 22 3.96 22.14 3.96 21.99 4.11 21.83 4.04 21.77 3.96 21.86 3.96 21.59 3.88 21.59 3.88 21.86 3.8 21.78 3.74 21.84 3.88 21.99 3.88 22.14 3.75 22 3.69 22.06 3.88 22.27 3.88 22.46 3.76 22.33 3.7 22.39 3.88 22.59 3.88 22.59 3.97 22.59 3.97 22.59 3.97 22.59 4.16 22.38 4.09 22.33 3.97 22.47"/><path class="cls-1" d="M4.13,21.67a0,0,0,1,0,0-.08A0,0,0,0,0,4.13,21.67Z" transform="translate(0)"/><path class="cls-1" d="M4.24,21.67a0,0,0,0,0,0-.08A0,0,0,0,0,4.24,21.67Z" transform="translate(0)"/><path class="cls-1" d="M3.92,21.55a0,0,0,0,0,0-.08A0,0,0,0,0,3.92,21.55Z" transform="translate(0)"/><path class="cls-1" d="M3.71,21.76a0,0,0,0,0,0-.08A0,0,0,0,0,3.71,21.76Z" transform="translate(0)"/><path class="cls-1" d="M4.72,21.91a0,0,0,0,0,0,.08A0,0,0,0,0,4.72,21.91Z" transform="translate(0)"/><path class="cls-1" d="M4.19,21.91h0a0,0,0,0,0,0,.08h0A0,0,0,0,0,4.19,21.91Z" transform="translate(0)"/><polygon class="cls-1" points="4.63 22.32 4.51 22.46 4.51 22.26 4.69 22.05 4.63 22 4.5 22.14 4.5 21.98 4.64 21.83 4.58 21.77 4.5 21.86 4.5 21.58 4.42 21.58 4.42 21.86 4.34 21.77 4.27 21.83 4.42 21.98 4.42 22.14 4.29 21.99 4.23 22.05 4.42 22.26 4.42 22.46 4.29 22.32 4.23 22.38 4.42 22.59 4.42 22.58 4.42 22.59 4.51 22.59 4.51 22.58 4.69 22.38 4.63 22.32"/><polygon class="cls-1" points="9.42 21.72 9.42 21.72 9.42 21.72 9.42 21.72"/><polygon class="cls-1" points="10.4 22.31 10.39 22.31 10.39 22.31 10.39 22.31 10.4 22.31"/><path class="cls-1" d="M9.91,22h0a.26.26,0,0,1,.05-.1v0a.47.47,0,0,0-.07-.45h0a.44.44,0,0,0-.07.44h0l0,0A.54.54,0,0,1,9.91,22Z" transform="translate(0)"/><path class="cls-1" d="M9.91,22h0a.8.8,0,0,1,.08.13h0a.43.43,0,0,0,.4.15h0A.46.46,0,0,0,10,22H9.91Z" transform="translate(0)"/><polygon class="cls-1" points="10.39 22.31 10.39 22.31 10.39 22.31 10.39 22.31"/><polygon class="cls-1" points="9.41 22.3 9.41 22.3 9.41 22.3 9.41 22.3"/><path class="cls-1" d="M9.91,22h0a.43.43,0,0,1-.15,0,.48.48,0,0,0-.35.29h0a.48.48,0,0,0,.44-.18l0-.05s0,0,0-.05Z" transform="translate(0)"/><path class="cls-1" d="M9.91,22h0l0,.05,0,.06a.45.45,0,0,0,.06.45h0a.41.41,0,0,0,.08-.42h0A.54.54,0,0,1,9.91,22Z" transform="translate(0)"/><path class="cls-1" d="M9.91,22h0a.54.54,0,0,0,.07.13h0A.8.8,0,0,0,9.91,22Z" transform="translate(0)"/><path class="cls-1" d="M9.88,22.07l0-.05S9.89,22.06,9.88,22.07Z" transform="translate(0)"/><path class="cls-1" d="M9.91,22h0s0-.05-.08-.13a.49.49,0,0,0-.41-.17h0a.41.41,0,0,0,.34.29h.15Z" transform="translate(0)"/><path class="cls-1" d="M9.85,21.91l0,0c0,.08.08.12.08.13A.54.54,0,0,0,9.85,21.91Z" transform="translate(0)"/><path class="cls-1" d="M9.91,22H9.76A.43.43,0,0,0,9.91,22Z" transform="translate(0)"/><path class="cls-1" d="M10,21.89l0,0-.05.1H10a.55.55,0,0,0,.38-.28h0A.4.4,0,0,0,10,21.89Z" transform="translate(0)"/><polygon class="cls-1" points="9.91 22.02 9.91 22.02 9.91 22.02 9.91 22.02"/><path class="cls-1" d="M9.91,22l.05-.1a.26.26,0,0,0-.05.1Z" transform="translate(0)"/><path class="cls-1" d="M9.91,22h0Z" transform="translate(0)"/><polygon class="cls-1" points="9.91 22.02 9.91 22.02 9.91 22.02 9.91 22.02 9.91 22.02 9.91 22.02 9.91 22.02"/></svg>