<svg xmlns="http://www.w3.org/2000/svg" viewBox="0 0 133.18 61.6"><defs><style>.cls-1{fill:#f4f4f5;stroke:#cbcbcb;stroke-miterlimit:10;stroke-width:1.07px;}.cls-2{fill:#184893;}.cls-3,.cls-9{fill:#fff;}.cls-11,.cls-12,.cls-3,.cls-4{fill-rule:evenodd;}.cls-4{fill:#f1ae1d;}.cls-5{fill:#363667;}.cls-6{fill:#e3b837;}.cls-7{fill:none;stroke:#e3b837;stroke-width:0.94px;}.cls-8{fill:#bf2032;}.cls-10,.cls-11{fill:#010101;}.cls-12{fill:#306fb7;}</style></defs><title>Asset 2</title><g id="Layer_2" data-name="Layer 2"><g id="payment"><rect class="cls-1" x="0.54" y="0.54" width="132.11" height="60.53" rx="8.75"/></g><g id="payment_logo" data-name="payment logo"><rect class="cls-2" x="25.45" y="4.2" width="40.81" height="25.63" rx="2.18"/><path class="cls-3" d="M40.59,22.39,42.4,11.74h2.91L43.49,22.39ZM54,12a7.43,7.43,0,0,0-2.6-.45c-2.87,0-4.89,1.44-4.91,3.51,0,1.53,1.44,2.39,2.54,2.9s1.51.85,1.51,1.32c0,.71-.91,1-1.74,1a6,6,0,0,1-2.73-.56l-.38-.17L45.27,22a9.25,9.25,0,0,0,3.23.56c3,0,5-1.42,5.06-3.64,0-1.21-.77-2.13-2.44-2.89-1-.49-1.64-.82-1.63-1.32s.52-.92,1.66-.92a5.5,5.5,0,0,1,2.17.41l.26.13L54,12m7.47-.23H59.2a1.45,1.45,0,0,0-1.52.88l-4.31,9.76h3.05l.61-1.6h3.72c.09.37.35,1.59.35,1.59h2.7L61.45,11.74Zm-3.56,6.87,1.16-3s.23-.62.38-1l.2.92s.55,2.54.67,3.07ZM38.12,11.74,35.28,19,35,17.52a8.31,8.31,0,0,0-4-4.46l2.6,9.31h3.07L41.2,11.74H38.12"/><path class="cls-4" d="M32.63,11.74H28l0,.22c3.64.88,6.05,3,7.05,5.57l-1-4.89a1.2,1.2,0,0,0-1.31-.9"/><g id="layer1"><g id="g63359"><path id="path58300" class="cls-5" d="M107.72,29.83V4.2H69.82V29.83Z"/><path id="path58344" class="cls-6" d="M88.88,23.9a9.08,9.08,0,1,0-3-6.73,9.06,9.06,0,0,0,3,6.73"/><path id="path58346" class="cls-6" d="M103.09,22.21h.07a.05.05,0,0,0,0-.06h-.07Zm0,.15H103V22.1h.17a.08.08,0,0,1,0,.07s0,.05,0,.07l0,.11h-.07l0-.1h0Zm0,.09a.22.22,0,0,0,.22-.22.22.22,0,1,0-.44,0,.22.22,0,0,0,.22.22m-.29-.22a.29.29,0,1,1,.29.29.29.29,0,0,1-.29-.29"/><path id="path58348" class="cls-6" d="M88.88,23.9a9.08,9.08,0,0,1,0-13.45"/><path id="path58350" class="cls-7" d="M88.88,23.9a9.08,9.08,0,0,1,0-13.45"/><path id="path58352" class="cls-8" d="M91.82,16.21c0-.32-.09-.64-.16-1H86.1q.12-.48.27-1h5a8,8,0,0,0-.39-1H86.76a8.9,8.9,0,0,1,.52-1h3.21a8.36,8.36,0,0,0-.69-1H88a9.15,9.15,0,0,1,.91-1,9.08,9.08,0,1,0,0,13.45,9.25,9.25,0,0,0,.92-1H88a10.56,10.56,0,0,1-.69-1h3.21A8.9,8.9,0,0,0,91,21H86.76a8.77,8.77,0,0,1-.39-1h5c.1-.32.19-.64.26-1a9.61,9.61,0,0,0,.16-1c0-.31.05-.63.05-1s0-.64-.05-1"/><path id="path58354" class="cls-9" d="M103.09,19.26h.07s0,0,0,0,0,0,0,0h-.07Zm0,.14H103v-.25h.17a.06.06,0,0,1,0,.06.07.07,0,0,1,0,.07l0,.11h-.07l0-.1h0Zm0,.1a.22.22,0,1,0-.22-.22.22.22,0,0,0,.22.22m-.29-.22a.29.29,0,1,1,.58,0,.29.29,0,1,1-.58,0"/><path id="path58356" class="cls-10" d="M85.8,19.79a2.46,2.46,0,0,1-.74.12.72.72,0,0,1-.75-.82,2,2,0,0,1,0-.33l.06-.37,0-.3.42-2.55h.95l-.11.56h.59l-.14.94h-.6l-.25,1.53a1.25,1.25,0,0,0,0,.15c0,.2.11.28.34.28a1.45,1.45,0,0,0,.3,0Z"/><path id="path58358" class="cls-10" d="M88.26,17.53v-.19a.43.43,0,0,0-.47-.48c-.3,0-.53.24-.62.67Zm.58,2.23a3.48,3.48,0,0,1-1,.15,1.51,1.51,0,0,1-1.67-1.67c0-1.29.72-2.23,1.72-2.23a1.24,1.24,0,0,1,1.32,1.35,4.3,4.3,0,0,1-.11.93h-2a.54.54,0,0,0,0,.11c0,.44.29.66.86.66a2.36,2.36,0,0,0,1-.23Z"/><path id="path58360" class="cls-10" d="M78.28,19.84h-1l.56-3.54L76.6,19.84h-.67l-.08-3.52-.59,3.52h-1l.77-4.6h1.42l0,2.85,1-2.85H79Z"/><path id="path58362" class="cls-10" d="M81.42,19.84h-.84v-.39a1.13,1.13,0,0,1-1,.45.93.93,0,0,1-.88-1,1.86,1.86,0,0,1,.08-.49c.15-.57.74-.94,1.63-.95h.43a.62.62,0,0,0,0-.24c0-.24-.2-.32-.66-.32a2.83,2.83,0,0,0-.81.11l-.15,0h0l.13-.84a3.76,3.76,0,0,1,1.15-.2c.85,0,1.3.38,1.3,1.1a3.87,3.87,0,0,1,0,.74l-.21,1.33,0,.24,0,.19v.13Zm-.77-1.67h-.2c-.55,0-.83.21-.83.56a.34.34,0,0,0,.35.39c.47,0,.66-.39.68-.94"/><path id="path58364" class="cls-10" d="M93.57,16.13a1.86,1.86,0,0,1,.89.25l.16-1-.24-.09-.41-.1a1.81,1.81,0,0,0-.43,0,1.93,1.93,0,0,0-1.08.19,3,3,0,0,0-.58.49l-.12,0-1,.71.06-.4h-1l-.6,3.74h1l.36-2a4,4,0,0,1,.2-.36.55.55,0,0,1,.55-.25h.07a5.31,5.31,0,0,0,0,.72,1.76,1.76,0,0,0,1.76,2,3,3,0,0,0,.87-.13l.17-1.05a1.93,1.93,0,0,1-.84.24c-.57,0-.91-.42-.91-1.13,0-1,.51-1.72,1.24-1.72"/><path id="path58366" class="cls-10" d="M100.7,19c-.33,0-.51-.25-.51-.74,0-.74.32-1.26.77-1.26s.52.26.52.74c0,.74-.32,1.26-.78,1.26m1.2-3.72-.22,1.31a1,1,0,0,0-.9-.52,1.47,1.47,0,0,0-1.29.85h0l-.62-.37,0-.4h-1l-.6,3.74h1l.33-2,.31-.37a.58.58,0,0,1,.44-.24,3.41,3.41,0,0,0-.18,1.12c0,.93.49,1.55,1.21,1.55a1.17,1.17,0,0,0,.91-.42l0,.37h.93l.75-4.6Z"/><path id="path58368" class="cls-10" d="M96.94,19.84h-.85l0-.39a1.16,1.16,0,0,1-1,.45,1,1,0,0,1-.9-1c0-.89.67-1.44,1.74-1.44h.43a.9.9,0,0,0,0-.24c0-.24-.2-.32-.66-.32a2.91,2.91,0,0,0-.82.11l-.13,0H94.7l.14-.84A3.75,3.75,0,0,1,96,16c.85,0,1.3.38,1.3,1.1a3.17,3.17,0,0,1,0,.74L97,19.18l0,.24,0,.19,0,.13Zm-.78-1.67H96c-.56,0-.84.21-.84.56a.35.35,0,0,0,.35.39c.48,0,.67-.39.68-.94"/><path id="path58370" class="cls-11" d="M83.48,16.9c.19,0,.46,0,.74.05l.14-.86a7.38,7.38,0,0,0-.88-.07c-1.1,0-1.47.58-1.47,1.27a1.09,1.09,0,0,0,.74,1c.4.19.47.22.47.39s-.21.36-.59.36a2.84,2.84,0,0,1-.89-.14l-.11.86h0l.18,0,.26,0a4.66,4.66,0,0,0,.56,0c1.09,0,1.54-.42,1.54-1.25a1.06,1.06,0,0,0-.73-1c-.42-.19-.46-.22-.46-.39s.18-.32.48-.32"/><path id="path58372" class="cls-9" d="M94.88,15.09l-.15,1a2,2,0,0,0-.89-.25c-.73,0-1.25.71-1.25,1.73,0,.69.35,1.11.92,1.11a1.94,1.94,0,0,0,.84-.23l-.17,1.05a3.05,3.05,0,0,1-.87.13c-1.07,0-1.72-.76-1.72-2,0-1.65.91-2.8,2.21-2.8a1.84,1.84,0,0,1,.44.05l.41.1.23.09"/><path id="path58374" class="cls-9" d="M91.72,15.77h-.09c-.33,0-.51.16-.81.61l.08-.57H90l-.6,3.74h1c.35-2.29.44-2.69.92-2.69h.06a3.77,3.77,0,0,1,.38-1.08Z"/><path id="path58376" class="cls-9" d="M86.05,19.5a2.1,2.1,0,0,1-.7.12.72.72,0,0,1-.79-.82c0-.1,0-.22,0-.33l.06-.37,0-.29.43-2.56h1l-.11.56h.51l-.14.91h-.5l-.26,1.56c0,.07,0,.12,0,.15,0,.2.1.28.33.28a.67.67,0,0,0,.27,0Z"/><path id="path58378" class="cls-9" d="M82.27,17A1.09,1.09,0,0,0,83,18c.4.19.46.24.46.41s-.17.35-.56.35a2.61,2.61,0,0,1-.88-.16l-.13.87h0l.18,0a1.18,1.18,0,0,0,.25,0l.55,0c1,0,1.52-.4,1.52-1.25a1,1,0,0,0-.7-1c-.41-.19-.46-.23-.46-.4s.17-.31.48-.31a6.38,6.38,0,0,1,.71.05l.14-.86a6.7,6.7,0,0,0-.87-.08c-1.1,0-1.48.58-1.47,1.27"/><path id="path58380" class="cls-9" d="M101,18.67c.46,0,.78-.52.78-1.26,0-.48-.18-.74-.52-.74s-.77.53-.77,1.26c0,.49.17.74.51.74m1.46.88h-.94l0-.37a1.17,1.17,0,0,1-.91.42c-.72,0-1.19-.62-1.19-1.56,0-1.24.73-2.29,1.6-2.29a1.13,1.13,0,0,1,1,.51l.21-1.31h1Z"/><path id="path58382" class="cls-9" d="M88.51,17.24v-.19a.43.43,0,0,0-.46-.48c-.32,0-.54.24-.63.67Zm.55,2.23a3.48,3.48,0,0,1-1,.15,1.5,1.5,0,0,1-1.68-1.68c0-1.28.73-2.23,1.73-2.23a1.25,1.25,0,0,1,1.32,1.36,4.3,4.3,0,0,1-.11.93h-2a.74.74,0,0,0,0,.12c0,.43.3.65.87.65a2.24,2.24,0,0,0,1-.24Z"/><path id="path58384" class="cls-9" d="M78.53,19.55h-1L78.11,16l-1.26,3.54h-.67L76.1,16l-.6,3.52h-.92l.77-4.6h1.42l0,2.85,1-2.85H79.3Z"/><path id="path58386" class="cls-9" d="M81.68,19.55h-.82l0-.39a1.23,1.23,0,0,1-1,.46.92.92,0,0,1-.9-1c0-.91.63-1.44,1.72-1.44l.41,0a1.93,1.93,0,0,0,0-.24c0-.26-.18-.34-.64-.34a2.9,2.9,0,0,0-.81.1l-.14,0-.09,0,.14-.84a4,4,0,0,1,1.18-.2c.84,0,1.29.38,1.29,1.1a4.87,4.87,0,0,1-.08.74l-.21,1.33,0,.24,0,.19,0,.13ZM81,17.88h-.22q-.84,0-.84.57a.34.34,0,0,0,.35.38c.4,0,.69-.38.71-.94"/><path id="path58388" class="cls-9" d="M97.19,19.55h-.82l0-.39a1.23,1.23,0,0,1-1,.46.93.93,0,0,1-.9-1c0-.91.64-1.44,1.73-1.44l.4,0a.65.65,0,0,0,0-.24c0-.26-.17-.34-.63-.34a3,3,0,0,0-.82.1l-.13,0-.09,0,.13-.84a4.14,4.14,0,0,1,1.18-.2c.85,0,1.29.38,1.29,1.1a3.82,3.82,0,0,1-.08.74l-.2,1.33,0,.24,0,.19,0,.13Zm-.72-1.67h-.22c-.55,0-.84.19-.84.57a.35.35,0,0,0,.36.38c.4,0,.69-.38.7-.94"/><path id="path58390" class="cls-9" d="M99.83,15.77h-.1c-.32,0-.5.16-.81.61l.09-.57h-.89l-.6,3.74h1c.35-2.29.44-2.69.91-2.69h.07a3.49,3.49,0,0,1,.38-1.08Z"/></g></g></g><g id="Layer_35" data-name="Layer 35"><polygon class="cls-12" points="81.47 31.56 107.64 31.56 107.64 57.72 81.47 57.72 81.47 31.56 81.47 31.56"/><polygon class="cls-3" points="90.95 53.58 90.95 44.2 107.64 44.22 107.64 46.81 105.71 48.87 107.64 50.95 107.64 53.59 104.56 53.59 102.92 51.79 101.3 53.6 90.95 53.58 90.95 53.58"/><polygon class="cls-12" points="92.07 52.55 92.07 45.24 98.27 45.24 98.27 46.92 94.08 46.92 94.08 48.06 98.17 48.06 98.17 49.72 94.08 49.72 94.08 50.85 98.27 50.85 98.27 52.55 92.07 52.55 92.07 52.55"/><polygon class="cls-12" points="98.24 52.55 101.67 48.89 98.24 45.24 100.89 45.24 102.99 47.55 105.09 45.24 107.64 45.24 107.64 45.29 104.28 48.89 107.64 52.45 107.64 52.55 105.07 52.55 102.94 50.21 100.82 52.55 98.24 52.55 98.24 52.55"/><polygon class="cls-3" points="91.73 35.88 95.75 35.88 97.17 39.09 97.17 35.88 102.13 35.88 102.99 38.29 103.84 35.88 107.64 35.88 107.64 45.26 87.6 45.26 91.73 35.88 91.73 35.88"/><path class="cls-12" d="M92.49,36.9l-3.24,7.31h2.22l.61-1.46H95.4L96,44.21H98.3L95.06,36.9Zm.28,4.21,1-2.33,1,2.33Z"/><polygon class="cls-12" points="98.27 44.21 98.27 36.9 101.39 36.91 103 41.41 104.63 36.9 107.64 36.9 107.64 44.21 105.7 44.23 105.7 39.21 103.87 44.21 102.1 44.21 100.23 39.19 100.23 44.21 98.27 44.21 98.27 44.21"/></g></g></svg>