<svg xmlns="http://www.w3.org/2000/svg" viewBox="0 0 20.99 23.29"><defs><style>.cls-1{fill:#727373;}</style></defs><title>Asset 2</title><g id="Layer_2" data-name="Layer 2"><g id="Price_details" data-name="Price details"><path class="cls-1" d="M1.94,14.35A1.94,1.94,0,0,1,0,12.41V.35a.36.36,0,0,1,.71,0V12.41a1.23,1.23,0,0,0,2.46,0V7.86a1.94,1.94,0,1,1,3.88,0,.36.36,0,1,1-.71,0,1.23,1.23,0,1,0-2.46,0v4.55A1.94,1.94,0,0,1,1.94,14.35Z"/><path class="cls-1" d="M.35,12.55A.35.35,0,0,1,0,12.2V.35A.35.35,0,0,1,.35,0H15.43a.35.35,0,0,1,.35.35v7a.35.35,0,0,1-.35.35.35.35,0,0,1-.35-.35V.71H.71V12.2A.35.35,0,0,1,.35,12.55Z"/><path class="cls-1" d="M20.64,23.29a.45.45,0,0,1-.16,0l-2.17-1.05-2.17,1.05a.32.32,0,0,1-.3,0l-2.17-1.05L11.5,23.26a.34.34,0,0,1-.31,0L9,22.21,6.85,23.26a.37.37,0,0,1-.34,0,.36.36,0,0,1-.17-.3V7.31A.35.35,0,0,1,6.7,7H19.15A1.84,1.84,0,0,1,21,8.8V22.94a.35.35,0,0,1-.16.3A.34.34,0,0,1,20.64,23.29ZM9,21.47a.4.4,0,0,1,.15,0l2.17,1.05,2.17-1.05a.34.34,0,0,1,.31,0L16,22.55l2.17-1.05a.34.34,0,0,1,.31,0l1.81.88V8.8a1.13,1.13,0,0,0-1.13-1.14H7.05V22.38l1.82-.88A.37.37,0,0,1,9,21.47Z"/><path class="cls-1" d="M6.7,14.35H1.94a.36.36,0,0,1,0-.71H6.7a.36.36,0,0,1,0,.71Z"/><path class="cls-1" d="M18.6,10.1H8.73a.36.36,0,0,1,0-.71H18.6a.36.36,0,1,1,0,.71Z"/><path class="cls-1" d="M18.6,12.51H14.86a.35.35,0,0,1-.35-.35.35.35,0,0,1,.35-.35H18.6a.35.35,0,0,1,.36.35A.36.36,0,0,1,18.6,12.51Z"/><path class="cls-1" d="M12.56,12.51H8.73a.35.35,0,0,1-.35-.35.35.35,0,0,1,.35-.35h3.83a.35.35,0,0,1,.35.35A.35.35,0,0,1,12.56,12.51Z"/><path class="cls-1" d="M18.6,14.92H8.73a.35.35,0,0,1-.35-.35.35.35,0,0,1,.35-.35H18.6a.36.36,0,0,1,.36.35A.35.35,0,0,1,18.6,14.92Z"/><path class="cls-1" d="M18.6,17.34H14a.36.36,0,1,1,0-.71H18.6a.36.36,0,1,1,0,.71Z"/><path class="cls-1" d="M12.17,17.34H8.73a.36.36,0,0,1,0-.71h3.44a.36.36,0,0,1,0,.71Z"/><path class="cls-1" d="M18.6,19.75H8.73a.36.36,0,0,1,0-.71H18.6a.36.36,0,1,1,0,.71Z"/></g></g></svg>