<?xml version="1.0" encoding="utf-8"?>
<!-- Generator: Adobe Illustrator 24.3.0, SVG Export Plug-In . SVG Version: 6.00 Build 0)  -->
<svg version="1.1" id="_1" xmlns="http://www.w3.org/2000/svg" xmlns:xlink="http://www.w3.org/1999/xlink" x="0px" y="0px"
	 viewBox="0 0 266.2 76.1" style="enable-background:new 0 0 266.2 76.1;" xml:space="preserve">
<style type="text/css">
	.st0{fill:#156695;}
	.st1{fill:#FAA62E;}
</style>
<g>
	<path class="st0" d="M27,12.9h3.3v21.7c0.6,0.5,1.3,0.9,2.1,1.1c1,0.3,2,0.4,3,0.4h0.2c0.3,0,0.7,0,1,0.2c0.2,0.2,0.4,0.5,0.3,0.8
		v1.3c0,0.2,0,0.4-0.1,0.6c-0.1,0.1-0.2,0.3-0.3,0.3c-0.1,0.1-0.3,0.1-0.4,0.1c-0.2,0-0.3,0-0.5,0h-0.2c-1,0.1-2.1-0.1-3.1-0.4
		c-0.8-0.3-1.5-0.7-2.1-1.2c-0.1,1.3-0.5,2.6-1.1,3.8c-0.5,1.1-1.3,2.2-2.2,3c-1,0.9-2.1,1.6-3.4,2c-1.4,0.5-2.9,0.7-4.4,0.7
		c-1.6,0-3.1-0.2-4.6-0.8c-1.2-0.5-2.3-1.2-3.2-2.2c-0.8-0.9-1.5-2-1.9-3.1c-0.4-1.2-0.6-2.4-0.6-3.7c0-0.6,0.1-1.3,0.2-1.9
		c0.1-0.6,0.2-1.3,0.4-1.9c0.2-0.6,0.4-1.2,0.7-1.8c0.2-0.5,0.5-1,0.8-1.5l2.8,1.6c-0.2,0.4-0.4,0.7-0.6,1.1
		c-0.2,0.4-0.3,0.8-0.4,1.3c-0.1,0.4-0.2,0.9-0.3,1.3c-0.1,0.5-0.1,0.9-0.1,1.4c0,0.9,0.1,1.8,0.5,2.7c0.3,0.8,0.8,1.6,1.4,2.2
		c0.6,0.6,1.4,1.1,2.2,1.5c1,0.4,2,0.6,3,0.5c1.1,0,2.2-0.2,3.2-0.5c0.9-0.3,1.8-0.8,2.5-1.5c0.7-0.7,1.2-1.6,1.5-2.5
		c0.4-1.1,0.5-2.2,0.5-3.4V12.9z"/>
	<path class="st0" d="M41.2,36.9c-0.2,0.4-0.5,0.8-0.8,1.2c-0.3,0.3-0.6,0.6-0.9,0.8c-0.3,0.2-0.7,0.3-1.1,0.4
		c-0.5,0.1-0.9,0.1-1.4,0.1h-1.4c-0.3,0-0.7-0.1-1-0.2c-0.2-0.2-0.4-0.5-0.3-0.8v-1.3c0-0.2,0-0.4,0.1-0.6c0.1-0.1,0.2-0.2,0.3-0.3
		c0.1-0.1,0.3-0.1,0.4-0.1c0.2,0,0.3,0,0.5,0h0.9c0.7,0,1.4-0.2,2-0.5c0.6-0.4,1-1,1.2-1.7c0.3-1.2,0.7-2.3,1.2-3.4
		c0.4-0.9,0.8-1.7,1.4-2.4c0.4-0.6,0.9-1.1,1.5-1.6c0.5-0.4,1-0.7,1.5-1c0.5-0.2,0.9-0.4,1.5-0.5c0.4-0.1,0.8-0.1,1.2-0.1
		c0.8,0,1.5,0.1,2.2,0.4c0.7,0.2,1.3,0.6,1.8,1c0.5,0.4,1,0.9,1.4,1.4c0.4,0.5,0.7,1.1,1,1.6c0.2,0.6,0.4,1.1,0.5,1.7
		c0.1,0.6,0.2,1.1,0.2,1.7c0,0.5-0.1,1-0.2,1.5c-0.1,0.5-0.3,1.1-0.5,1.6c-0.3,0.5-0.6,1-1,1.5c-0.4,0.5-0.9,0.9-1.4,1.2
		c-0.6,0.4-1.2,0.7-1.8,0.8c-0.7,0.2-1.5,0.3-2.3,0.3c-0.8,0-1.5-0.1-2.2-0.2c-0.6-0.2-1.3-0.4-1.9-0.6c-0.5-0.2-1-0.5-1.5-0.9
		C41.9,37.6,41.5,37.2,41.2,36.9z M52.1,33.1c0-0.5-0.1-1-0.2-1.5c-0.2-0.6-0.4-1.1-0.8-1.6c-0.4-0.5-0.8-1-1.3-1.3
		c-0.6-0.4-1.2-0.6-1.9-0.6c-0.7,0-1.4,0.2-2,0.6c-0.6,0.4-1.2,0.9-1.6,1.5c-0.5,0.7-0.9,1.4-1.1,2.1c-0.3,0.8-0.5,1.6-0.7,2.5
		c0.2,0.2,0.4,0.4,0.7,0.5c0.4,0.2,0.8,0.4,1.2,0.5c0.5,0.2,1,0.3,1.5,0.4c0.5,0.1,1,0.1,1.5,0.1c0.6,0,1.3,0,1.9-0.1
		c0.5-0.1,1-0.3,1.5-0.5c0.4-0.2,0.7-0.6,0.9-1C52,34.1,52.1,33.6,52.1,33.1z"/>
	<path class="st0" d="M58.6,12.9h3.3v19.8c0,0.6,0,1.1,0.1,1.7c0,0.3,0.1,0.7,0.3,1c0.1,0.2,0.3,0.4,0.6,0.5
		c0.3,0.1,0.6,0.2,0.9,0.2H65c0.3,0,0.7,0,1,0.2c0.2,0.2,0.4,0.5,0.3,0.8v1.3c0,0.2,0,0.4-0.1,0.6c-0.1,0.1-0.2,0.3-0.3,0.3
		c-0.1,0.1-0.3,0.1-0.4,0.1c-0.2,0-0.3,0-0.5,0h-1.7c-0.7,0-1.4-0.1-2.1-0.4c-0.6-0.2-1.1-0.6-1.5-1c-0.4-0.5-0.7-1.1-0.9-1.7
		c-0.2-0.7-0.3-1.4-0.3-2.1V12.9z"/>
	<path class="st0" d="M75,35c0.7,0.5,1.4,0.8,2.2,0.9c0.8,0.2,1.7,0.2,2.5,0.2H81c0.4,0,0.7-0.2,0.9-0.5c0.3-0.5,0.4-1.1,0.3-1.6
		v-6.8h3.3V35c0.6,0.4,1.4,0.8,2.1,0.9c0.9,0.2,1.7,0.3,2.6,0.2H93v-11h3.3v14.3h-6c-0.4,0-0.9,0-1.3-0.1c-0.5-0.1-1-0.1-1.4-0.3
		c-0.5-0.1-1-0.3-1.4-0.5c-0.5-0.2-0.9-0.5-1.3-0.8c-0.3,0.5-0.7,0.9-1.2,1.2c-0.6,0.3-1.3,0.5-1.9,0.5h-2c-0.5,0-1,0-1.4-0.1
		c-0.5-0.1-1-0.2-1.4-0.3c-0.5-0.1-0.9-0.3-1.3-0.5c-0.4-0.2-0.8-0.5-1.2-0.8c-0.3,0.5-0.7,0.9-1.2,1.2c-0.6,0.4-1.3,0.5-2,0.5H65
		c-0.3,0-0.7-0.1-1-0.2c-0.2-0.2-0.4-0.5-0.3-0.8v-1.3c0-0.2,0-0.4,0.1-0.6c0.1-0.1,0.2-0.3,0.3-0.3c0.1-0.1,0.3-0.1,0.4-0.1
		c0.2,0,0.3,0,0.5,0h5.4c0.4,0,0.7-0.2,0.9-0.5c0.3-0.5,0.4-1.1,0.4-1.6v-5.2H75V35z M79.4,18.6c0-0.3,0-0.5,0.2-0.8
		c0.1-0.2,0.2-0.4,0.4-0.6c0.4-0.4,0.9-0.6,1.4-0.6c0.3,0,0.5,0.1,0.8,0.2c0.2,0.1,0.4,0.2,0.6,0.4c0.2,0.2,0.3,0.4,0.4,0.6
		c0.1,0.2,0.2,0.5,0.2,0.8c0,0.5-0.2,1-0.6,1.4c-0.2,0.2-0.4,0.3-0.6,0.4c-0.2,0.1-0.5,0.2-0.8,0.2c-0.5,0-1-0.2-1.4-0.6
		C79.5,19.6,79.3,19.1,79.4,18.6L79.4,18.6z M82,13.6c0-0.3,0.1-0.5,0.2-0.8c0.1-0.2,0.2-0.4,0.4-0.6c0.2-0.2,0.4-0.3,0.6-0.4
		c0.2-0.1,0.5-0.2,0.8-0.1c0.3,0,0.5,0,0.8,0.1c0.2,0.1,0.4,0.2,0.6,0.4c0.2,0.2,0.3,0.4,0.4,0.6c0.1,0.2,0.2,0.5,0.2,0.8
		c0,0.3-0.1,0.5-0.2,0.8c-0.1,0.2-0.2,0.4-0.4,0.6c-0.2,0.2-0.4,0.3-0.6,0.4c-0.2,0.1-0.5,0.2-0.8,0.2c-1.1,0.1-1.9-0.8-2-1.8
		C82,13.7,82,13.6,82,13.6L82,13.6z M84.7,18.5c0-0.3,0-0.5,0.2-0.8c0.1-0.2,0.2-0.4,0.4-0.6c0.6-0.6,1.4-0.8,2.2-0.4
		c0.2,0.1,0.4,0.2,0.6,0.4c0.2,0.2,0.3,0.4,0.4,0.6c0.1,0.2,0.2,0.5,0.2,0.8c0,0.5-0.2,1-0.6,1.4c-0.2,0.2-0.4,0.3-0.6,0.4
		c-0.2,0.1-0.5,0.2-0.8,0.2c-1.1,0-2-0.8-2-1.9C84.6,18.6,84.6,18.5,84.7,18.5L84.7,18.5z"/>
	<path class="st0" d="M120.7,42.3v1.9h-18.9v-1.9H120.7z"/>
	<path class="st0" d="M121.8,12.9h3.3v19.8c0,0.6,0,1.1,0.1,1.7c0,0.3,0.1,0.7,0.3,1c0.1,0.3,0.3,0.5,0.5,0.6
		c0.3,0.1,0.6,0.2,0.9,0.2h1.2c0.3,0,0.7,0.1,1,0.2c0.2,0.2,0.4,0.5,0.3,0.8v1.3c0,0.2,0,0.4-0.1,0.6c-0.1,0.1-0.2,0.3-0.3,0.3
		c-0.1,0.1-0.3,0.1-0.4,0.1c-0.2,0-0.3,0-0.5,0h-1.7c-0.7,0-1.4-0.1-2.1-0.4c-0.6-0.3-1.1-0.6-1.5-1.1c-0.4-0.5-0.7-1.1-0.8-1.7
		c-0.2-0.7-0.3-1.4-0.3-2.1L121.8,12.9z"/>
	<path class="st0" d="M128.2,39.4c-0.3,0-0.7-0.1-1-0.2c-0.2-0.2-0.4-0.5-0.3-0.8v-1.3c0-0.2,0-0.4,0.1-0.6c0.1-0.1,0.2-0.2,0.3-0.3
		c0.1-0.1,0.3-0.1,0.4-0.1c0.2,0,0.3,0,0.5,0h4.4c0.3-1.3,0.7-2.6,1.2-3.8c0.4-1,0.9-2,1.5-2.9c0.5-0.8,1-1.5,1.7-2.2
		c0.5-0.5,1.1-1,1.6-1.4c0.4-0.3,0.9-0.6,1.4-0.8c0.3-0.1,0.7-0.2,1-0.2c0.7,0,1.4,0.2,2,0.6c0.6,0.4,1.2,0.9,1.6,1.5
		c0.9,1.4,1.4,3,1.4,4.6c0,0.9-0.2,1.7-0.5,2.5c-0.3,0.7-0.8,1.4-1.3,2v0.1h5.7c0.3,0,0.7,0.1,1,0.2c0.2,0.2,0.4,0.5,0.3,0.8v1.3
		c0,0.2,0,0.4-0.1,0.6c-0.1,0.1-0.2,0.3-0.3,0.3c-0.1,0.1-0.3,0.1-0.4,0.1c-0.2,0-0.3,0-0.5,0h-6.1v0.1c0.6,0.5,1,1.2,1.4,1.9
		c0.4,0.9,0.6,1.8,0.6,2.8c0,0.9-0.2,1.8-0.5,2.7c-0.3,0.7-0.8,1.4-1.3,2c-0.5,0.5-1.1,0.9-1.8,1.2c-0.6,0.3-1.3,0.4-1.9,0.4
		c-0.5,0-1.1-0.1-1.6-0.2c-0.6-0.1-1.2-0.4-1.8-0.7c-0.6-0.4-1.2-0.8-1.7-1.3c-0.6-0.6-1.1-1.3-1.5-2c-0.5-0.9-0.8-1.9-1-2.9
		c-0.3-1.3-0.4-2.5-0.4-3.8L128.2,39.4z M135.3,39.4c0,1.2,0.1,2.4,0.5,3.6c0.3,0.9,0.7,1.7,1.3,2.4c0.4,0.6,1,1,1.7,1.3
		c0.5,0.3,1.1,0.4,1.7,0.4c0.3,0,0.7-0.1,0.9-0.3c0.3-0.2,0.5-0.4,0.7-0.7c0.2-0.3,0.4-0.7,0.5-1.1c0.1-0.4,0.2-0.8,0.2-1.2
		c0-0.6-0.1-1.1-0.3-1.6c-0.2-0.5-0.5-1-0.8-1.4c-0.4-0.4-0.8-0.8-1.3-1c-0.5-0.3-1.1-0.4-1.7-0.4H135.3z M143.1,32.2
		c0-0.5-0.1-1-0.2-1.5c-0.1-0.5-0.4-0.9-0.6-1.3c-0.2-0.3-0.5-0.7-0.9-0.9c-0.3-0.2-0.6-0.3-1-0.3c-0.3,0-0.5,0.1-0.7,0.3
		c-0.3,0.2-0.6,0.5-0.9,0.8c-0.4,0.4-0.7,0.8-1,1.3c-0.3,0.5-0.7,1.1-0.9,1.6c-0.3,0.6-0.5,1.2-0.7,1.9c-0.2,0.7-0.3,1.3-0.4,2h3.1
		c0.6,0,1.2-0.1,1.7-0.3c0.5-0.2,1-0.4,1.4-0.8c0.4-0.3,0.7-0.8,0.9-1.2C143.1,33.3,143.2,32.7,143.1,32.2z"/>
	<path class="st0" d="M150,39.4c-0.3,0-0.7-0.1-1-0.2c-0.2-0.2-0.4-0.5-0.3-0.8v-1.3c0-0.2,0-0.4,0.1-0.6c0.1-0.1,0.2-0.2,0.3-0.3
		c0.1-0.1,0.3-0.1,0.4-0.1c0.2,0,0.3,0,0.5,0h5V12.9h3.3v26.5H150z"/>
	<path class="st0" d="M182.6,42.3v1.9h-18.9v-1.9H182.6z"/>
	<path class="st0" d="M183.7,12.9h3.3v19.8c0,0.6,0,1.1,0.1,1.7c0,0.3,0.1,0.7,0.3,1c0.1,0.3,0.3,0.5,0.6,0.6
		c0.3,0.1,0.6,0.2,0.9,0.2h1.2c0.3,0,0.7,0.1,1,0.2c0.2,0.2,0.4,0.5,0.3,0.8v1.3c0,0.2,0,0.4-0.1,0.6c-0.1,0.1-0.2,0.2-0.3,0.3
		c-0.1,0.1-0.3,0.1-0.4,0.1c-0.2,0-0.3,0-0.5,0h-1.7c-0.7,0-1.4-0.1-2.1-0.4c-0.6-0.3-1.1-0.6-1.5-1.1c-0.4-0.5-0.7-1.1-0.9-1.7
		c-0.2-0.7-0.3-1.4-0.3-2.1L183.7,12.9z"/>
	<path class="st0" d="M198.5,35c0.6,0.4,1.3,0.7,2,0.9c0.9,0.2,1.8,0.3,2.7,0.3h0.1c0.3,0,0.7,0,1,0.2c0.2,0.2,0.4,0.5,0.3,0.8v1.3
		c0,0.2,0,0.4-0.1,0.6c-0.1,0.1-0.2,0.3-0.3,0.3c-0.1,0.1-0.3,0.1-0.4,0.1c-0.2,0-0.3,0-0.5,0h-0.2c-1.1,0-2.2-0.1-3.2-0.5
		c-0.8-0.3-1.5-0.7-2.2-1.2c-0.3,0.5-0.7,0.9-1.2,1.2c-0.6,0.4-1.3,0.5-1.9,0.5h-4.4c-0.3,0-0.7,0-1-0.2c-0.2-0.2-0.4-0.5-0.3-0.8
		v-1.3c0-0.2,0-0.4,0.1-0.6c0.1-0.1,0.2-0.2,0.3-0.3c0.1-0.1,0.3-0.1,0.4-0.1c0.2,0,0.3,0,0.5,0h3.7c0.4,0,0.7-0.2,0.9-0.5
		c0.3-0.5,0.4-1,0.4-1.6v-8.9h3.3L198.5,35z M194.7,18.6c0-0.3,0.1-0.5,0.2-0.8c0.1-0.2,0.2-0.4,0.4-0.6c0.2-0.2,0.4-0.3,0.6-0.4
		c0.5-0.2,1-0.2,1.5,0c0.4,0.2,0.8,0.6,1,1c0.1,0.2,0.2,0.5,0.1,0.8c0,0.3,0,0.5-0.1,0.8c-0.1,0.2-0.2,0.4-0.4,0.6
		c-0.2,0.2-0.4,0.3-0.6,0.4c-0.2,0.1-0.5,0.2-0.8,0.2C195.6,20.6,194.7,19.7,194.7,18.6C194.6,18.6,194.6,18.6,194.7,18.6
		L194.7,18.6z"/>
	<path class="st0" d="M211.7,35c0.6,0.4,1.3,0.7,2,0.9c0.9,0.2,1.8,0.3,2.7,0.3h0.1c0.3,0,0.7,0,1,0.2c0.2,0.2,0.4,0.5,0.3,0.8v1.3
		c0,0.2,0,0.4-0.1,0.6c-0.1,0.1-0.2,0.2-0.3,0.3c-0.1,0.1-0.3,0.1-0.4,0.1c-0.2,0-0.3,0-0.5,0h-0.2c-1.1,0-2.2-0.1-3.2-0.5
		c-0.8-0.3-1.5-0.7-2.2-1.2c-0.3,0.5-0.7,0.9-1.2,1.2c-0.6,0.4-1.3,0.5-1.9,0.5h-4.4c-0.3,0-0.7,0-1-0.2c-0.2-0.2-0.4-0.5-0.3-0.8
		v-1.3c0-0.2,0-0.4,0.1-0.6c0.1-0.1,0.2-0.2,0.3-0.3c0.1-0.1,0.3-0.1,0.4-0.1c0.2,0,0.3,0,0.5,0h3.7c0.4,0,0.7-0.2,0.9-0.5
		c0.3-0.5,0.4-1,0.4-1.6v-8.9h3.3L211.7,35z M208,45c0-0.3,0.1-0.5,0.2-0.8c0.1-0.2,0.2-0.4,0.4-0.6c0.2-0.2,0.4-0.3,0.6-0.4
		c0.5-0.2,1-0.2,1.5,0c0.2,0.1,0.4,0.2,0.6,0.4c0.2,0.2,0.3,0.4,0.4,0.6c0.1,0.2,0.2,0.5,0.2,0.8c0,0.3-0.1,0.5-0.2,0.8
		c-0.1,0.2-0.2,0.4-0.4,0.6c-0.2,0.2-0.4,0.3-0.6,0.4c-0.2,0.1-0.5,0.2-0.8,0.2C208.9,47,208,46.2,208,45C208,45,208,45,208,45
		L208,45z"/>
	<path class="st0" d="M220,25c0.7-0.2,1.5-0.4,2.2-0.6c0.8-0.2,1.7-0.3,2.5-0.2c0.9,0,1.7,0.1,2.5,0.4c0.7,0.3,1.3,0.7,1.9,1.2
		c0.5,0.5,1,1.2,1.3,1.9c0.3,0.8,0.6,1.6,0.7,2.4c0.1,0.8,0.2,1.5,0.4,2.3c0.1,0.7,0.3,1.3,0.5,1.9c0.2,0.5,0.4,0.9,0.7,1.3
		c0.3,0.3,0.7,0.5,1.1,0.5v3.3h-17.3c-0.3,0-0.7,0-1-0.2c-0.2-0.2-0.4-0.5-0.3-0.8v-1.3c0-0.2,0-0.4,0.1-0.6
		c0.1-0.1,0.2-0.2,0.3-0.3c0.1-0.1,0.3-0.1,0.4-0.1c0.2,0,0.3,0,0.5,0h13.1c-0.3-0.3-0.5-0.6-0.6-1c-0.2-0.6-0.3-1.2-0.4-1.8
		c-0.1-0.7-0.2-1.5-0.4-2.2c-0.1-0.7-0.4-1.3-0.7-1.9c-0.3-0.6-0.8-1-1.4-1.4c-0.7-0.4-1.5-0.6-2.3-0.5c-0.3,0-0.6,0-0.9,0.1
		c-0.3,0-0.7,0.1-1,0.2l-1,0.2c-0.3,0.1-0.5,0.1-0.8,0.2V25z"/>
	<path class="st0" d="M244.2,31.6h-3.6v-2.9h4l0.7-4.9h-3.6v-2.9h4l1.1-7.9h2.9l-1.1,7.9h4.5l1.1-7.9h2.9l-1.1,7.9h3.6v2.9h-4
		l-0.7,4.9h3.6v2.9h-4l-1.1,7.9h-2.9l1.1-7.9h-4.4l-1.1,7.9h-2.9L244.2,31.6z M252.6,23.8h-4.5l-0.7,4.9h4.5L252.6,23.8z"/>
	<path class="st1" d="M14.4,67.5l-3.7-6.4c1.5-0.6,36.8-15.1,92.5-9.4l-1,7.1C49,53.4,14.8,67.4,14.4,67.5"/>
</g>
</svg>
