<svg xmlns="http://www.w3.org/2000/svg" viewBox="0 0 35.11 26.77"><title>Asset 3</title><g id="Layer_2" data-name="Layer 2"><g id="car_sides_3" data-name="car sides 3"><g id="Layer_17" data-name="Layer 17"><path d="M27.34,22.32H7.92A11.6,11.6,0,0,1,4.58,22c-.7-.31-1-1.9-1-2-.4-1.26-1.13-5.11-1.29-6L2.14,18.6h0S1.89,17,1.87,15.66s0-3.32,0-3.34h0L2.64,11A7.67,7.67,0,0,1,2.78,9.6a11.23,11.23,0,0,1,.67-1.69h0l.34-.32L4,7.5a18.36,18.36,0,0,1,2-.3H29.55a15.82,15.82,0,0,1,1.76.31h0l.39.2h0a12.4,12.4,0,0,1,.76,1.87A7.67,7.67,0,0,1,32.61,11l.77,1.36h0s0,2,0,3.34-.23,2.92-.23,2.94h0L33,14.08c-.17.86-.9,4.71-1.3,6,0,.06-.29,1.65-1,2A11.56,11.56,0,0,1,27.34,22.32ZM2.26,13.73l0,.17S3.17,18.62,3.62,20c0,0,.29,1.65,1,1.94a11.46,11.46,0,0,0,3.32.3H27.34a11.42,11.42,0,0,0,3.31-.3c.69-.29,1-1.92,1-1.93C32.08,18.62,33,14,33,13.9l0-.17.15,4.62c.06-.49.19-1.63.21-2.69,0-1.35,0-3.22,0-3.33L32.57,11h0a7.25,7.25,0,0,0-.14-1.35,12.07,12.07,0,0,0-.75-1.86l-.39-.2a13.51,13.51,0,0,0-1.74-.31H6c-.29,0-1.59.22-2,.29l-.17.09-.33.31a10.13,10.13,0,0,0-.67,1.68A7.25,7.25,0,0,0,2.68,11h0l-.77,1.36c0,.11,0,2,0,3.33,0,1.06.14,2.2.2,2.69ZM4.38,16.9v0l0-.05h0v0s.5-1,1.1-1.15a38.88,38.88,0,0,1,4.75-.35H25.16a38.72,38.72,0,0,1,4.74.35c.6.18,1.08,1.11,1.1,1.15v0h0l0,.05v0h0s-3,0-3.54,0a2.14,2.14,0,0,1-1-.31l-.28-.14a7.84,7.84,0,0,0-1-.2H10.24a7.61,7.61,0,0,0-1,.2,1.76,1.76,0,0,0-.27.14,2.18,2.18,0,0,1-1,.31c-.56,0-3.52,0-3.55,0Zm20.78-.74a6.21,6.21,0,0,1,1,.21,2.28,2.28,0,0,1,.28.13,2.13,2.13,0,0,0,1,.32l3.51,0,0-.05v0h0c-.08-.16-.53-1-1.06-1.11a40.44,40.44,0,0,0-4.73-.34H10.24a40.61,40.61,0,0,0-4.74.34c-.52.16-1,1-1.06,1.11h0l0,0,0,.05,3.52,0a2.13,2.13,0,0,0,1-.32l.28-.13a6.41,6.41,0,0,1,1-.21Zm3.08-1.1h-.15c-.07,0-7.47-.13-10.46-.13s-10.2.13-10.27.13H7.24l.11,0a25.16,25.16,0,0,1,7-1.24h7.25A35.45,35.45,0,0,1,28.1,15ZM14.3,13.82A24.82,24.82,0,0,0,7.48,15c1,0,7.37-.13,10.15-.13s9.24.11,10.31.13a33.68,33.68,0,0,0-6.39-1.2Zm7.82-.19H13.35a1.72,1.72,0,0,1-1.5-.62c-.12-.2-.69-1.55-.75-1.7H5.71c-.5,0-1.1,0-1.29-.26a1.42,1.42,0,0,1-.18-.58.85.85,0,0,0-.12-.39,2.88,2.88,0,0,0-.35-.29H3.68V9.44L4,9H4a5.74,5.74,0,0,1,1.22-.15h25A5.74,5.74,0,0,1,31.38,9h0l.28.44v.34h0a3.63,3.63,0,0,0-.36.29,1,1,0,0,0-.11.39,1.42,1.42,0,0,1-.18.58c-.19.23-.79.26-1.29.26H24.32c-.05.14-.56,1.36-.77,1.72A1.9,1.9,0,0,1,22.12,13.63ZM3.72,9.75h.07a2.72,2.72,0,0,1,.36.29,1.09,1.09,0,0,1,.13.42,1.61,1.61,0,0,0,.17.56c.18.22.8.24,1.26.24h5.41v0s.63,1.5.75,1.7a1.71,1.71,0,0,0,1.47.61h8.77A1.82,1.82,0,0,0,23.51,13c.22-.37.78-1.71.78-1.72v0h5.41c.46,0,1.08,0,1.26-.24a1.61,1.61,0,0,0,.17-.56,1.09,1.09,0,0,1,.13-.42,4,4,0,0,1,.35-.29V9.45L31.36,9a5.31,5.31,0,0,0-1.2-.15h-25A5.31,5.31,0,0,0,4,9l-.26.41Z"/><path d="M24.37,2.33l.55-.82-.14.68Zm.48-.64-.38.57.28-.1Z"/><path d="M10.88,2.33l-.41-.14-.14-.68Zm-.38-.17.28.1-.38-.57Z"/><path d="M26.64,1.9h0A2.29,2.29,0,0,1,27.25.6l-.07,0a2.42,2.42,0,0,0-.6,1.3c-1.91-.65-7.31-.7-8.93-.7s-6.8.05-8.81.66A2.19,2.19,0,0,0,8.19.55l-.07,0a2,2,0,0,1,.66,1.29l-.12,0A6.56,6.56,0,0,0,7.2,3.05l0,0A7,7,0,0,1,8.68,2l.11,0a4.73,4.73,0,0,1,.09.57l.29.79.06,0-.3-.77a4.23,4.23,0,0,0-.08-.58c2-.62,7.21-.67,8.8-.67s7,.05,8.92.71c-.05.28-.07.5-.08.54l-.29.77.05,0,.3-.78h0s0-.23.07-.52a6.26,6.26,0,0,1,1.44,1.12l0,0A6.33,6.33,0,0,0,26.64,1.9Z"/><path d="M28.83,5.44,27.55,3.5V3.28l.73.43Zm-1.21-2,1,1.46-.38-1.18-.59-.35Z"/><path d="M30.05,7.22l-.58-.12v0l-.81-1.91-.44-1.42-.3-.84.21-.4ZM29.53,7l.4.09L28.11,2.69,28,2.92l.29.81.44,1.41Z"/><path d="M30.69,7.18,30,7h0L28.25,2.74l.28-.47ZM30.07,7l.53.11L28.52,2.38l-.22.36Z"/><path d="M6.42,5.44,7,3.71l.73-.43V3.5ZM7,3.76,6.66,4.94l1-1.46V3.41Z"/><path d="M5.17,7.26l2-4.75.21.4L7,3.75,6.6,5.16l-.82,2Zm2-4.57L5.29,7.16l.43-.07.81-1.95L7,3.73l.29-.81Z"/><path d="M4.56,7.18,6.72,2.27,7,2.74H7L5.22,7Zm2.17-4.8L4.65,7.11,5.18,7,7,2.74Z"/><path d="M17.7,7.18h0L6,7.12l0-.06S7.23,4.7,7.56,4.21a3.86,3.86,0,0,1,3.16-1.44c1.36-.08,6-.2,7-.2s5.61.12,7,.2a3.86,3.86,0,0,1,3.16,1.44c.33.49,1.56,2.83,1.57,2.85l0,.06ZM6.08,7,17.7,7.1,29.31,7c-.19-.36-1.24-2.34-1.55-2.79a3.74,3.74,0,0,0-3.09-1.4c-1.37-.09-6-.2-7-.2s-5.61.11-7,.2a3.74,3.74,0,0,0-3.09,1.4C7.32,4.7,6.27,6.68,6.08,7Z"/><path d="M31.07,7.43l-1.65-.34v0L17.7,7.18,6,7.12l-1.84.31,0-.07S6.1,2.65,6.57,1.58l0-.07.74,1.4-.26.74.62-.37v.19L8,3.74a4.34,4.34,0,0,1,2.75-1c1.36-.08,6-.2,7-.2s5.61.12,7,.2a4.47,4.47,0,0,1,2.68.9l.2-.2V3.28l.62.37-.26-.74.74-1.4,0,.07c.47,1.07,2.35,5.74,2.37,5.78ZM6.61,1.69C6.13,2.8,4.52,6.78,4.3,7.33L6,7,17.7,7.1,29.31,7l0-.06L31,7.33c-.23-.57-1.83-4.53-2.31-5.64L28,2.92l.33.91-.7-.42v.1l-.27.27,0,0a4.41,4.41,0,0,0-2.66-.9c-1.37-.09-6-.2-7-.2s-5.61.11-7,.2A4.23,4.23,0,0,0,8,3.82l0,0-.34-.34v-.1l-.7.42.33-.91Z"/><path d="M31.07,7.43l-1.65-.34v0L17.7,7.18,6,7.12l-1.84.31,0-.07S6.1,2.65,6.57,1.58l0-.07.74,1.4-.25.69A4.79,4.79,0,0,1,8.76,2.47a17.06,17.06,0,0,1,1.72-.33h0l.35.12C11,2.24,14.19,2,17.63,2s6.6.23,6.79.25l.34-.12h0a17.06,17.06,0,0,1,1.72.33,4.64,4.64,0,0,1,1.66,1.12l-.24-.68.74-1.4,0,.07c.47,1.07,2.35,5.74,2.37,5.78ZM6.61,1.69C6.13,2.8,4.52,6.78,4.3,7.33L6,7,17.7,7.1,29.31,7l0-.06L31,7.33c-.23-.57-1.83-4.53-2.31-5.64L28,2.92l.35,1-.12-.13a5.13,5.13,0,0,0-1.75-1.21c-.73-.19-1.6-.32-1.7-.34l-.34.12h0s-3.28-.25-6.79-.25-6.76.25-6.8.25h0l-.35-.12c-.1,0-1,.15-1.7.34A5.07,5.07,0,0,0,7,3.76H7l-.09,0,.33-.9Z"/><path d="M17.7,7,6.24,7l0,0C6.6,6.26,7.44,4.69,7.7,4.3a3.7,3.7,0,0,1,3-1.36c1.36-.08,5.94-.2,7-.2s5.6.12,7,.2a3.7,3.7,0,0,1,3,1.36c.26.39,1.1,2,1.44,2.61l0,0ZM6.32,6.9,17.7,7,29.07,6.9c-.36-.67-1.17-2.19-1.43-2.57a3.62,3.62,0,0,0-3-1.34c-1.37-.08-5.94-.2-7-.2s-5.6.12-7,.2a3.62,3.62,0,0,0-3,1.34C7.49,4.71,6.68,6.23,6.32,6.9Z"/><path d="M27.34,22.34H7.92A11,11,0,0,1,4.58,22c-.65-.28-1-1.65-1-1.92v0h0c.72-.08,2.44-.28,2.81-.3a1,1,0,0,0,.65-.25c0-.06.56-.93,1.16-1.76a2.18,2.18,0,0,1,2.12-1H25.22a2.17,2.17,0,0,1,2.11,1c.61.83,1.13,1.7,1.17,1.76a1,1,0,0,0,.64.25h0c.33,0,1.72.18,2.51.27h0v0c0,.17-.33,1.67-1,2A11.11,11.11,0,0,1,27.34,22.34ZM3.66,20.13c.07.34.36,1.58,1,1.83a11.35,11.35,0,0,0,3.31.3H27.34a11.42,11.42,0,0,0,3.31-.3c.61-.26.9-1.57,1-1.86l-2.46-.27a1,1,0,0,1-.7-.27h0s-.54-.91-1.16-1.77a2.08,2.08,0,0,0-2.05-.95H10.35a2.07,2.07,0,0,0-2,.95c-.63.86-1.16,1.76-1.17,1.77h0a1,1,0,0,1-.7.27Z"/><path d="M27.34,22.34H7.92A11,11,0,0,1,4.58,22a1,1,0,0,1-.48-.46l0-.05h.07l2.19-.09c.74-.05,3.91-.12,4.2-.12.13-.2,1.39-2.13,1.67-2.52a.83.83,0,0,1,.78-.35H22.6a.81.81,0,0,1,.77.35c.28.39,1.55,2.32,1.68,2.52.28,0,3.46.07,4.2.12l1.88.08h.07l0,0a1.12,1.12,0,0,1-.48.47A11.11,11.11,0,0,1,27.34,22.34ZM4.2,21.59a.94.94,0,0,0,.41.37,11.35,11.35,0,0,0,3.31.3H27.34a11.42,11.42,0,0,0,3.31-.3,1,1,0,0,0,.41-.38l-1.82-.09c-.77,0-4.18-.11-4.21-.12h0s-1.4-2.13-1.69-2.53a.77.77,0,0,0-.7-.33H13a.77.77,0,0,0-.71.33c-.29.4-1.67,2.51-1.68,2.53h0s-3.45.08-4.22.12Z"/><path d="M3.26,18.92v0c0-.24-.11-.5-.17-.78v0h0c.62-.11,2.74-.5,3.66-.57h.08l-.68.92h0s-2,.32-2.85.5Zm-.1-.8c0,.25.11.49.16.71.85-.18,2.62-.47,2.8-.5l.57-.77C5.76,17.65,3.81,18,3.16,18.12Z"/><path d="M32,18.85h0c-1-.19-2.54-.44-2.55-.44h0l-.68-.92h.08c.79.06,2.44.35,3.36.52h0v0q-.09.42-.18.78Zm-2.57-.52c.17,0,1.6.26,2.51.44.05-.22.1-.46.16-.71-.89-.16-2.43-.42-3.23-.5Z"/><path d="M31.05,16.84H31s-3,0-3.54-.05a2.06,2.06,0,0,1-1-.32l-.28-.13a8.4,8.4,0,0,0-1-.21H10.24a8.1,8.1,0,0,0-1,.21l-.27.13a2.1,2.1,0,0,1-1,.32c-.56,0-3.52.05-3.55.05H4.35l0-.06s.5-1,1.11-1.16a38.74,38.74,0,0,1,4.75-.35H25.16a39,39,0,0,1,4.75.35c.61.18,1.09,1.12,1.11,1.16Zm-20.82-.78H25.16a6.48,6.48,0,0,1,1.05.21,2.28,2.28,0,0,1,.28.13,2,2,0,0,0,1,.31c.51,0,3,.05,3.48.05-.12-.21-.54-.92-1-1.07a40.26,40.26,0,0,0-4.72-.34H10.24a40.28,40.28,0,0,0-4.73.34c-.5.15-.92.86-1,1.07.43,0,3,0,3.48-.05a2,2,0,0,0,.94-.31l.28-.13a6.48,6.48,0,0,1,1.05-.21Z"/><path d="M29.92,16.61h0c-.72,0-1.59-.07-2.12-.11l-.32,0a1.08,1.08,0,0,1-.92-.63.27.27,0,0,1,0-.25c.06-.11.23-.11.24-.11a24,24,0,0,1,3.14.28.9.9,0,0,1,.45.38.3.3,0,0,1,.07.31C30.32,16.56,30.17,16.61,29.92,16.61Zm0-.07c.29,0,.39-.06.42-.12s0-.18-.06-.23a.8.8,0,0,0-.41-.35,27.8,27.8,0,0,0-3.12-.28s-.14,0-.17.08a.19.19,0,0,0,0,.17,1,1,0,0,0,.86.59l.33,0c.52,0,1.4.09,2.12.11Z"/><path d="M5.49,16.61q-.37,0-.45-.15a.3.3,0,0,1,.06-.31.92.92,0,0,1,.46-.38,23.82,23.82,0,0,1,3.13-.28s.19,0,.25.11a.27.27,0,0,1,0,.25,1.1,1.1,0,0,1-.92.63l-.33,0c-.52,0-1.4.1-2.12.11h0Zm3.2-1a27.55,27.55,0,0,0-3.11.28.8.8,0,0,0-.41.35s-.1.15-.06.23.12.12.42.12h0c.72,0,1.6-.08,2.12-.11l.32,0a1,1,0,0,0,.87-.59.19.19,0,0,0,0-.17C8.83,15.57,8.69,15.56,8.69,15.56Z"/><path d="M30.16,10.71H24.49l-.19-.42H11.16l-.2.42H5.18a.79.79,0,0,1-.59-.23l-.43-.55L4,9.8H3.67V9.44L4,9H4a5.4,5.4,0,0,1,1.22-.16h25A5.4,5.4,0,0,1,31.38,9h0l.28.44V9.8h-.29l-.2.13-.43.55A.79.79,0,0,1,30.16,10.71Zm-5.64-.06h5.64a.75.75,0,0,0,.55-.2l.43-.56h0l.22-.14h.24v-.3L31.35,9a5.19,5.19,0,0,0-1.19-.15h-25A5.19,5.19,0,0,0,4,9l-.26.41v.3H4l.23.14.43.56a.75.75,0,0,0,.55.2h5.75l.19-.41H24.33Z"/><path d="M5.29,10.17A.71.71,0,0,1,4.81,10l-.12-.06a1.47,1.47,0,0,1-.48-.29H3.93V9.48l.23-.35h0A5.31,5.31,0,0,1,5.29,9h5.79v1.16ZM4,9.58h.25a1.32,1.32,0,0,0,.46.28l.15.08a.57.57,0,0,0,.42.15l5.71,0v-1H5.29a5.24,5.24,0,0,0-1.09.13L4,9.5Z"/><path d="M30.16,10.17l-5.79,0V9h5.79a5.31,5.31,0,0,1,1.12.13h0l.22.35v.17h-.28a1.53,1.53,0,0,1-.47.29l-.13.06A.71.71,0,0,1,30.16,10.17Zm-5.71-.1,5.71,0a.57.57,0,0,0,.42-.15l.16-.08a1.37,1.37,0,0,0,.45-.28h.25V9.5l-.19-.31a5.24,5.24,0,0,0-1.09-.13H24.45Z"/><path d="M27.34,22.34H7.92A11,11,0,0,1,4.58,22c-.71-.3-1-1.87-1-2-.38-1.2-1.05-4.69-1.26-5.81L2.16,18.6H2.08s-.2-1.55-.23-2.94,0-3.32,0-3.34h0L2.62,11A7.29,7.29,0,0,1,2.76,9.6a8.57,8.57,0,0,1,.47-1.26H2A10.4,10.4,0,0,1,.42,8.18h0v0A4.55,4.55,0,0,1,0,6.8c0-.5.71-.82,1.34-1a2.87,2.87,0,0,1,1.92-.13c.41.26.36,1.29.35,1.33l0,.58h.27l.37-.19c.12-.29,2.07-5.14,2.42-5.89S9,.25,10,.21,15.67,0,17.63,0s6.79.17,7.68.21,2.94.45,3.31,1.25S30.93,7.06,31,7.35l.37.19h.13l0-.58s-.05-1.07.35-1.33a3,3,0,0,1,1.93.13c.62.22,1.34.54,1.33,1a4.26,4.26,0,0,1-.39,1.36v0h0a10.42,10.42,0,0,1-1.57.16H32a7.57,7.57,0,0,1,.47,1.26A7.29,7.29,0,0,1,32.63,11l.77,1.36h0s0,2,0,3.34a29,29,0,0,1-.23,2.94h-.08L33,14.25c-.21,1.12-.88,4.61-1.26,5.81,0,.1-.31,1.67-1,2A11.11,11.11,0,0,1,27.34,22.34ZM2.25,13.55l.06.35S3.19,18.62,3.64,20h0s.29,1.63,1,1.92a11.35,11.35,0,0,0,3.31.3H27.34a11.42,11.42,0,0,0,3.31-.3c.67-.29,1-1.9,1-1.92h0c.45-1.42,1.31-6.1,1.32-6.14l.07-.35.14,4.54c.07-.56.16-1.53.18-2.43,0-1.33,0-3.18,0-3.33L32.55,11h0a7.11,7.11,0,0,0-.14-1.34,6.34,6.34,0,0,0-.49-1.3l0-.06h1.24a13.39,13.39,0,0,0,1.52-.16A4.53,4.53,0,0,0,35,6.8c0-.46-.68-.76-1.29-1A2.71,2.71,0,0,0,31.9,5.7c-.38.23-.32,1.25-.32,1.26l0,.66h-.23L31,7.4h0s-2.07-5.13-2.43-5.9S26.26.32,25.3.28s-5.72-.2-7.67-.2S10.84.25,10,.28,7.06.72,6.7,1.49,4.3,7.34,4.28,7.39h0l-.41.22H3.49l0-.66s0-1-.32-1.26a2.74,2.74,0,0,0-1.86.13C.76,6,.07,6.34.08,6.8A4.58,4.58,0,0,0,.45,8.11,11.79,11.79,0,0,0,2,8.27H3.35l0,.06a7.76,7.76,0,0,0-.49,1.3A7.11,7.11,0,0,0,2.7,11h0l-.78,1.36c0,.15,0,2,0,3.33,0,.9.12,1.87.18,2.43Z"/><path d="M7,26.77H2.64a.52.52,0,0,1-.54-.5V18.19l.15-4.64.06.35S3.19,18.62,3.64,20h0s.29,1.63,1,1.92h0a9.24,9.24,0,0,0,2.9.3h0v4A.52.52,0,0,1,7,26.77ZM2.3,14.25,2.17,18.2v8.07a.45.45,0,0,0,.47.43H7a.45.45,0,0,0,.46-.43V22.34A9.48,9.48,0,0,1,4.58,22c-.71-.3-1-1.87-1-2C3.18,18.86,2.51,15.37,2.3,14.25Z"/><path d="M32.63,26.77H28.26a.52.52,0,0,1-.54-.5v-4h0a9.28,9.28,0,0,0,2.9-.3c.67-.29,1-1.9,1-1.92h0c.45-1.42,1.31-6.1,1.32-6.14l.07-.35.16,5v7.74A.52.52,0,0,1,32.63,26.77Zm-4.84-4.43v3.93a.45.45,0,0,0,.47.43h4.37a.45.45,0,0,0,.46-.43V18.53L33,14.25c-.21,1.12-.88,4.61-1.26,5.81,0,.1-.31,1.67-1,2A9.52,9.52,0,0,1,27.79,22.34Z"/><path d="M27.79,23.11H7.47v-.85H27.79ZM7.55,23H27.72v-.7H7.55Z"/><path d="M29.22,21.49h0c-.88,0-4.12-.11-4.15-.12h0s-1.4-2.13-1.69-2.53a.75.75,0,0,0-.7-.33H13a.77.77,0,0,0-.71.33c-.29.4-1.67,2.51-1.68,2.53h0s-3.28.07-4.15.12h0v0a1.69,1.69,0,0,1,0-.21.39.39,0,0,1,.3-.34H9.82c.12-.18,1.18-1.72,1.51-2.27a1.29,1.29,0,0,1,1.05-.72H23.19a1.31,1.31,0,0,1,1,.72c.33.55,1.38,2.09,1.5,2.27h3.15a.39.39,0,0,1,.3.34,1.69,1.69,0,0,1,0,.21ZM6.69,21a.34.34,0,0,0-.24.28s0,.09,0,.16c.9,0,3.82-.11,4.09-.11.13-.2,1.39-2.13,1.67-2.52a.83.83,0,0,1,.78-.35H22.6a.81.81,0,0,1,.77.35c.28.39,1.55,2.32,1.68,2.52.27,0,3.19.07,4.09.11a1.16,1.16,0,0,0,0-.16.33.33,0,0,0-.23-.28H25.69s-1.17-1.71-1.52-2.29a1.27,1.27,0,0,0-1-.69H12.38a1.28,1.28,0,0,0-1,.69c-.34.58-1.5,2.27-1.52,2.29H6.69Z"/><path d="M26.43,21h-.74s-1.17-1.71-1.52-2.29a1.27,1.27,0,0,0-1-.69H12.38a1.28,1.28,0,0,0-1,.69c-.34.58-1.5,2.27-1.52,2.29H9.14l0-.06c.84-1.23,1.86-2.75,2-2.91a1,1,0,0,1,.6-.33h12a1,1,0,0,1,.61.33c.13.16,1.16,1.68,2,2.91Zm-.69-.07h.54c-1.17-1.74-1.85-2.72-2-2.85a.88.88,0,0,0-.55-.3h-12a.88.88,0,0,0-.55.3c-.13.16-1.13,1.62-2,2.85h.54c.12-.18,1.18-1.72,1.51-2.27a1.29,1.29,0,0,1,1.05-.72H23.19a1.31,1.31,0,0,1,1,.72C24.57,19.18,25.62,20.72,25.74,20.9Z"/><path d="M32.32,13l-.9-1.87-.17-1a.36.36,0,0,0,0,.11l.16.92.9,1.88.69.89,0,0Z"/><path d="M22,13.52H13.45A1.23,1.23,0,0,1,12.36,13c-.16-.26-1.19-2.6-1.24-2.7v0H24.34v0c0,.1-1.08,2.44-1.24,2.7A1.25,1.25,0,0,1,22,13.52ZM11.17,10.29c.12.26,1.08,2.42,1.22,2.67h0a1.22,1.22,0,0,0,1.06.52H22A1.22,1.22,0,0,0,23.06,13c.14-.25,1.1-2.41,1.22-2.67Z"/><path d="M4.21,10.25l0-.11-.18,1L3.11,13l-.85.9h0v0l0,0,.85-.9.9-1.89Z"/><path d="M7.41,8.87A6.57,6.57,0,0,1,7.8,7l0,0a6.15,6.15,0,0,0-.4,1.9Z"/><path d="M28.2,8.87A6.19,6.19,0,0,0,27.81,7l.05,0a6.15,6.15,0,0,1,.4,1.9Z"/><path d="M31.05,16.84H31s-3,0-3.54-.05a2.06,2.06,0,0,1-1-.32l-.28-.13a8.4,8.4,0,0,0-1-.21H10.24a8.1,8.1,0,0,0-1,.21l-.27.13a2.1,2.1,0,0,1-1,.32c-.56,0-3.52.05-3.55.05H4.35l0-.06s.5-1,1.11-1.16a38.74,38.74,0,0,1,4.75-.35H25.16a39,39,0,0,1,4.75.35c.61.18,1.09,1.12,1.11,1.16Zm-20.82-.78H25.16a6.48,6.48,0,0,1,1.05.21,2.28,2.28,0,0,1,.28.13,2,2,0,0,0,1,.31c.51,0,3,.05,3.48.05-.12-.21-.54-.92-1-1.07a40.26,40.26,0,0,0-4.72-.34H10.24a40.28,40.28,0,0,0-4.73.34c-.5.15-.92.86-1,1.07.43,0,3,0,3.48-.05a2,2,0,0,0,.94-.31l.28-.13a6.48,6.48,0,0,1,1.05-.21Z"/><path d="M7.23,15.46h0l0-4.18,0-.59h0l0,.59Z"/><path d="M28.39,15.47l0-4.2,0-.59h-.06l0,.59,0,4.2Z"/></g></g></g></svg>