<svg xmlns="http://www.w3.org/2000/svg" viewBox="0 0 35.11 26.69"><title>Asset 1</title><g id="Layer_2" data-name="Layer 2"><g id="car_sides_3" data-name="car sides 3"><g id="Layer_17" data-name="Layer 17"><path d="M4.2,8.27H2A12,12,0,0,1,.42,8.11h0v0S.23,7.72.12,7.34l0,0,3.43.18h1ZM.45,8A12,12,0,0,0,2,8.19H4.15l.24-.64H3.53L.2,7.37C.3,7.68.42,8,.45,8Z"/><path d="M31.82,10.48l-.29-.32.22-.54.06-.57.13.47,0,.33,0,.31Zm-.25-.32.24.25.09-.25,0-.31,0-.33-.08-.27,0,.39Z"/><path d="M3.26,10.48l-.11-.32,0-.31,0-.33h0l.13-.47.05.57.23.54Zm-.08-.32.1.25.23-.25L3.3,9.63l0-.38-.08.27,0,.33Z"/><path d="M25.52,10.09l0-.06A5.65,5.65,0,0,1,26.83,7.9h0l1,.39Zm1.33-2.15A5.53,5.53,0,0,0,25.6,10L27.8,8.3Z"/><path d="M9.78,10.09,7.42,8.29l1-.39h0A5.51,5.51,0,0,1,9.75,10ZM7.49,8.3,9.7,10a5.68,5.68,0,0,0-1.25-2Z"/><path d="M25.55,17.87H9.65l.06,0L10,17.7H25.22l.27.14Zm-15.75,0H25.41l-.21-.09H10Z"/><path d="M25.87,18.16H9.29l0,0L9.48,18H25.72l.16.14,0,0Zm-16.49,0H25.82L25.7,18H9.5Z"/><path d="M26.16,18.45H9l0,0,.1-.14H26l.11.14Zm-17,0h17L26,18.32H9.2Z"/><path d="M26.35,18.74H8.86l.05-.09L9,18.58H26.24l.09.13Zm-17.42,0H26.28l-.06-.1H9l0,.07Z"/><path d="M26.54,19H8.67l0,0,.06-.09,0-.05H26.43l.09.13ZM8.74,19H26.47a.86.86,0,0,1-.07-.1H8.8l0,0Z"/><path d="M26.73,19.32H8.48l0,0,.09-.14h18Zm-18.18,0H26.66l-.07-.1h-18Z"/><path d="M26.92,19.61H25.77a2.37,2.37,0,0,0-1-.12H10.45a2.37,2.37,0,0,0-1,.12H8.28l0,0,.09-.14H26.81l.09.14Zm-1.14,0h1.07l-.06-.1H25.42A1.61,1.61,0,0,1,25.78,19.57Zm-17.43,0H9.42a1.7,1.7,0,0,1,.37-.1H8.42Z"/><path d="M9,19.9H8.08l0,0,.09-.12v0h1l0,0L9,19.89Zm-.83,0H9l.12-.1H8.22Z"/><path d="M27.12,19.9H26.2L26,19.76l-.05,0h1l0,.05.07.1Zm-.89,0h.82L27,19.79l0,0h-.87Z"/><path d="M8.73,20.19H7.88L8,20h.88l0,0-.11.13Zm-.78,0h.76l.09-.1H8Z"/><path d="M27.32,20.19h-.85l-.12-.13,0,0h.89l.08.12Zm-.83,0h.76l-.07-.1h-.77Z"/><path d="M8.53,20.48H7.67l0,0,0-.07,0-.08h.85l0,0-.05.07,0,.05Zm-.78,0h.77l0-.05,0,0H7.82l0,.06Z"/><path d="M27.53,20.48h-.86l0,0v0l-.05-.07,0,0h.85l.05.08.05.07Zm-.83,0h.76l0,0,0-.06h-.76l0,0v0Z"/><path d="M32,20.86H29.42c-.45,0-.7-.78-.71-.82V20h3.51V20c-.08.27-.14.5-.2.67a.56.56,0,0,1,0,.12Zm-3.15-.79c.06.17.29.71.62.71H31.9l0-.09.18-.62Z"/><path d="M6,20.86H3.44v0a.56.56,0,0,1,0-.12h0c-.06-.17-.12-.4-.2-.67V20H6.74l0,.05S6.46,20.86,6,20.86Zm-2.53-.08H6c.33,0,.55-.54.61-.71H3.28l.18.62h0Z"/><path d="M17.7,23.08H10L4.44,23v0a7.73,7.73,0,0,1-.68-1.29l0-.05h.06a11.38,11.38,0,0,0,3-.17,16,16,0,0,0,2.18-3,3.08,3.08,0,0,1,2.78-1.09H23.45a3.06,3.06,0,0,1,2.77,1.09,17,17,0,0,0,2.18,3,12.54,12.54,0,0,0,3.2.18h.06l0,.05A7.73,7.73,0,0,1,31,23v0l-5.53.07ZM4.48,22.93,10,23H25.42l5.49-.07a7.88,7.88,0,0,0,.64-1.21,11.72,11.72,0,0,1-3.18-.18,17,17,0,0,1-2.21-3,3,3,0,0,0-2.71-1.05H11.76a3,3,0,0,0-2.71,1.05,17,17,0,0,1-2.21,3,10.78,10.78,0,0,1-3,.18A8.34,8.34,0,0,0,4.48,22.93Z"/><path d="M17.7,23.08H10L4.44,23v0a6.1,6.1,0,0,1-.37-.64l0-.05h.06c.78,0,1.81,0,2.29,0,.9-.06,1.59-.92,2.15-1.75a1.82,1.82,0,0,1,1.92-.94H24.76a1.8,1.8,0,0,1,1.91.94c.56.83,1.25,1.69,2.16,1.75h0c.51,0,1.62,0,2.47,0h.06l0,.06A6.1,6.1,0,0,1,31,23v0l-5.53.07ZM4.48,22.93,10,23H25.42l5.49-.07c0-.05.16-.24.33-.56-.84,0-1.92,0-2.42,0h0c-.93-.06-1.64-.94-2.21-1.79a1.77,1.77,0,0,0-1.85-.91H10.45a1.77,1.77,0,0,0-1.85.91c-.57.85-1.28,1.73-2.22,1.79-.47,0-1.45,0-2.22,0A5.79,5.79,0,0,0,4.48,22.93Z"/><path d="M28.26,22.2a4.18,4.18,0,0,1-1.63-1.64,1.8,1.8,0,0,0-1.87-.92H10.45a1.79,1.79,0,0,0-1.87.92h0a4.59,4.59,0,0,1-1.51,1.58l0,0a6,6,0,0,0,1.5-1.72,1.81,1.81,0,0,1,1.9-.93H24.76a1.82,1.82,0,0,1,1.9.93,5.32,5.32,0,0,0,1.61,1.78Zm-3.32-2.59a1.72,1.72,0,0,1,1.72.93,5.64,5.64,0,0,0,1.15,1.34,7.52,7.52,0,0,1-1.18-1.48,1.78,1.78,0,0,0-1.87-.91H10.45a1.76,1.76,0,0,0-1.87.91,8.76,8.76,0,0,1-1.12,1.43,6.1,6.1,0,0,0,1.09-1.29h0a1.79,1.79,0,0,1,1.9-.93H24.94Z"/><path d="M17.7,23.08H9.59l0-.05c.28-.61.66-1.39.82-1.67.27-.46.46-.46.9-.46H23.87c.43,0,.63,0,.9.46h0c.16.28.53,1.06.82,1.67l0,.06H17.7Zm-8-.08H25.49c-.28-.6-.63-1.34-.79-1.61h0c-.25-.43-.4-.43-.83-.42H11.34c-.43,0-.59,0-.84.42C10.35,21.66,10,22.4,9.71,23Z"/><path d="M17.7,23.06h-8l0,0c.25-.53.58-1.22.73-1.48.26-.45.44-.45.88-.45H23.87c.44,0,.62,0,.88.45.15.26.48.95.73,1.48v0H17.7ZM9.77,23H25.43c-.25-.53-.57-1.2-.71-1.45-.25-.43-.42-.43-.85-.43H11.34c-.44,0-.6,0-.85.43C10.34,21.83,10,22.49,9.77,23Z"/><path d="M5.22,19h0c-.68-.1-1.07-.22-1.18-.39a7.9,7.9,0,0,1-.44-2.89c0-.75.31-1.1,1.09-1.13h0c.51.1.8.29.85.58h0a28.38,28.38,0,0,1,.15,3c0,.18,0,.31,0,.34s-.11.32-.47.46Zm-.54-4.34c-.74,0-1,.35-1,1.06a7.86,7.86,0,0,0,.44,2.85c.06.1.31.24,1.11.35.29-.12.42-.28.41-.38s0-.16,0-.35c0-.72,0-2.43-.14-3C5.42,14.94,5.15,14.77,4.68,14.67Z"/><path d="M30,19h0c-.35-.14-.47-.33-.46-.46s0-.16,0-.34a28.38,28.38,0,0,1,.15-3h0c0-.29.34-.48.85-.58h0c.78,0,1.11.38,1.09,1.13a7.9,7.9,0,0,1-.45,2.89c-.11.17-.49.29-1.18.39Zm.55-4.34c-.48.1-.74.27-.79.52h0a28.32,28.32,0,0,0-.15,3,2.57,2.57,0,0,1,0,.35c0,.1.12.26.41.38.81-.11,1.05-.25,1.12-.35a7.86,7.86,0,0,0,.43-2.85C31.57,15,31.26,14.7,30.53,14.67Z"/><path d="M10,13.3a28.32,28.32,0,0,1-4.74-.44,1.72,1.72,0,0,1-1.09-1l0-.06A.78.78,0,0,0,4,11.49l-.42-.25.25-.81,0,0a15.13,15.13,0,0,0,5.37.93h.57v0l1,1.86h0l-.53,0ZM3.61,11.22l.39.23a.78.78,0,0,1,.23.31l0,.06a1.63,1.63,0,0,0,1,1,27.44,27.44,0,0,0,4.89.43h.5l-1-1.78H9.18a15,15,0,0,1-5.35-.93Z"/><path d="M10,13.15a27.72,27.72,0,0,1-4.7-.43,1.56,1.56,0,0,1-1-.94l0-.06a.94.94,0,0,0-.25-.35h0l-.34-.19.17-.55,0,0a16.12,16.12,0,0,0,5.26.88h.5l.86,1.59H10Zm-6.23-2,.3.17a1,1,0,0,1,.27.38l0,.06a1.51,1.51,0,0,0,1,.9,27.34,27.34,0,0,0,4.67.43h.37l-.78-1.45H9.18a16.16,16.16,0,0,1-5.25-.87Z"/><path d="M17.58,13.68c-1,0-3.07,0-4.46-.06l-1.39,0a1.15,1.15,0,0,1-.72-.3h0v0h0l-1-1.8-.05-.06H10c1.63,0,5,.1,7.56.1s5.92-.06,7.55-.1h.07l-1,1.86h0l0,0a1.11,1.11,0,0,1-.72.3l-1.39,0C20.65,13.65,18.55,13.68,17.58,13.68Zm-6.52-.43a1.17,1.17,0,0,0,.67.28l1.4,0c1.38,0,3.48.06,4.45.06s3.07,0,4.46-.06l1.39,0a1.1,1.1,0,0,0,.66-.28h0l1-1.76c-1.66,0-5,.1-7.49.1s-5.84-.06-7.49-.1l1,1.76Z"/><path d="M17.58,13.51c-1,0-3.06,0-4.44,0h0l-1.4,0a1,1,0,0,1-.6-.25h0l-.87-1.6h0c1.49,0,4.71.1,7.29.1s5.79-.06,7.28-.1h.05L24,13.17l0,0v0h0a1,1,0,0,1-.56.22l-1.4,0h0C20.64,13.48,18.54,13.51,17.58,13.51Zm-6.41-.36a1,1,0,0,0,.56.23l1.4,0h0c1.39,0,3.48.06,4.44.06s3.06,0,4.44-.06h0l1.4,0a.87.87,0,0,0,.52-.2v0l0,0,.83-1.51c-1.51,0-4.69.09-7.24.09s-5.73-.06-7.25-.09Z"/><path d="M17.58,12c-2.31,0-5.29-.05-7.14-.1h0l-.11-.19h0c1.49,0,4.68.1,7.21.1s5.72-.06,7.21-.1h0l-.1.19h0C22.75,12,19.78,12,17.58,12Zm-7.12-.15c1.85.05,4.81.1,7.12.1s5.15,0,7.12-.1l.05-.09c-1.51,0-4.67.1-7.17.1s-5.66-.06-7.17-.1Z"/><path d="M17.58,12.27c-2.25,0-5.17,0-7-.09h0L10.47,12h0c1.81,0,4.75.09,7.06.09S22.81,12,24.64,12h0l-.1.19h0C22.75,12.22,19.83,12.27,17.58,12.27Zm-7-.14c1.81,0,4.72.09,7,.09s5.15-.05,7-.09L24.6,12c-1.83,0-4.75.09-7,.09s-5.21-.05-7-.09Z"/><path d="M17.58,12.54c-2.17,0-4.95,0-6.84-.09h0l-.11-.19h.05c1.8,0,4.69.09,6.91.09s5.11,0,6.91-.09h0l-.1.19h0C22.53,12.49,19.75,12.54,17.58,12.54Zm-6.82-.14c1.88,0,4.66.09,6.82.09s4.93-.05,6.82-.09l.05-.09c-1.81,0-4.66.09-6.87.09s-5.07-.05-6.87-.09Z"/><path d="M17.58,12.81c-2.64,0-5.78-.06-6.69-.08h0l-.11-.19h.05c1.86,0,4.62.08,6.76.08s4.89,0,6.76-.08h0l-.1.19h0C23.36,12.75,20.21,12.81,17.58,12.81Zm-6.67-.13c.92,0,4.05.08,6.67.08s5.75-.06,6.67-.08l0-.09c-1.86,0-4.58.08-6.71.08s-4.86,0-6.72-.08Z"/><path d="M17.58,13.08C15,13.08,11.93,13,11,13h0l-.11-.19H11c.89,0,4,.08,6.61.08s5.72-.06,6.61-.08h0l-.1.19h0C23.23,13,20.14,13.08,17.58,13.08ZM11.06,13c.91,0,4,.08,6.52.08S23.19,13,24.1,13l0-.09c-.94,0-4,.08-6.56.08S12,12.88,11,12.86Z"/><path d="M17.58,13.35c-2.54,0-5.47,0-6.31-.07h0l-.12-.09h0l0-.08h0c.87,0,3.91.07,6.46.07s5.58-.05,6.46-.07h0l0,.08,0,0v0h0a.24.24,0,0,1-.08.06h0C23,13.3,20.05,13.35,17.58,13.35Zm-6.3-.12c.84,0,3.77.07,6.3.07s5.44-.05,6.3-.07l.07-.05v0l0,0c-.94,0-3.93.08-6.41.08s-5.49-.06-6.42-.08h0Z"/><path d="M23.87,15.49H11.24c-.2,0-.23,0-.28-.1l0,0a5,5,0,0,1-.26-.46.19.19,0,0,1,0-.21.21.21,0,0,1,.18-.1H24.25a.21.21,0,0,1,.18.1.19.19,0,0,1,0,.21,5,5,0,0,1-.26.46l0,0C24.1,15.46,24.07,15.49,23.87,15.49Zm-13-.81a.16.16,0,0,0-.12.06.14.14,0,0,0,0,.14c.1.18.21.37.26.44v0c0,.05.05.06.22.06H23.87c.17,0,.18,0,.22-.06v0c0-.07.16-.26.26-.44a.14.14,0,0,0,0-.14.16.16,0,0,0-.12-.06Z"/><path d="M23.52,15.47H11.6v-.85H23.52Zm-11.88,0H23.48v-.77H11.64Z"/><path d="M12.92,15.46h-.11v-.85h.11Zm-.07,0h0v-.77h0Z"/><path d="M14.81,15.46H14.7v-.85h.11Zm-.07,0h0v-.77h0Z"/><path d="M16.71,15.46H16.6v-.85h.11Zm-.07,0h0v-.77h0Z"/><path d="M18.6,15.46h-.1v-.85h.1Zm-.07,0h0v-.77h0Z"/><path d="M20.5,15.46h-.11v-.85h.11Zm-.07,0h0v-.77h0Z"/><path d="M22.39,15.46h-.1v-.85h.1Zm-.06,0h0v-.77h0Z"/><path d="M25.12,13.3H25l-.53,0h0l1-1.88H26a15.13,15.13,0,0,0,5.37-.93l0,0,.25.81-.43.25h0a.94.94,0,0,0-.21.29l0,.06a1.72,1.72,0,0,1-1.09,1A28.42,28.42,0,0,1,25.12,13.3Zm-.66-.07H25a27.47,27.47,0,0,0,4.9-.43,1.66,1.66,0,0,0,1-1l0-.06a1,1,0,0,1,.22-.31l.4-.23-.22-.72a15,15,0,0,1-5.36.93h-.54Z"/><path d="M25.12,13.15h-.5l.86-1.59H26a16,16,0,0,0,5.25-.88l0,0,.17.55-.34.19a1,1,0,0,0-.26.35l0,.06a1.56,1.56,0,0,1-1,.94A27.82,27.82,0,0,1,25.12,13.15Zm-.38-.08h.38a27.34,27.34,0,0,0,4.67-.43,1.51,1.51,0,0,0,1-.9l0-.06a1.14,1.14,0,0,1,.28-.38h0l.29-.16-.13-.41A16.08,16.08,0,0,1,26,11.6h-.45Z"/><path d="M30.42,8.46l-2.59-.13-1-.37c-.22,0-6.55-.42-9.13-.32h0c-2.58-.1-8.91.3-9.13.32l-1,.37L5,8.46,5,8.4c0-.06,2.45-6.17,2.64-6.67A.64.64,0,0,1,8,1.33H27.37a.82.82,0,0,1,.4.4c.17.5,2.6,6.61,2.63,6.67ZM8,1.4a.64.64,0,0,0-.34.35c-.18.48-2.37,6-2.61,6.63l2.45-.13,1-.37c.06,0,6.53-.41,9.15-.32,2.61-.09,9.08.32,9.15.32h0l1,.37,2.45.13c-.24-.62-2.44-6.15-2.61-6.63a.74.74,0,0,0-.34-.35Z"/><path d="M29.89,8h-.06c-4.32-.49-10.4-.6-12.19-.6S9.9,7.48,5.59,8H5.52L7.85,1.75h0A.64.64,0,0,1,8,1.66H27.37a.72.72,0,0,1,.17.1h0ZM17.64,7.29c1.78,0,7.82.11,12.13.6L27.48,1.81l-.13-.08H8a.61.61,0,0,0-.12.07L5.64,7.87C10,7.4,15.89,7.29,17.64,7.29Z"/><path d="M4.48,7.55H4.17l0-.16v0h0c.12-.29,2.07-5.14,2.42-5.89l.07,0Zm-.23-.08h.17L6.08,3c-.72,1.76-1.79,4.4-1.8,4.44h0Z"/><path d="M31.19,7.55h-.34v0L28.67,1.45l.07,0h0s0,0,0,0c.36.77,2.4,5.85,2.42,5.9v.19Zm-.28-.08h.2V7.39c-.06-.16-1.26-3.12-2-4.82Z"/><path d="M17.7,23.08H10L4.44,23v0a9.17,9.17,0,0,1-1-2.28c-.38-1.17-1-4.12-1.23-5.14v3H2.08s-.2-1.55-.23-2.94,0-3.32,0-3.34h0L2.62,11A7.29,7.29,0,0,1,2.76,9.6a8,8,0,0,1,.51-1.33H2A12,12,0,0,1,.42,8.11h0v0A4.65,4.65,0,0,1,0,6.73c0-.51.71-.83,1.34-1.05a2.87,2.87,0,0,1,1.92-.12c.41.25.36,1.29.35,1.33l0,.58H4l.23-.12c.12-.29,2.07-5.14,2.42-5.89S9,.25,10,.21,15.82,0,17.7,0s6.71.16,7.75.21,2.94.45,3.31,1.25,2.3,5.6,2.42,5.89l.23.12h.13l0-.58s-.05-1.08.35-1.33a2.89,2.89,0,0,1,1.93.12c.62.22,1.34.54,1.33,1.05a4.35,4.35,0,0,1-.39,1.36v0h0a12,12,0,0,1-1.57.16h-1a8,8,0,0,1,.51,1.33A7.29,7.29,0,0,1,32.77,11l.77,1.36h0s0,2,0,3.34-.23,2.93-.23,2.94h-.08v-3c-.22,1-.85,4-1.23,5.14A8.76,8.76,0,0,1,31,23v0l-5.53.07ZM4.48,22.93,10,23H25.42l5.49-.07a9.51,9.51,0,0,0,1-2.24c.45-1.42,1.29-5.45,1.3-5.5l.08-.36V18c.06-.58.14-1.46.16-2.29,0-1.33,0-3.18,0-3.33L32.69,11h0a7.11,7.11,0,0,0-.14-1.34A8.17,8.17,0,0,0,32,8.24l0-.05h1.14A11.77,11.77,0,0,0,34.66,8,4.53,4.53,0,0,0,35,6.73c0-.46-.68-.76-1.29-1a2.76,2.76,0,0,0-1.85-.12c-.38.22-.32,1.24-.32,1.25l0,.67h-.23l-.27-.15h0s-2.06-5.13-2.42-5.9S26.4.32,25.44.28,19.57.08,17.7.08,11,.24,10,.28,7.06.72,6.7,1.49,4.3,7.34,4.28,7.39h0L4,7.55H3.49l0-.67s0-1-.32-1.25a2.79,2.79,0,0,0-1.86.12c-.6.22-1.29.52-1.28,1A4.58,4.58,0,0,0,.45,8,12,12,0,0,0,2,8.19H3.39l0,.05a8.17,8.17,0,0,0-.52,1.38A7.11,7.11,0,0,0,2.7,11h0l-.78,1.36c0,.15,0,2,0,3.33,0,.83.1,1.71.16,2.29V14.83l.08.36c0,.05.85,4.08,1.3,5.5A9.51,9.51,0,0,0,4.48,22.93Z"/><path d="M7,26.69H2.62a.52.52,0,0,1-.54-.5v-7.6h0V14.83l.08.36c0,.05.85,4.08,1.3,5.5a9.51,9.51,0,0,0,1,2.24l3.05,0v3.22A.52.52,0,0,1,7,26.69ZM2.16,18.6v7.59a.45.45,0,0,0,.46.42H7a.45.45,0,0,0,.47-.42V23.05l-3,0v0a9.17,9.17,0,0,1-1-2.28c-.38-1.17-1-4.12-1.23-5.14Z"/><path d="M32.77,26.69H28.4a.52.52,0,0,1-.54-.5V23l3.05,0a9.51,9.51,0,0,0,1-2.24c.45-1.42,1.29-5.45,1.3-5.5l.08-.36V26.19A.52.52,0,0,1,32.77,26.69Zm-4.84-3.64v3.14a.45.45,0,0,0,.47.42h4.37a.45.45,0,0,0,.46-.42V18.6h0v-3c-.22,1-.85,4-1.23,5.14A8.76,8.76,0,0,1,31,23v0Z"/><path d="M31.3,8.57l-1-.15v0c-.1-.25-2.44-6.15-2.62-6.65h0a.64.64,0,0,0-.32-.33h0l0-.08,1.4.07Zm-.92-.22.81.13-.07-.18L28.68,1.47l-1.17-.06a.78.78,0,0,1,.26.32C27.94,2.22,30.2,7.9,30.38,8.35Z"/><path d="M4,8.54,6.64,1.42l1.74-.11-.33.09a.58.58,0,0,0-.35.35c-.19.51-2.61,6.62-2.63,6.68v0Zm2.67-7-2.56,7L5,8.38C5.16,8,7.45,2.21,7.63,1.73a.6.6,0,0,1,.23-.31Z"/><path d="M5.22,19h0c-.68-.1-1.07-.22-1.18-.39a7.9,7.9,0,0,1-.44-2.89c0-.75.31-1.1,1.09-1.13h0c.51.1.8.29.85.58h0a28.38,28.38,0,0,1,.15,3c0,.18,0,.31,0,.34s-.11.32-.47.46Zm-.54-4.34c-.74,0-1,.35-1,1.06a7.86,7.86,0,0,0,.44,2.85c.06.1.31.24,1.11.35.29-.12.42-.28.41-.38s0-.16,0-.35c0-.72,0-2.43-.14-3C5.42,14.94,5.15,14.77,4.68,14.67Z"/><path d="M29.71,15.28h0c-1-.15-3.42-.36-3.44-.37v0l3.94-.25a3.11,3.11,0,0,1,.54,0h0v0h0l-.24,0h0c-.49.09-.76.27-.81.53h0s0,.05,0,.07Zm-3.22-.38c.64.06,2.38.22,3.18.34v-.06h0c.05-.24.28-.42.68-.53h-.17Z"/><path d="M5.5,15.28v0s0,0,0-.07c0-.26-.32-.44-.8-.53H4.57l-.13,0v0h0l.12,0H5l4,.25v0s-2.46.22-3.44.37Zm-.66-.63c.41.11.64.29.68.53v.06c.81-.12,2.55-.28,3.18-.34L5,14.66Z"/><path d="M33.18,8.27H31.11l-.28-.8h.75L35,7.29v0a5.22,5.22,0,0,1-.28.75v0h0A12.83,12.83,0,0,1,33.18,8.27Zm-.83-.08h.79A11.77,11.77,0,0,0,34.66,8a4.78,4.78,0,0,0,.25-.67l-3.33.18h-.65l.23.64Z"/><path d="M17.7,23.06H10L4.45,23h0a9,9,0,0,1-1-2.27c-.4-1.26-1.1-4.52-1.27-5.32V18.6h0S1.89,17,1.87,15.66s0-3.32,0-3.34h0L2.64,11A7.67,7.67,0,0,1,2.78,9.6a7.74,7.74,0,0,1,.53-1.38h.42l.08.57a2.14,2.14,0,0,0,1,1.31,23.67,23.67,0,0,0,5.22.57H25.13a23.67,23.67,0,0,0,5.22-.57,2.17,2.17,0,0,0,1-1.31l.07-.57h.63a7.74,7.74,0,0,1,.53,1.38A7.67,7.67,0,0,1,32.75,11l.77,1.36h0s0,2,0,3.34-.23,2.92-.23,2.94h0V15.39c-.17.8-.87,4.06-1.27,5.32a9,9,0,0,1-1,2.27h0l-5.51.07ZM4.47,23,10,23H25.42l5.5-.07a9.41,9.41,0,0,0,1-2.26c.45-1.42,1.29-5.45,1.3-5.49l0-.18v3.27c.06-.52.17-1.62.19-2.63,0-1.35,0-3.22,0-3.33L32.71,11h0a7.25,7.25,0,0,0-.14-1.35,7.5,7.5,0,0,0-.52-1.36h-.56l-.08.54a2.14,2.14,0,0,1-1,1.33,23.2,23.2,0,0,1-5.24.58H10.05a23.27,23.27,0,0,1-5.24-.58,2.14,2.14,0,0,1-1-1.33l-.08-.54H3.34a8.32,8.32,0,0,0-.52,1.36A7.25,7.25,0,0,0,2.68,11h0l-.77,1.36c0,.11,0,2,0,3.33,0,1,.13,2.11.19,2.63V15l0,.18s.85,4.07,1.3,5.49A9.41,9.41,0,0,0,4.47,23Zm22.23-3.8v0s2-.36,2.84-.56h0v0c0,.11.12.27.43.39l.06,0H30A26.15,26.15,0,0,1,26.7,19.15Zm2.83-.56c-.7.16-2.09.42-2.62.52a25.78,25.78,0,0,0,3-.15C29.61,18.82,29.54,18.66,29.53,18.59Zm-21,.56A26.22,26.22,0,0,1,5.21,19H5.14l.07,0c.31-.12.42-.28.43-.39v0h0c.87.2,2.83.56,2.85.56ZM5.29,19a25.56,25.56,0,0,0,3,.15c-.53-.1-1.91-.36-2.61-.52C5.66,18.66,5.6,18.82,5.29,19ZM24,15.61H11.19c-.34,0-.46-.38-.53-.61a.76.76,0,0,1,0-.11.17.17,0,0,1,0-.14.44.44,0,0,1,.26-.14H24.27a.44.44,0,0,1,.26.14.17.17,0,0,1,0,.14h0a.76.76,0,0,1,0,.11C24.42,15.23,24.3,15.61,24,15.61Zm.31-1H10.88s-.17,0-.22.12a.11.11,0,0,0,0,.1.42.42,0,0,1,0,.12c.08.23.19.59.5.59H24c.31,0,.42-.35.5-.59,0,0,0-.09,0-.12h0a.17.17,0,0,0,0-.1C24.45,14.68,24.27,14.65,24.27,14.65Zm.49-.82H10.39a31.5,31.5,0,0,1-5.19-.46c-1.14-.27-1.23-1-1.26-1.22v0a1.09,1.09,0,0,0-.23-.63.34.34,0,0,1-.14-.26h0l.24-.79h0a14.81,14.81,0,0,0,5.37.94h.06l.5,0h0l1,1.82H11l-1-1.8,0,0h0c1.63,0,5,.1,7.56.1s5.92-.06,7.55-.1h0l-1,1.82h.24l1-1.83h0l.49,0H26a14.81,14.81,0,0,0,5.37-.94h0l.24.79h0a.34.34,0,0,1-.14.26v0a1.17,1.17,0,0,0-.24.63v0c0,.26-.12.95-1.26,1.22A31.52,31.52,0,0,1,24.76,13.83ZM3.6,11.23a.28.28,0,0,0,.12.23c.13.08.22.44.25.66v0c0,.25.11.93,1.23,1.19a31.28,31.28,0,0,0,5.18.46H24.76A31.4,31.4,0,0,0,30,13.33c1.12-.26,1.2-.94,1.23-1.19v0a1.11,1.11,0,0,1,.25-.66.32.32,0,0,0,.12-.23l-.23-.74a14.85,14.85,0,0,1-5.36.94h-.06l-.49,0-1,1.83H24.1l1-1.82c-1.64,0-5,.1-7.52.1s-5.88-.06-7.53-.1l1,1.82h-.32l-1-1.83-.49,0H9.19a15,15,0,0,1-5.37-.94Z"/></g></g></g></svg>