<svg xmlns="http://www.w3.org/2000/svg" viewBox="0 0 65.98 23.3"><title>Asset 4</title><g id="Layer_2" data-name="Layer 2"><g id="car_sides_3" data-name="car sides 3"><g id="Layer_17" data-name="Layer 17"><path d="M32.69,8.86a.4.4,0,0,1-.41-.35.41.41,0,0,1,.39-.41L35.41,8h0a.39.39,0,0,1,.41.35.4.4,0,0,1-.39.41l-2.73.14ZM35.43,8h0l-2.74.14a.35.35,0,0,0-.34.35.35.35,0,0,0,.39.31l2.73-.14a.35.35,0,0,0,.34-.36A.34.34,0,0,0,35.43,8Z"/><path d="M47.67,8a.39.39,0,0,1-.4-.35.4.4,0,0,1,.38-.41l2.74-.14h0a.41.41,0,0,1,.41.35.38.38,0,0,1-.11.28.46.46,0,0,1-.28.13L47.7,8Zm2.75-.85h0l-2.73.14a.33.33,0,1,0,0,.66l2.74-.14a.42.42,0,0,0,.25-.12.33.33,0,0,0,.09-.23A.34.34,0,0,0,50.42,7.12Z"/><path d="M21.81,19.48,21.28,17s-.1-2.83-.1-3.92.06-3.16.06-3.18a14.56,14.56,0,0,1,.5-2.43l0,0a14.09,14.09,0,0,0-.49,2.4s-.06,2.09-.06,3.18.1,3.89.1,3.92l.53,2.49Z"/><path d="M60.09,19.57l-.2-1.93,3.87-.41a.64.64,0,0,0,.41-.36c.12-.31.72-1.94.73-2h0a.68.68,0,0,1,.51-.28H66v0a14.88,14.88,0,0,1-.33,1.51h0l-.34.23V17h0a11.08,11.08,0,0,1-1.36,1.85h-.42l-.38.37ZM60,17.7l.18,1.8,3-.35.38-.38h.41a10.53,10.53,0,0,0,1.34-1.82v-.55l.34-.24c0-.11.25-1,.32-1.45h-.49a.62.62,0,0,0-.45.24c0,.1-.61,1.65-.73,2a.7.7,0,0,1-.46.4Z"/><path d="M62.34,19.31l0-.06q.5-.88.6-1a1.25,1.25,0,0,1,.81-.26.76.76,0,0,0,.38-.13c.06-.12.91-1.7,1-1.93a.4.4,0,0,1,.31-.3h.33v0l-.13.53h0l-.34.23V17h0a11.08,11.08,0,0,1-1.36,1.85h-.42l-.38.37Zm3.11-3.63s-.17,0-.24.25-1,1.88-1,1.95h0a.72.72,0,0,1-.42.15,1.21,1.21,0,0,0-.76.24,7.74,7.74,0,0,0-.56.95l.65-.08.38-.38h.41a10.53,10.53,0,0,0,1.34-1.82v-.55l.34-.24s.06-.24.12-.47Z"/><path d="M7,20.24H1.88l-.6-.63a6.31,6.31,0,0,1-.76-1.21l-.3-.3L0,17.2H.23c0-.17,0-.95,0-1.86v-.13H.53c.16,0,.31.2.6.82s1,2,1.31,2.54a1.39,1.39,0,0,0,1.08.5H7.07Zm-5.12-.07H7l0-1H3.52a1.47,1.47,0,0,1-1.14-.54c-.29-.5-1-1.94-1.31-2.55s-.41-.77-.54-.77H.31v.07c0,1,0,1.88,0,1.89v0H.09l.19.78.29.3a6.66,6.66,0,0,0,.76,1.2Z"/><path d="M5.72,20.24H1.88l-.6-.63a6.31,6.31,0,0,1-.76-1.21l-.3-.3L0,17.2H.26l.63,0c.2,0,.38.07.58.42q.07.13.18.36a3.39,3.39,0,0,0,.82,1.24,3.73,3.73,0,0,0,2.26.43h.08a.87.87,0,0,1,.9.56Zm-3.8-.07H5.63a.8.8,0,0,0-.82-.47H4.73a3.73,3.73,0,0,1-2.3-.45A3.55,3.55,0,0,1,1.58,18c-.06-.14-.12-.26-.17-.35-.21-.36-.37-.39-.52-.39l-.63,0H.09l.19.78.29.3a6.66,6.66,0,0,0,.76,1.2Z"/><path d="M59.73,16.63v0c-.06-.23-.13-.47-.21-.69l0,0,4.68-.67-.36.68s-.07.18-.49.24l-3.57.51Zm-.14-.71a4.71,4.71,0,0,1,.19.64l3.54-.5c.4-.06.44-.2.44-.2h0l.3-.57Z"/><path d="M19.76,18.28v0c0-.32,0-.56-.05-.62v0h0l27.67-.78v0c0,.23-.08.48-.1.72v0Zm0-.62c0,.09,0,.29,0,.55l27.42-.68c0-.22,0-.44.09-.65Z"/><path d="M7.09,18.23H3.31A.79.79,0,0,1,3,18.1a2.17,2.17,0,0,1-.33-.57l0,0H7.13v0q0,.32,0,.63Zm-3.77-.07H7c0-.2,0-.4,0-.6H2.75a2.06,2.06,0,0,0,.29.5A.73.73,0,0,0,3.32,18.16Z"/><path d="M18.87,9.63a7.84,7.84,0,0,1-1.26-.11l-2.32-.6-.2-.05L26.77,8l-.63.48L25.26,9a1.68,1.68,0,0,1-.53.09l-5.86.52ZM15.5,8.91c.48.13,1.75.46,2.12.54a6.94,6.94,0,0,0,1.25.11L24.73,9a1.67,1.67,0,0,0,.5-.08l.88-.51.44-.34Z"/><path d="M21,9.22,20.39,9l-2.61.11L17.42,9l8.17-.64v.1l-.82.45ZM20.4,9l.56.19,3.81-.36.77-.43v0l-8,.63.21.1Z"/><path d="M25.61,7.27a9.51,9.51,0,0,1-1.25-.11h0l-.19-.68h3.31v0c0,.21-.07.57-.24.65a4.85,4.85,0,0,1-1.15.09h-.44Zm.1-.07v0h.34a4.83,4.83,0,0,0,1.13-.09c.11-.05.17-.32.19-.56H24.23l.16.55A8,8,0,0,0,25.71,7.2Z"/><path d="M21.36,7.55l-1,0h-.1l10.12-6.4,1.81,0L25.88,5c-.34.13-.71.32-.77.35L25,5.6,21.84,7.54h-.48Zm-.93-.09a13.26,13.26,0,0,0,1.37,0h0l3.11-1.93.14-.21h0A8.16,8.16,0,0,1,25.85,5l6.08-3.76-1.57,0Z"/><path d="M21.36,7.55c-1.46,0-3.89-.28-3.92-.28h0l-.52-.35.74.13,10.74-6L32,1.16s2.77.1,6.49.18,9.7.35,9.76.35l9.08.76.72.71,3.76-1.48v.49l-1.63.74,3.31,3.3-11.59.18L37.71,6.8l-15.9.74Zm-3.9-.34a38.3,38.3,0,0,0,4.34.27l4.73-.23h-.82a8.48,8.48,0,0,1-1.35-.11h0l-.19-.68h.6L24.66,6l.41-.64h0a6.43,6.43,0,0,1,1-.42,3.18,3.18,0,0,1,.71-.13h0a1.49,1.49,0,0,1,.67,1.11,5.08,5.08,0,0,1,0,.57c0,.06,0,.61-.25.71a1.51,1.51,0,0,1-.48.07l11-.5,14.22-.42,11.44-.17L60.1,2.89l1.69-.76V1.77L58.07,3.24l-.73-.73-9.05-.75c-.06,0-6-.27-9.77-.35S32.07,1.23,32,1.23l-3.62-.09-10.75,6L17.21,7Zm6.93-.11a8,8,0,0,0,1.32.1h.34a4.83,4.83,0,0,0,1.13-.09c.14-.07.19-.5.2-.65h0a4.82,4.82,0,0,0,0-.56,1.43,1.43,0,0,0-.63-1,4,4,0,0,0-.68.14,6.48,6.48,0,0,0-1,.41L24.73,6l.09.55h-.59Z"/><path d="M27.11,7.16l.09-.07c.13-.09.17-.49.18-.63a5,5,0,0,0,0-.57,1.37,1.37,0,0,0-.61-1l0,0L32.2,1.44h0c.57,0,2.65.09,5.39.16h0l-1.2,5.13h0l-9.2.43Zm-.26-2.33a1.48,1.48,0,0,1,.6,1.06,5.08,5.08,0,0,1,0,.57,1.5,1.5,0,0,1-.15.62l9.09-.41,1.17-5c-2.71-.06-4.76-.13-5.34-.15Z"/><path d="M20.24,7.09h0c-.25,0-1.41-.16-2.09-.25h-.09L28,1.32l1.32.07s.15,0,.16.11,0,.14-.16.23L21.05,6.88A1.65,1.65,0,0,1,20.24,7.09Zm-2-.3c.68.09,1.74.23,2,.23a1.61,1.61,0,0,0,.78-.2c.08-.05,7.89-4.93,8.22-5.15.14-.09.14-.14.14-.15s-.08-.06-.11-.07L28,1.38Z"/><path d="M38.85,6.64l.43-5h0c2.85.08,6.62.23,8.11.3h0l1.63,2.3V5.93l-.15.42Zm.49-4.94-.42,4.87,9.95-.29L49,5.91V4.26L47.4,2C45.91,1.93,42.18,1.77,39.34,1.7Z"/><path d="M58.07,6.29h0L54.7,2.22l2.67.23.74.73,1.08,1.24.69,1.17-.2.68Zm-3.22-4L58.1,6.23l1.53,0,.18-.61-.68-1.13L58.06,3.23l-.72-.72Z"/><path d="M61.84,5.92a.74.74,0,0,1-.54-.25L59.44,3.81a.48.48,0,0,1,.08-.51L59.71,3l.46-.15,3.06,3.05H61.84ZM59.5,3.78l1.84,1.84a.66.66,0,0,0,.57.23h1.16L60.15,2.94l-.4.14-.18.25A.44.44,0,0,0,59.5,3.78Z"/><path d="M51.91,6,49,2.28l5.84.49h0l2.65,3.08ZM49.12,2.35,51.94,6l5.39-.15-2.55-3Z"/><path d="M4.52,16.59v0a1.87,1.87,0,0,1,0-.89c.06-.42.44-2.17.52-2.53H5a.48.48,0,0,1,.29-.3h0c.24.14.33.44.26.88A14.93,14.93,0,0,1,5.08,16a1,1,0,0,1-.53.6Zm.81-3.68a.36.36,0,0,0-.23.24h0c-.09.37-.46,2.11-.52,2.53a2.09,2.09,0,0,0,0,.82A1,1,0,0,0,5,16a14.94,14.94,0,0,0,.52-2.25C5.61,13.31,5.54,13,5.33,12.91Z"/><path d="M1,11.72l1-1.66H2L2.81,10,1.6,11.67h0l-.56,0ZM2,10.1l-.9,1.57.5,0L2.72,10Z"/><path d="M1.06,11.58l.77-1.34.76-.08-1,1.38h0l-.45,0Zm.81-1.28-.69,1.2.37,0,.9-1.23Z"/><path d="M1.65,10.57l.12-.21.68,0-.16.21Zm.15-.16-.07.11.54,0,.09-.12Z"/><path d="M1.15,11.44l.12-.21.54,0-.15.2Zm.15-.17-.07.12.41,0,.08-.12Z"/><path d="M1.33,11.13l.12-.21.59,0-.15.21ZM1.48,11l-.07.11.45,0L2,10.94Z"/><path d="M1.49,10.86l.12-.22.64,0-.16.22Zm.15-.18-.07.13.49,0,.1-.12Z"/><path d="M1.64,11.67,2.86,10h0L9.5,9.23h0l1.3-.14h.1l-1.38.83a7,7,0,0,1-1.26.18A3.45,3.45,0,0,0,7,10.62l-.46.24a8.81,8.81,0,0,1-2.54.6c-.76.08-1.65.16-2.26.2ZM2.88,10,1.73,11.62l2.21-.21a8.48,8.48,0,0,0,2.53-.59l.46-.24a3.53,3.53,0,0,1,1.33-.53A9.47,9.47,0,0,0,9.5,9.87l1.21-.73L9.5,9.27h0Z"/><path d="M1.82,11.54l1-1.46h0l4-.43,2.68-.3.69-.07.15,0-.88.54A10.88,10.88,0,0,1,8.25,10a3.43,3.43,0,0,0-1.36.54,4.86,4.86,0,0,1-.45.23,8.29,8.29,0,0,1-2.51.59l-2,.21Zm1.05-1.4L2,11.46c.46,0,1.11-.1,2-.19a8.52,8.52,0,0,0,2.49-.59,4.86,4.86,0,0,0,.45-.23A3.46,3.46,0,0,1,8.25,9.9a7.73,7.73,0,0,0,1.2-.17l.61-.37-.54.06-2.69.29Z"/><path d="M62.3,14.69v0A1.45,1.45,0,0,1,63,13.61a25.88,25.88,0,0,1,2.64-.34h0l0,.08V14h0a4.83,4.83,0,0,0-.51,0,.42.42,0,0,0-.36.23.5.5,0,0,1-.22.21,19.52,19.52,0,0,1-2.24.19Zm3.34-1.37a25.51,25.51,0,0,0-2.59.33,1.43,1.43,0,0,0-.7,1,20.41,20.41,0,0,0,2.2-.19.52.52,0,0,0,.2-.19.46.46,0,0,1,.4-.26h.49v-.67Z"/><path d="M63,14.48a.28.28,0,0,1-.21-.06h0a.18.18,0,0,1,0-.1.49.49,0,0,1,.16-.3,1.35,1.35,0,0,1,.68-.3c.37-.08.81-.12.89-.13a.27.27,0,0,1,.22.05.15.15,0,0,1,0,.16.2.2,0,0,1,0,.07c0,.16-.06.44-.24.48s-.72.08-1.07.1l-.25,0Zm-.17-.11c.06.05.15.05.33,0l.25,0c.34,0,.93-.08,1.06-.11s.16-.27.19-.42a.19.19,0,0,1,0-.08.09.09,0,0,0,0-.09s-.08,0-.16,0a8.83,8.83,0,0,0-.89.13,1.28,1.28,0,0,0-.64.27.42.42,0,0,0-.14.26.43.43,0,0,0,0,0Z"/><path d="M64.79,9.28h-3.1a2.89,2.89,0,0,1-.57-.1c-.07,0-.22-.09-.42-.18a7.46,7.46,0,0,0-1.26-.48h-2l-.77-.31-.22-.32,7.25-.24h1.49L65.22,9Zm-7.38-.81h2A6.54,6.54,0,0,1,60.72,9l.41.18a3,3,0,0,0,.56.1h3.08l.41-.3L65.1,7.68H63.65l-7.17.24.17.24Z"/><path d="M64.77,9H61.7a2.37,2.37,0,0,1-.54-.09l-.41-.17a4.32,4.32,0,0,0-1.49-.32l-.24,0h-1.6L56.7,8.1,56.63,8l7-.23h1.5l.07,1.08Zm-5.52-.64h0a4.15,4.15,0,0,1,1.52.31l.4.18a3.14,3.14,0,0,0,.52.08h3.06l.4-.09-.06-1H63.66l-6.87.23.65.26h1.81Z"/><path d="M13.38,23.3A5.57,5.57,0,1,1,19,17.73,5.58,5.58,0,0,1,13.38,23.3Zm0-11.08a5.51,5.51,0,1,0,5.51,5.51A5.51,5.51,0,0,0,13.38,12.22Zm0,9.8a4.29,4.29,0,1,1,4.3-4.29A4.3,4.3,0,0,1,13.38,22Zm0-8.52a4.23,4.23,0,1,0,4.23,4.23A4.23,4.23,0,0,0,13.38,13.5Z"/><path d="M53.51,23.3a5.57,5.57,0,1,1,5.57-5.57A5.58,5.58,0,0,1,53.51,23.3Zm0-11.08A5.51,5.51,0,1,0,59,17.73,5.51,5.51,0,0,0,53.51,12.22Zm0,9.8a4.29,4.29,0,1,1,4.29-4.29A4.3,4.3,0,0,1,53.51,22Zm0-8.52a4.23,4.23,0,1,0,4.22,4.23A4.24,4.24,0,0,0,53.51,13.5Z"/><path d="M19.86,20.24v0c0-.76-.15-2.59-.15-2.61a6.42,6.42,0,0,0-6.3-5.89,6.39,6.39,0,0,0-6.32,6.45l0,2.09H1.88l-.6-.63a6.31,6.31,0,0,1-.76-1.21l-.3-.3L0,17.2H.23c0-.17,0-.95,0-1.86A12.05,12.05,0,0,1,.4,13.5v0H.93l.18-.58H.49l.27-.8,1.17-2a3.32,3.32,0,0,1,.55-.69,19.62,19.62,0,0,1,5-1.44c2.57-.54,8.17-1.27,8.23-1.28h0L17,6.93l.68.12,10.74-6h0S31,.41,32,.26A82.24,82.24,0,0,1,40.77,0C45.16,0,55.89,1,56,1l5.85.71v.48l-1.63.74,3.24,3.24h0c.65,0,1.45,1,1.48,1h0l.2.47L65.24,9l-.41.31.4.48L65.4,12l.48,1v.34l-.19,0V14a.76.76,0,0,1,.28.67,14.88,14.88,0,0,1-.33,1.51h0l-.34.23V17h0a11.08,11.08,0,0,1-1.36,1.85h-.42l-.38.37-3,.36-.21-2.06a6.32,6.32,0,0,0-12.61.64l-.1,2h0l-9.93,0ZM1.92,20.17H7l0-2a6.45,6.45,0,0,1,6.38-6.52,6.27,6.27,0,0,1,4.33,1.73,6.53,6.53,0,0,1,2,4.23s.16,1.79.16,2.58L37.2,20l9.9,0,.11-1.91a6.45,6.45,0,0,1,6.38-6.52,6.27,6.27,0,0,1,4.3,1.7A6.59,6.59,0,0,1,60,17.5l.2,2,3-.35.38-.38h.41a11,11,0,0,0,1.34-1.82v-.55l.34-.24c0-.11.26-1,.33-1.49a.71.71,0,0,0-.27-.62h0v-.71l.18-.05V13l-.48-1h0l-.16-2.2-.44-.53.44-.32-.08-1.26-.19-.45c-.05-.07-.83-1-1.43-1h0L60.1,2.89l1.69-.76V1.75L56,1.05c-.1,0-10.83-1-15.22-1A82,82,0,0,0,32,.33c-1,.14-3.43.78-3.55.81l-10.75,6L17,7l-1.26-.26C15.5,6.75,10,7.48,7.49,8a19.87,19.87,0,0,0-5,1.42A3.11,3.11,0,0,0,2,10.1l-1.17,2-.23.71H1.2L1,13.54H.46a11.87,11.87,0,0,0-.15,1.81c0,1,0,1.88,0,1.89v0H.09l.19.78.29.3a6.66,6.66,0,0,0,.76,1.2Z"/><polygon points="27.44 6.55 27.37 6.54 27.38 6.51 27.44 6.52 27.44 6.55"/><polygon points="27.44 6.57 27.37 6.57 27.37 6.55 27.44 6.55 27.44 6.57"/><path d="M27.44,6.55H25.37v0c0-.14.15-.45.36-.45h1.72v0c0,.17,0,.36,0,.36h0a.28.28,0,0,1,0,.06Zm-2-.07h1.92v0s0-.17,0-.33H25.74C25.59,6.13,25.5,6.36,25.46,6.48Z"/><path d="M19.26,10.18l-.1-.28h0l37.26-2,.13.19h0Zm-.05-.25.08.22,37.23-2.1-.09-.13Z"/><path d="M19.88,20.22v0c0-.76-.16-2.59-.16-2.61a6.43,6.43,0,0,0-6.31-5.91,6.41,6.41,0,0,0-6.33,6.47l0,2.07H1.9l-.61-.63a7,7,0,0,1-.76-1.21l-.3-.3L0,17.22H.24c0-.13,0-.94,0-1.88A13.14,13.14,0,0,1,.41,13.5H.94l.19-.61H.52l.26-.78,0,0h0c.35,0,2.13-.17,3.11-.3a10.57,10.57,0,0,0,2.66-.56,5.07,5.07,0,0,0,.49-.29,5.27,5.27,0,0,1,1.33-.66,4.35,4.35,0,0,0,2.13-1l.21-.13L9.5,9.27,2.87,10l-.94.1v0a3.29,3.29,0,0,1,.52-.66h0l.2,0c.08,0,7.38-.75,9.83-1,2.24-.19,9.09-.68,9.16-.69L37.6,6.92c1.2,0,13.68-.46,14.4-.44s10-.19,11.83-.23h0a4,4,0,0,1,1.1.94h0l.19.44h0v0L65.22,9h0l-.07-1.27H63.65l-7.18.24.11.16h0L19.3,10.18l.07.19,37.52-2.1h0l.52.2c.08,0,1.76.1,2,.09a2.17,2.17,0,0,1,.73.46,3.52,3.52,0,0,0,1.39.8c.56,0,3.63-.07,3.66-.07h0L65.38,12l.48,1v.33l-.23.06,0-.06a24.16,24.16,0,0,0-2.6.34,1.4,1.4,0,0,0-.71,1h2.08c.38,0,.47-.14.53-.28a.38.38,0,0,1,.27-.19h.62a.76.76,0,0,1,.12.47c-.07.52-.33,1.51-.33,1.51h0l-.33.23V17a10.43,10.43,0,0,1-1.35,1.84h-.42l-.38.38h0l-3,.35-.21-2a6.33,6.33,0,0,0-12.64.64l-.11,2h0l-9.93,0Zm-18,0H7l0-2a6.44,6.44,0,0,1,6.37-6.5,6.28,6.28,0,0,1,4.32,1.72,6.55,6.55,0,0,1,2,4.22s.16,1.82.15,2.6L37.2,20l9.92,0,.1-1.93a6.44,6.44,0,0,1,6.37-6.5,6.29,6.29,0,0,1,4.29,1.69,6.53,6.53,0,0,1,2,4.17l.21,2,3-.35.38-.38h.41A10.69,10.69,0,0,0,65.25,17V16.4l.35-.24c0-.08.26-1,.32-1.5a.66.66,0,0,0-.11-.45h-.59s-.19,0-.24.17-.16.3-.56.3H62.31v0A1.47,1.47,0,0,1,63,13.61a24.88,24.88,0,0,1,2.64-.33h0v0l.14,0V13l-.48-1-.16-2.2c-.24,0-3.11.07-3.65.07a3.57,3.57,0,0,1-1.41-.8,2.55,2.55,0,0,0-.7-.46h0c-.25,0-2-.08-2-.08h0l-.52-.2L19.35,10.41l-.1-.26h0l37.24-2.1-.11-.16,7.24-.24H65.1l-.19-.43a3.78,3.78,0,0,0-1.08-.93c-1.87,0-11.18.25-11.84.23S38.8,6.91,37.6,7s-15.79.8-15.94.81-6.92.49-9.15.69c-2.46.21-9.76,1-9.83,1l-.2,0a3.35,3.35,0,0,0-.49.61L2.87,10,9.5,9.23l1.3-.14h.07l-.33.2a4.4,4.4,0,0,1-2.15,1A5.18,5.18,0,0,0,7.08,11l-.5.29a10.66,10.66,0,0,1-2.67.56c-1,.13-2.73.27-3.09.3v0l-.25.72h.62L1,13.52H.44a12.61,12.61,0,0,0-.15,1.82c0,1,0,1.89,0,1.9H.06l.2.81.3.3a6.41,6.41,0,0,0,.75,1.2Zm20.81-.32c-.78,0-.91-.38-.91-.39l0,0,0,0a2.9,2.9,0,0,0,1,.14l8.3-.05,14.26-.1a4.08,4.08,0,0,0,1.15-.21l.05,0,0,0a1.46,1.46,0,0,1-.84.49h0Zm-.86-.36c.06.1.26.33.86.33l23-.13a1.38,1.38,0,0,0,.79-.42,4,4,0,0,1-1.11.19l-14.26.1-8.3.06A3.25,3.25,0,0,1,21.87,19.51ZM21.26,17a.6.6,0,0,1-.28-.08,1.57,1.57,0,0,1-.66-1v0h0L47,14.72v0c0,.06-.5,1.44-1.13,1.44S21.75,17,21.39,17A.56.56,0,0,1,21.26,17ZM20.36,16a1.54,1.54,0,0,0,.63,1,.57.57,0,0,0,.39.06h0c.23,0,23.85-.82,24.48-.82s1-1.22,1.09-1.4Zm-18.92.88v0s2.24-.3,2.66-.45a1,1,0,0,0,.38-.21l0,0v0a.86.86,0,0,0,0,.39v0h0a1.47,1.47,0,0,1-.51.13H4C3.54,16.74,1.46,16.82,1.44,16.83Zm3-.65a1.18,1.18,0,0,1-.37.19c-.32.11-1.69.32-2.33.41.61,0,1.88-.08,2.26-.12a1.53,1.53,0,0,0,.48-.12A.94.94,0,0,1,4.48,16.18Z"/><path d="M19.88,20.22v0c0-.76-.16-2.59-.16-2.61a6.43,6.43,0,0,0-6.31-5.91,6.41,6.41,0,0,0-6.33,6.47L7,20.2H7l0-1.08H3.52A1.88,1.88,0,0,1,2.93,19l-.09,0H4.6c.76,0,1.62-.49,1.62-.83a7.26,7.26,0,0,1,7.19-7.32,7.3,7.3,0,0,1,7.17,6.7,2.76,2.76,0,0,0,.48,1.61.7.7,0,0,0,.52.22h0l15.6-.13,8,0a1.29,1.29,0,0,0,1-.37,1,1,0,0,0,.18-.75,7.19,7.19,0,0,1,14.35-.71,1.54,1.54,0,0,0,0,.16h0l-.88.1v-.18a6.33,6.33,0,0,0-12.64.64l-.11,2h0l-9.93,0Zm-6.47-8.57a6.28,6.28,0,0,1,4.32,1.72,6.55,6.55,0,0,1,2,4.22s.16,1.82.15,2.6L37.2,20l9.92,0,.1-1.93a6.44,6.44,0,0,1,6.37-6.5,6.29,6.29,0,0,1,4.29,1.69,6.53,6.53,0,0,1,2,4.17v.14l.81-.08,0-.14h0a7.16,7.16,0,0,0-14.29.7,1,1,0,0,1-.19.77,1.3,1.3,0,0,1-1.05.38l-8,0-15.6.13h0a.73.73,0,0,1-.54-.22,2.84,2.84,0,0,1-.5-1.64,7.24,7.24,0,0,0-7.13-6.66,7.24,7.24,0,0,0-7.16,7.28c0,.36-.85.87-1.65.87H3a2.38,2.38,0,0,0,.48.08H7l0-.94A6.44,6.44,0,0,1,13.41,11.65Zm9.32,8.22c-.78,0-.91-.38-.91-.39l0,0,0,0a2.9,2.9,0,0,0,1,.14l8.3-.05,14.26-.1a4.08,4.08,0,0,0,1.15-.21l.05,0,0,0a1.46,1.46,0,0,1-.84.49h0Zm-.86-.36c.06.1.26.33.86.33l23-.13a1.38,1.38,0,0,0,.79-.42,4,4,0,0,1-1.11.19l-14.26.1-8.3.06A3.25,3.25,0,0,1,21.87,19.51Z"/><path d="M30.39,1.15h.13A8.94,8.94,0,0,1,32.76.6c1.1-.06,5-.14,7-.11s7.42.23,9.54.41c1.6.13,5.06.47,7.24.7l.78.87h0l0,0h0l-.8-.9,1.55.17,2.6.36.09,0c-.3,0-1.48-.22-2.68-.37-.34-.05-.9-.11-1.6-.18L56.11,1H56l.47.53c-2.18-.24-5.6-.57-7.18-.7C47.2.67,41.82.46,39.77.44s-5.91,0-7,.11l-.43,0a3.47,3.47,0,0,0-.59-.27l-.1,0a3.57,3.57,0,0,1,.62.26A12.32,12.32,0,0,0,30.39,1.15Z"/><path d="M37.63,6.77a6.51,6.51,0,0,0-.48,2.14l-.07.5c0,.05-.22,5.25-.2,5.79a8.43,8.43,0,0,1-.13,1.3h0l.07,1.32.15,1.7H37l-.15-1.7-.08-1.31a7.72,7.72,0,0,0,.14-1.31c0-.54.19-5.74.19-5.79l.08-.49a6.26,6.26,0,0,1,.49-2.15Z"/><path d="M52,6.35l.77,1.79v.28l-1.6,3.74.07,0,1.57-3.69V8.13L52,6.35Z"/><path d="M59.78,8.76h0l-.06.86-.94,1.53L57,12.65l0,0,1.8-1.49.95-1.55h0l.06-.84Z"/><polygon points="63.76 9.26 64.17 9.84 64.17 13.43 64.22 13.43 64.22 9.83 63.82 9.26 63.76 9.26"/><path d="M62.27,6.2h-.09a3.37,3.37,0,0,1,1.36,1.47h.05A3.42,3.42,0,0,0,62.27,6.2Z"/><path d="M9.48,9.94l0,0,1.79,2.1,0,0Z"/><path d="M10.78,9.09v.05a13.74,13.74,0,0,1,4.52-.23V8.86A14.07,14.07,0,0,0,10.78,9.09Z"/></g></g></g></svg>