<svg xmlns="http://www.w3.org/2000/svg" viewBox="0 0 65.73 30.66"><defs><style>.cls-1{isolation:isolate;}.cls-2{mix-blend-mode:multiply;}</style></defs><title>Asset 5</title><g class="cls-1"><g id="Layer_2" data-name="Layer 2"><g id="car_sides_3" data-name="car sides 3"><g id="Layer_17" data-name="Layer 17"><path class="cls-2" d="M57.51,28.84,59.63,27l0,0-2.16,1.85Z"/><path d="M57.9,21.56v0l3.26-.34-.18.26h0Zm3.2-.33-2.7.28L61,21.42Z"/><path d="M61.16,9.45l-3.77-.27v0L61,9.23Zm-3.08-.26,3,.22L61,9.26Z"/><path d="M5,8.37v0L17.2,6.67l-.45.72h0ZM17.13,6.71,5.67,8.29l11.06-.93Z"/><path d="M17.13,23.91h0L5.89,22.42v0l10.86.93ZM6.62,22.48l10.44,1.39-.33-.51Z"/><path d="M25,28.69H20.67a49.05,49.05,0,0,0-7.29-1.29,35.68,35.68,0,0,0-7.18.69h0a5,5,0,0,1-.77-.48C3.74,26.36,1.11,23.41.81,22.21A42.88,42.88,0,0,1,0,15.36,42.88,42.88,0,0,1,.81,8.5c.3-1.2,2.93-4.15,4.61-5.39a6.32,6.32,0,0,1,.77-.48h0a35,35,0,0,0,7.18.69A50.13,50.13,0,0,0,20.66,2h4.26l0,0-.23.36h0l-4.85,0v0l4.83,0v0l-.09.13-.25.7H21.55c-.07,0-6.49.29-8.17.38a27.88,27.88,0,0,0-5.48.7A10,10,0,0,0,3.56,7.94c-.65,1.21-1.11,4.89-1.11,7.43s.46,6.22,1.11,7.44A10.1,10.1,0,0,0,7.9,26.35a28.68,28.68,0,0,0,5.48.71l8.17.37h2.77l.22.62h0l.12.19,0,0-4.87,0v0l4.89,0h0l.24.37Zm-4.28-.05,4.21,0-.21-.33-4.9,0v-.09h0l4.82,0-.11-.16-.21-.6H21.55c-.07,0-6.49-.28-8.17-.37a27.36,27.36,0,0,1-5.49-.71,10.19,10.19,0,0,1-4.36-3.56c-.66-1.22-1.11-4.91-1.11-7.45s.45-6.23,1.11-7.45A10.19,10.19,0,0,1,7.89,4.36a28.88,28.88,0,0,1,5.49-.71c1.68-.09,8.1-.37,8.16-.37h2.73l.24-.68a1.27,1.27,0,0,1,.07-.12l-4.8,0v-.1h0l4.84,0,.22-.34-4.18,0h0a51.12,51.12,0,0,1-7.3,1.28A35,35,0,0,1,6.2,2.67a4.84,4.84,0,0,0-.76.47C3.77,4.38,1.14,7.32.84,8.51a42.74,42.74,0,0,0-.79,6.85A42.74,42.74,0,0,0,.84,22.2c.3,1.2,2.93,4.13,4.6,5.38a5.72,5.72,0,0,0,.76.47,35,35,0,0,1,7.18-.69,51.12,51.12,0,0,1,7.3,1.28ZM1.13,21.19l0,0S.9,21,.83,20.54c0,0,0-.1,0-.17a34.49,34.49,0,0,1-.44-4.78V15A34.32,34.32,0,0,1,.8,10.25c0-.07,0-.13,0-.17.07-.5.26-.63.27-.63l0,0v0A39.8,39.8,0,0,0,.59,15v.56a39.8,39.8,0,0,0,.54,5.56Zm0-11.69a1,1,0,0,0-.23.58c0,.05,0,.1,0,.17A36.55,36.55,0,0,0,.4,15v.56a36.74,36.74,0,0,0,.43,4.78,1.57,1.57,0,0,0,0,.16,1,1,0,0,0,.23.58,39.44,39.44,0,0,1-.53-5.52V15A39.82,39.82,0,0,1,1.09,9.5Z"/><path d="M1.83,8.42v0c.09-.34.15-.52.15-.52A10,10,0,0,1,5.33,4.39a17.4,17.4,0,0,1,3-1,6.52,6.52,0,0,1,1.55-.16l.82.17.11,0h-.11A12.74,12.74,0,0,0,6.5,4.58,11.58,11.58,0,0,0,3.14,7.66h0l-.21.12Zm8-5.2a8.12,8.12,0,0,0-1.41.16,18.49,18.49,0,0,0-3,1A9.92,9.92,0,0,0,2,7.88s-.06.17-.15.47l1.23-.71A11.56,11.56,0,0,1,6.49,4.55a12.4,12.4,0,0,1,4.14-1.18l-.72-.14Z"/><path d="M1.93,8.29l0,0c.06-.21.1-.33.1-.35A10.06,10.06,0,0,1,5.36,4.44a18.31,18.31,0,0,1,3-1,7.42,7.42,0,0,1,1.4-.16h.13l.41.07.12,0-.13,0A12.16,12.16,0,0,0,6.47,4.53,11.62,11.62,0,0,0,3.1,7.61h0l-.2.12Zm7.85-5a8.13,8.13,0,0,0-1.39.16,19.2,19.2,0,0,0-3,1A10,10,0,0,0,2.09,7.91S2.06,8,2,8.2l1.06-.62A11.74,11.74,0,0,1,6.45,4.49a12.1,12.1,0,0,1,3.73-1.14L9.9,3.3Z"/><path d="M9.77,27.46a8,8,0,0,1-1.4-.16,18.27,18.27,0,0,1-3-1A10,10,0,0,1,2,22.78a3.75,3.75,0,0,1-.16-.52v0L3.14,23A11.31,11.31,0,0,0,6.5,26.06a12.87,12.87,0,0,0,4.24,1.2h.11l-.11,0-.82.16ZM1.88,22.29c.09.31.15.48.15.48a10.11,10.11,0,0,0,3.31,3.46,18.49,18.49,0,0,0,3,1,6.94,6.94,0,0,0,1.54.15l.72-.14a12.49,12.49,0,0,1-4.14-1.19A11.67,11.67,0,0,1,3.11,23l-.21-.13Z"/><path d="M9.78,27.4h0a8.35,8.35,0,0,1-1.4-.16,18.4,18.4,0,0,1-3-1,9.92,9.92,0,0,1-3.31-3.44s0-.15-.1-.35l0-.06L3.1,23a11.51,11.51,0,0,0,3.37,3.09,12.43,12.43,0,0,0,3.84,1.15l.13,0-.12,0-.41.08ZM2,22.45l.1.29a9.93,9.93,0,0,0,3.28,3.43,18.13,18.13,0,0,0,3,1,7.23,7.23,0,0,0,1.39.16H9.9l.28-.06a12,12,0,0,1-3.73-1.13,11.63,11.63,0,0,1-3.39-3.1L2.86,23Z"/><path d="M57.25,27.43h-.9v0a17.38,17.38,0,0,0,4.19-.95,5.08,5.08,0,0,0,3.09-3,24.28,24.28,0,0,0,1-8.19,24.24,24.24,0,0,0-1-8.19,5.06,5.06,0,0,0-3.09-3,17.38,17.38,0,0,0-4.19-.95v0h.9s1.2.14,1.35.18a1.66,1.66,0,0,0,.31,0,3.84,3.84,0,0,1,.75.09,11.11,11.11,0,0,1,2.45,1.14,5.29,5.29,0,0,1,1.46,1.67,8.93,8.93,0,0,1,1,3h0l0,.31a40.34,40.34,0,0,1,.36,5.71A40.68,40.68,0,0,1,64.51,21l0,.31h0a8.93,8.93,0,0,1-1,3A5.12,5.12,0,0,1,62.11,26a10.75,10.75,0,0,1-2.45,1.15,3.84,3.84,0,0,1-.75.09,1.66,1.66,0,0,0-.31,0C58.45,27.28,57.3,27.43,57.25,27.43Zm-.64,0h.64s1.2-.15,1.34-.19l.31,0a4.66,4.66,0,0,0,.75-.09A11.45,11.45,0,0,0,62.09,26a5.22,5.22,0,0,0,1.45-1.66,8.64,8.64,0,0,0,1-3l0-.3h0a37.45,37.45,0,0,0,.37-5.7,37.84,37.84,0,0,0-.37-5.71h0l0-.31a8.52,8.52,0,0,0-1-3,5.11,5.11,0,0,0-1.45-1.66,11.45,11.45,0,0,0-2.44-1.14,4.66,4.66,0,0,0-.75-.09,1.14,1.14,0,0,1-.31,0c-.14,0-1.33-.18-1.34-.18h-.64a16.45,16.45,0,0,1,4,.93,5.12,5.12,0,0,1,3.1,3,24.45,24.45,0,0,1,1,8.21,24.34,24.34,0,0,1-1,8.2,5.11,5.11,0,0,1-3.1,3A16.36,16.36,0,0,1,56.61,27.39Z"/><path d="M57.25,27.4H57v0a14.82,14.82,0,0,0,3.6-.88,5.51,5.51,0,0,0,2.7-2.14h0l.24,0,0,0A5.06,5.06,0,0,1,62.08,26a11.09,11.09,0,0,1-2.43,1.13,3.75,3.75,0,0,1-.75.09l-.31,0C58.45,27.25,57.37,27.38,57.25,27.4Zm6-3a5.61,5.61,0,0,1-2.72,2.14,14.2,14.2,0,0,1-3.32.84c.15,0,1.2-.15,1.33-.18a1.8,1.8,0,0,1,.32,0,3.65,3.65,0,0,0,.74-.09,11.26,11.26,0,0,0,2.42-1.13,4.87,4.87,0,0,0,1.37-1.53Z"/><path d="M63.26,6.26h0a5.51,5.51,0,0,0-2.7-2.14A14.82,14.82,0,0,0,57,3.23v0h.29c.12,0,1.2.15,1.34.19l.31,0a3.74,3.74,0,0,1,.75.08,11.18,11.18,0,0,1,2.43,1.14,5,5,0,0,1,1.4,1.57l0,0Zm-6-3a14.12,14.12,0,0,1,3.31.84,5.56,5.56,0,0,1,2.72,2.14l.14,0a4.87,4.87,0,0,0-1.37-1.53,11.26,11.26,0,0,0-2.42-1.13,3.65,3.65,0,0,0-.74-.09,1.8,1.8,0,0,1-.32,0C58.45,3.38,57.44,3.25,57.26,3.23Z"/><path d="M24.43,3H16.21V2.91a15.71,15.71,0,0,0,2.09-.41h0l6.29.07,0,.05Zm-7.8-.06h7.75l.1-.28-6.17-.06C18.25,2.58,17.73,2.73,16.63,2.91Z"/><path d="M18.3,28.16h0a15.71,15.71,0,0,0-2.09-.41v-.06h8.22l.13.35,0,.05Zm-1.67-.41c1.1.18,1.62.33,1.68.34L24.48,28l-.1-.28Z"/><path d="M24.56,28.25,24,26.75h1.51l.29.94-1.06,0a.39.39,0,0,0-.21.32Zm-.44-1.43.4,1.11a.49.49,0,0,1,.22-.25h0l1,0-.25-.81Z"/><path d="M25.54,3.91H24l.53-1.5V2.6a.39.39,0,0,0,.21.32L25.83,3Zm-1.42-.07h1.37L25.74,3l-1,0h0a.49.49,0,0,1-.22-.25Z"/><path d="M2.9,22.58l-.11-.06L1.72,21.9h0a27.13,27.13,0,0,1-.86-6.57,27,27,0,0,1,.86-6.56h0L2.9,8.07l0,.09A31.17,31.17,0,0,0,2,15.32a31.36,31.36,0,0,0,.86,7.17Zm-1.12-.72,1,.57a33.29,33.29,0,0,1-.82-7.11,33.18,33.18,0,0,1,.82-7.1l-1,.57a26.81,26.81,0,0,0-.86,6.53A26.91,26.91,0,0,0,1.78,21.86Z"/><path d="M2.69,22.34l-.87-.51h0A27.13,27.13,0,0,1,1,15.32a27.11,27.11,0,0,1,.85-6.49h0l.87-.51v0a34.55,34.55,0,0,0-.79,7,34.66,34.66,0,0,0,.79,7Zm-.84-.54.77.45a35.31,35.31,0,0,1-.77-6.93A35.19,35.19,0,0,1,2.62,8.4l-.77.45A27.1,27.1,0,0,0,1,15.32,27.12,27.12,0,0,0,1.85,21.8Z"/><path d="M2.57,22.27l-.19-.11h0a32.76,32.76,0,0,1-.79-6.83A32.65,32.65,0,0,1,2.37,8.5h0l.2-.12,0,.13a31.93,31.93,0,0,0-.8,6.82,32,32,0,0,0,.8,6.83h0Zm-.16-.14.1.05v0a32.93,32.93,0,0,1-.79-6.84A32.93,32.93,0,0,1,2.5,8.48h0l-.1,0a32.72,32.72,0,0,0-.78,6.8A32.74,32.74,0,0,0,2.41,22.13Z"/><path d="M2.36,22.14,2.15,22h0a30.87,30.87,0,0,1-.8-6.7,30.77,30.77,0,0,1,.8-6.69h0l.2-.11,0,.1a30.43,30.43,0,0,0-.82,6.71A30.27,30.27,0,0,0,2.33,22ZM2.19,22l.09.05h0a30.47,30.47,0,0,1-.81-6.72A30.55,30.55,0,0,1,2.28,8.6h0l-.09.05a30.72,30.72,0,0,0-.8,6.67A30.74,30.74,0,0,0,2.19,22Z"/><path d="M2.11,22l-.2-.12h0a29.07,29.07,0,0,1-.81-6.55A29.15,29.15,0,0,1,1.9,8.77h0l.2-.12,0,.09a28.48,28.48,0,0,0-.84,6.59,28.32,28.32,0,0,0,.84,6.59Zm-.17-.15.1.06a28.68,28.68,0,0,1-.83-6.59A28.66,28.66,0,0,1,2,8.74l-.1,0a29,29,0,0,0-.81,6.53A29,29,0,0,0,1.94,21.85Z"/><path d="M27.39,30.66h-.5s-.24-.1-.39-.18a2.86,2.86,0,0,1-.88-.75c-.2-.25-.5-.69-.71-1l-4.23,0a6.58,6.58,0,0,1-2,.39c-1,0-7.46-.07-8.4-.12H10.1a8.45,8.45,0,0,1-4.69-1.33c-1.68-1.25-4.32-4.2-4.62-5.4A43.16,43.16,0,0,1,0,15.36,42.88,42.88,0,0,1,.79,8.5c.3-1.2,2.94-4.16,4.62-5.4A8.39,8.39,0,0,1,10.1,1.76h.18c.94-.05,7.42-.13,8.4-.12a6.92,6.92,0,0,1,2,.39l4.19,0c.23-.35.54-.81.75-1.07A2.86,2.86,0,0,1,26.5.18c.15-.08.38-.17.39-.18h.5l-.66,2c3.21,0,7.55,0,10.06,0,4.66,0,9.41,0,9.56,0a18.65,18.65,0,0,1,3-.35c1.31,0,5.44.1,7.42.17l1,0c.66,0,.81.21.88.3l0,0a5.57,5.57,0,0,0,.67.2l.34.09h0a7.09,7.09,0,0,1,3.57,2.42,12.48,12.48,0,0,1,2.11,5.8,24.07,24.07,0,0,1,.37,4.68A24,24,0,0,1,65.36,20a12.44,12.44,0,0,1-2.11,5.8,7,7,0,0,1-3.57,2.42h0l-.34.1a4.49,4.49,0,0,0-.67.19l0,0c-.07.1-.22.28-.88.3l-1,0c-2,.07-6.11.22-7.42.18a18,18,0,0,1-3-.36c-.15,0-4.9-.08-9.56,0-2.5,0-6.83,0-10,0Zm-.48-.07h.39l-.65-1.94h.05c3.22,0,7.58,0,10.08,0,4.73-.06,9.53,0,9.58,0h0a17,17,0,0,0,3,.36c1.3,0,5.42-.1,7.4-.17l1,0c.63,0,.76-.18.83-.27l0,0a3.89,3.89,0,0,1,.7-.21l.34-.09h0a7,7,0,0,0,3.54-2.39A12.64,12.64,0,0,0,65.3,20a24.59,24.59,0,0,0,.36-4.66,24.63,24.63,0,0,0-.36-4.67,12.64,12.64,0,0,0-2.1-5.77,7,7,0,0,0-3.54-2.39h0l-.34-.09a3.89,3.89,0,0,1-.7-.21l0,0c-.07-.08-.2-.26-.83-.27l-1,0c-2-.07-6.1-.22-7.4-.18a18.24,18.24,0,0,0-3,.36h0s-4.85.08-9.58,0c-2.51,0-6.88,0-10.1,0h-.05l.67-2h-.39l-.38.17a2.73,2.73,0,0,0-.86.73c-.21.27-.52.74-.75,1.08v0H20.66a6.61,6.61,0,0,0-2-.38c-1,0-7.46.07-8.4.12H10.1A8.48,8.48,0,0,0,5.45,3.15C3.8,4.38,1.15,7.36.86,8.51a42.74,42.74,0,0,0-.79,6.85A42.74,42.74,0,0,0,.86,22.2c.29,1.16,2.94,4.14,4.59,5.36a8.48,8.48,0,0,0,4.65,1.33h.18c.94.05,7.42.13,8.4.12a6.82,6.82,0,0,0,2-.39h4.28v0c.22.33.52.77.72,1a2.73,2.73,0,0,0,.86.73Z"/><path d="M23.7,27.21H21.77a6.22,6.22,0,0,1-2.46-.69,11.7,11.7,0,0,1-2.26-2.65l-.34-.51a40.31,40.31,0,0,1-1.07-8,38.73,38.73,0,0,1,1.07-8h0l.34-.5A11.7,11.7,0,0,1,19.31,4.2a6.39,6.39,0,0,1,2.46-.69h2.47l-.12.34h1.37l.11-.34h0l11.91,0c.13,0,12.68.31,14.08.42s7,.78,8,1.06A5.5,5.5,0,0,1,61.7,6.74a15,15,0,0,1,1.18,3.86,30.16,30.16,0,0,1,.27,4.76,30.1,30.1,0,0,1-.27,4.75A15,15,0,0,1,61.7,24a5.5,5.5,0,0,1-2.14,1.72c-.9.28-6.66,1-8,1.06s-14,.42-14.08.42l-11.89,0h0l-.12-.39H24.12l.14.39H23.7Zm-6.93-3.88.34.5a11.72,11.72,0,0,0,2.25,2.63,6,6,0,0,0,2.41.67h2.4L24,26.75h1.51l.12.39,11.87,0c.13,0,12.68-.31,14.07-.42s7.09-.79,7.94-1.06a5.35,5.35,0,0,0,2.11-1.7,15.58,15.58,0,0,0,1.17-3.83,31.05,31.05,0,0,0,.26-4.74,31.11,31.11,0,0,0-.26-4.75,15.58,15.58,0,0,0-1.17-3.83,5.33,5.33,0,0,0-2.11-1.69c-.85-.27-6.45-1-7.94-1.06s-13.94-.42-14.07-.42l-11.88,0-.11.34H24l.12-.34H21.77a6.1,6.1,0,0,0-2.42.68,11.65,11.65,0,0,0-2.24,2.62h0l-.34.5a38.76,38.76,0,0,0-1.06,8A40.73,40.73,0,0,0,16.77,23.33Zm21.59,1.55c-.06,0-5.43,0-6.4-.07a3,3,0,0,1-1.8-.94h0a19.42,19.42,0,0,1-1.93-8.51,18.46,18.46,0,0,1,1.93-8.52h0A3,3,0,0,1,32,5.9c1,0,6.34-.07,6.39-.07l9.76.22c.73,0,8.62.36,8.87.37l.85-.26h0a11.29,11.29,0,0,1,2,.92c.5.37.76.69,1.18,2.17l.16.16h0s.35,3.66.28,5.93-.28,5.89-.28,5.92v0l-.16.15c-.42,1.48-.68,1.8-1.18,2.18a11.85,11.85,0,0,1-2,.91h0L57,24.29c-.25,0-8.14.36-8.87.37Zm-8.15-1.05a2.92,2.92,0,0,0,1.75.92c1,0,6.34.06,6.4.06l9.75-.21c.74,0,8.79-.37,8.87-.38h0l.84.26a11.44,11.44,0,0,0,2-.91c.49-.36.74-.67,1.16-2.15h0l.15-.15a59,59,0,0,0,.29-5.91,58.57,58.57,0,0,0-.29-5.91l-.15-.15h0c-.42-1.47-.67-1.79-1.16-2.15a12.28,12.28,0,0,0-2-.91L57,6.49h0c-.08,0-8.13-.36-8.87-.38L38.35,5.9c-.05,0-5.42,0-6.39.07a2.93,2.93,0,0,0-1.75.91,18.36,18.36,0,0,0-1.92,8.48A19.3,19.3,0,0,0,30.21,23.83Z"/><path d="M21.6,27.24v0a4.79,4.79,0,0,1-1.7-.83l-.05,0h.06L30.19,23.8l0,0a2.92,2.92,0,0,0,1.75.92h.51l-9.69,2.31ZM20,26.36a5.19,5.19,0,0,0,1.66.78h0v0L22.77,27,32,24.81a3,3,0,0,1-1.8-.93Z"/><path d="M30.19,6.91h0L19.85,4.39l0,0a4.66,4.66,0,0,1,1.69-.83l-.05-.06,1.24.18,9.51,2.27-.07,0H32a2.93,2.93,0,0,0-1.75.91ZM20,4.35,30.16,6.83A3,3,0,0,1,32,5.9h0L22.77,3.71l-1.06-.16h-.05A4.75,4.75,0,0,0,20,4.35Z"/><path d="M57.41,26.07h0l-2.89-1.73h.11L57,24.22h0l.85.26,1.76.89,0,.29h0l-.07,0a20.08,20.08,0,0,1-2.14.37Zm-2.68-1.68L57.43,26a20,20,0,0,0,2.11-.37l0,0,0-.19-1.72-.88L57,24.29Z"/><path d="M57,6.49h0l-2.36-.1H54.5l2.91-1.73h0A20.08,20.08,0,0,1,59.56,5l.07,0h0l0,.29-1.76.89-.06,0Zm-2.26-.17,2.25.1.84-.25,1.72-.88,0-.19h0a17.41,17.41,0,0,0-2.12-.37Z"/><path d="M61.78,23.53l-1.42-.32,0,0a5.53,5.53,0,0,0,.67-1.67h0l.16-.16v0a57.43,57.43,0,0,0,.28-5.93,57.51,57.51,0,0,0-.28-5.94v0l-.16-.16h0a5.62,5.62,0,0,0-.67-1.68l0,0,1.42-.32v0a20,20,0,0,1,1,3.42A30.86,30.86,0,0,1,63,15.36a30.74,30.74,0,0,1-.26,4.72,20,20,0,0,1-1,3.42Zm-1.31-.36,1.27.28a19.43,19.43,0,0,0,.94-3.38A29.55,29.55,0,0,0,63,15.36a29.61,29.61,0,0,0-.27-4.72,19.43,19.43,0,0,0-.94-3.38l-1.27.28a5.9,5.9,0,0,1,.66,1.65l.16.16v.06c0,.39.35,3.77.28,5.95s-.25,5.56-.28,5.93h0v.06l-.16.16A5.9,5.9,0,0,1,60.47,23.17Z"/><path d="M51.61,26.43h0L49.14,25l5.57-.26h0l1.85,1.2h-.1s-3.76.41-4.85.51ZM49.36,25l2.26,1.35c1-.09,4.17-.43,4.75-.49l-1.68-1.1Z"/><path d="M54.71,6h0l-5.56-.26,2.47-1.47h0c1.09.1,4.82.51,4.85.51h.1ZM49.36,5.7l5.33.24,1.68-1.09c-.58-.07-3.75-.41-4.75-.5Z"/><path d="M47.19,6h0l-8.06-.18h0L38.68,3.7h0c2.41.06,6.91.17,9.93.27h0l.12.17v.74Zm-8-.25,8,.18,1.55-1V4.17L48.64,4l-9.88-.27Z"/><path d="M38.68,27l.41-2.07h.3l7.79-.17h0l1.6,1.06v.74l-.12.17h0c-3.17.1-8,.23-9.93.28Zm.46-2-.38,1.94c2-.05,6.72-.17,9.87-.27l.09-.13v-.68l-1.55-1L39.39,25Z"/><path d="M26.53,27.07v-.84h0l5.56-1.34h0l5.25.06h.06L36.27,27h0l-9.69,0Zm.07-.78V27l9.63,0,1.09-2c-1.56,0-4.26,0-5.19-.05Z"/><path d="M32.13,5.82h0L26.53,4.48V3.64h0l9.69,0h0l1.17,2.1h-.06c-1.56,0-4.32,0-5.25.05ZM26.6,4.42l5.53,1.34c.93,0,3.63,0,5.2-.06l-1.09-2-9.64,0Z"/><path d="M20.21,26v0a13.84,13.84,0,0,1-1.79-3.65,21.76,21.76,0,0,1-1.12-7,21.74,21.74,0,0,1,1.12-7,14.22,14.22,0,0,1,1.78-3.65l0,0h0L29.55,7l0,0a19.68,19.68,0,0,0-1.79,8.36,20.42,20.42,0,0,0,1.79,8.35l0,0h0Zm0-21.26a14.19,14.19,0,0,0-1.76,3.62,21.61,21.61,0,0,0-1.11,7,21.68,21.68,0,0,0,1.12,7A13.55,13.55,0,0,0,20.24,26l9.22-2.25a20.46,20.46,0,0,1-1.79-8.34A19.76,19.76,0,0,1,29.45,7Z"/><path d="M21.61,27.19a6.3,6.3,0,0,1-2.3-.68,11.7,11.7,0,0,1-2.26-2.65l-.34-.51a40.31,40.31,0,0,1-1.07-8,38.73,38.73,0,0,1,1.07-8h0l.34-.5A11.7,11.7,0,0,1,19.31,4.2a6.39,6.39,0,0,1,2.26-.68v.07a4.29,4.29,0,0,0-1.7.87h0a10.6,10.6,0,0,0-1.82,3.33,21.73,21.73,0,0,0-1.32,7.56,21.63,21.63,0,0,0,1.32,7.56,10.7,10.7,0,0,0,1.82,3.34,4.52,4.52,0,0,0,1.74.88Zm-4.84-3.86.34.5a11.72,11.72,0,0,0,2.25,2.63,5.83,5.83,0,0,0,1.87.62,4,4,0,0,1-1.4-.79A10.58,10.58,0,0,1,18,22.93a21.71,21.71,0,0,1-1.32-7.58A21.81,21.81,0,0,1,18,7.77a10.58,10.58,0,0,1,1.83-3.36,4,4,0,0,1,1.36-.77,5.61,5.61,0,0,0-1.84.62,11.65,11.65,0,0,0-2.24,2.62h0l-.34.5a38.76,38.76,0,0,0-1.06,8A40.73,40.73,0,0,0,16.77,23.33Z"/><path d="M30.46,28.7H26.69l-.14-.4h0L37,28.35c.09,0,9.26-.07,13.16-.26A66.26,66.26,0,0,0,57,27.41h.25s1.2-.15,1.34-.19l.31,0a3.55,3.55,0,0,0,.73-.08,2.59,2.59,0,0,0,.42-.09,14.35,14.35,0,0,0,2.5-1.16,6.93,6.93,0,0,0,1.24-1.42,14.66,14.66,0,0,0,1-3.2H64.5l0-.22h0a37.45,37.45,0,0,0,.37-5.7,37.84,37.84,0,0,0-.37-5.71h0l0-.26,0,.09h.31a14.58,14.58,0,0,0-1-3.21,7.2,7.2,0,0,0-1.24-1.41,12.72,12.72,0,0,0-2.28-1.08,6.16,6.16,0,0,0-.62-.23,4.66,4.66,0,0,0-.75-.09,1.14,1.14,0,0,1-.31,0c-.14,0-1.33-.18-1.34-.18h-.64a16.45,16.45,0,0,1,4,.93c.31.14.58.28.82.41l.38.23a4.56,4.56,0,0,1,1.9,2.33,24.45,24.45,0,0,1,1,8.21,24.34,24.34,0,0,1-1,8.2,5.11,5.11,0,0,1-3.1,3,16.36,16.36,0,0,1-4,.92h.1v0c-.93.14-3.43.47-6.59.63-3.9.19-13.07.26-13.16.26l-10.42-.05-.2-.6h-.57l-.07-.24h0l11.72,0c.13,0,13.21-.34,14.22-.41s6.55-.72,7.71-1A4.92,4.92,0,0,0,62,23.83a15.62,15.62,0,0,0,1.36-6.77V13.68A15.66,15.66,0,0,0,62,6.91a4.92,4.92,0,0,0-2.61-2.18c-1.16-.31-6.66-1-7.71-1s-14.09-.42-14.22-.42l-11.77,0,.1-.32h.57l.19-.55h0L37,2.4c.09,0,9.26.06,13.16.25S57,3.33,57,3.33h0l0,0,0,0a66.26,66.26,0,0,0-6.88-.68c-3.9-.19-13.07-.25-13.16-.25l-10.42,0,.13-.4h0c3.22,0,7.59,0,10.11,0,4.66.06,9.37,0,9.57,0h0c.27,0,4.75.67,7.33.82a14.12,14.12,0,0,0,4.92-.65h0a4.77,4.77,0,0,0,.68.2l.34.09h0a7,7,0,0,1,3.57,2.41,12.54,12.54,0,0,1,2.1,5.79,24.13,24.13,0,0,1,.37,4.68A24,24,0,0,1,65.34,20a12.54,12.54,0,0,1-2.1,5.79,7,7,0,0,1-3.57,2.41h0l-.34.09a4.77,4.77,0,0,0-.68.2h0a14.15,14.15,0,0,0-4.92-.66c-2.65.15-7.29.81-7.34.82s-4.85-.08-9.57,0C35.18,28.7,32.8,28.7,30.46,28.7Zm9.91-.07c3.3,0,6,0,6,0s2.54-.36,4.92-.61l-1.16.06c-3.9.2-13.07.26-13.16.26L26.6,28.33l.11.33c3.22,0,7.57,0,10.07,0Zm14-.8a14.12,14.12,0,0,1,4.25.67,4.48,4.48,0,0,1,.68-.2l.34-.09h0a7,7,0,0,0,3.55-2.4A12.5,12.5,0,0,0,65.31,20a23.94,23.94,0,0,0,.37-4.66,24,24,0,0,0-.37-4.67,12.5,12.5,0,0,0-2.1-5.78,7,7,0,0,0-3.55-2.4h0a2.26,2.26,0,0,0-.34-.09,6.08,6.08,0,0,1-.68-.21,14,14,0,0,1-4.25.67h-.54c1.09.11,2,.22,2.52.3v0h.9s1.2.14,1.35.18a1.66,1.66,0,0,0,.31,0,3.84,3.84,0,0,1,.75.09,5.51,5.51,0,0,1,.62.22,13.56,13.56,0,0,1,2.29,1.09,7.37,7.37,0,0,1,1.25,1.43,14.41,14.41,0,0,1,1.05,3.23v0h-.35v.14a40.34,40.34,0,0,1,.36,5.71A40.68,40.68,0,0,1,64.51,21l0,.19h.34v0a14.68,14.68,0,0,1-1.05,3.24,7.37,7.37,0,0,1-1.25,1.42A13.81,13.81,0,0,1,60.06,27a2.59,2.59,0,0,1-.42.09,3.73,3.73,0,0,1-.73.09,1.66,1.66,0,0,0-.31,0c-.15,0-1.3.18-1.35.18H57l0,0s-1.26.2-3.18.39Zm-27.8.41,10.39,0c.09,0,9.26-.06,13.16-.25,2.94-.15,5.31-.45,6.37-.6h-.14v0a17.38,17.38,0,0,0,4.19-.95,5.08,5.08,0,0,0,3.09-3,24.28,24.28,0,0,0,1-8.19,24.24,24.24,0,0,0-1-8.19,4.51,4.51,0,0,0-1.88-2.32l-.39-.23c-.24-.13-.51-.27-.82-.41A15.11,15.11,0,0,0,57,3.27l.08,0L57,3.39l0,0c-.13,0-3-.48-6.88-.67S37.05,2.43,37,2.43l-10.41,0L26.37,3H25.8l-.08.25H37.44c.14,0,13.22.34,14.22.41s6.56.72,7.71,1A4.88,4.88,0,0,1,62,6.89a15.68,15.68,0,0,1,1.37,6.79v3.38A15.68,15.68,0,0,1,62,23.85,4.88,4.88,0,0,1,59.37,26c-1.15.32-6.66,1-7.71,1s-14.08.41-14.22.42l-11.69,0,.05.17h.57ZM37,2.33c.09,0,9.26.07,13.16.26l1.16.07c-2.38-.25-4.89-.61-4.92-.62h0c-.28,0-4.94.08-9.57,0-2.51,0-6.87,0-10.09,0l-.11.33Z"/><path class="cls-2" d="M61.57,6.63l.27,0L64,6.21l0,0-2.18.38-.3,0Z"/><path class="cls-2" d="M56.13,7.68H57c.68,0,1.48,0,2.15,0,.51,0,1,0,1.23,0l0,0c-.73,0-2.64,0-3.35,0h-.84a2.31,2.31,0,0,1,1-1.21h0l-.14,0a2.38,2.38,0,0,0-.91,1.18h-.26c-1.23,0-3.3,0-4.93-.07-2-.07-16.88-.48-17.78-.48S30.3,7,30.19,6.94l0,0,0,0,0,0h0s2.1.14,2.94.14,15.39.4,17.78.48c1.63.06,3.7.07,4.93.07h.24A2.84,2.84,0,0,0,56,8c-.15,1.09-.35,5.73-.35,7.51s.19,6.77.54,7.64h-.37c-1.23,0-3.3,0-4.93.06-2.39.09-17,.49-17.78.49s-2.92.13-2.94.14h0v0l0,0c.22,0,2.12-.14,2.92-.14s15.81-.41,17.78-.48c1.63-.06,3.7-.06,4.93-.06h.39a3.22,3.22,0,0,0,.86,1.11l.12,0a3.12,3.12,0,0,1-.93-1.14H57c.68,0,2.5,0,3.27,0l0,0c-.66,0-2.15,0-3.31,0h-.73v0c-.36-.85-.54-5.79-.54-7.62s.2-6.41.35-7.51A1.55,1.55,0,0,1,56.13,7.68Z"/><path class="cls-2" d="M61.84,24.07l-.23,0,0,0,.25,0L64,24.5l0,0Z"/><path d="M57.25,27.43h-.9v0a17.38,17.38,0,0,0,4.19-.95,5.08,5.08,0,0,0,3.09-3,24.28,24.28,0,0,0,1-8.19,24.24,24.24,0,0,0-1-8.19,5.06,5.06,0,0,0-3.09-3,17.38,17.38,0,0,0-4.19-.95v0h.9s1.2.14,1.35.18a1.66,1.66,0,0,0,.31,0,3.84,3.84,0,0,1,.75.09,11.11,11.11,0,0,1,2.45,1.14,5.29,5.29,0,0,1,1.46,1.67,8.93,8.93,0,0,1,1,3h0l0,.31a40.34,40.34,0,0,1,.36,5.71A40.68,40.68,0,0,1,64.51,21l0,.31h0a8.93,8.93,0,0,1-1,3A5.12,5.12,0,0,1,62.11,26a10.75,10.75,0,0,1-2.45,1.15,3.84,3.84,0,0,1-.75.09,1.66,1.66,0,0,0-.31,0C58.45,27.28,57.3,27.43,57.25,27.43Zm-.64,0h.64s1.2-.15,1.34-.19l.31,0a4.66,4.66,0,0,0,.75-.09A11.45,11.45,0,0,0,62.09,26a5.22,5.22,0,0,0,1.45-1.66,8.64,8.64,0,0,0,1-3l0-.3h0a37.45,37.45,0,0,0,.37-5.7,37.84,37.84,0,0,0-.37-5.71h0l0-.31a8.52,8.52,0,0,0-1-3,5.11,5.11,0,0,0-1.45-1.66,11.45,11.45,0,0,0-2.44-1.14,4.66,4.66,0,0,0-.75-.09,1.14,1.14,0,0,1-.31,0c-.14,0-1.33-.18-1.34-.18h-.64a16.45,16.45,0,0,1,4,.93,5.12,5.12,0,0,1,3.1,3,24.45,24.45,0,0,1,1,8.21,24.34,24.34,0,0,1-1,8.2,5.11,5.11,0,0,1-3.1,3A16.36,16.36,0,0,1,56.61,27.39Z"/><path class="cls-2" d="M51.68,27v-.33h0v.34l.84.84,0,.05L51.42,29h.07L52.56,28l-.05-.09Z"/><path class="cls-2" d="M37.48,27.14l-.06.32-.67,1.2h.06l.65-1.18.07-.34Z"/><path class="cls-2" d="M21.67,27.16l-.08.2-.51.88v.42h.05v-.41l.51-.87.08-.21Z"/><path class="cls-2" d="M9.47,27.43l1,1.51h.06l-1-1.5Z"/><path class="cls-2" d="M9.54,3.21l1-1.44h-.06l-1,1.44Z"/><path class="cls-2" d="M21.69,3.55h0l-.1-.28-.51-.86V2.05h-.05v.37l.51.87Z"/><path class="cls-2" d="M37.49,3.57h0l-.07-.38-.63-1.14h-.06l.64,1.15Z"/><path class="cls-2" d="M52.47,2.76l-.84.84V4h0V3.62l.83-.83.05-.09-1-1h-.07l1,1Z"/><path class="cls-2" d="M59.39,3.42,57.58,1.87H57.5l1.8,1.54Z"/></g></g></g></g></svg>