<?xml version="1.0" encoding="UTF-8" standalone="no"?>
<!DOCTYPE svg  PUBLIC '-//W3C//DTD SVG 20010904//EN'  'http://www.w3.org/TR/2001/REC-SVG-20010904/DTD/svg10.dtd'>
<svg xmlns="http://www.w3.org/2000/svg" height="234pt" width="261pt" version="1.0" preserveAspectRatio="xMidYMid meet" viewBox="0 0 261.000000 234.000000">
 <metadata>Created by potrace 1.15, written by Peter Selinger 2001-2017</metadata>
 <g transform="translate(0 234) scale(0.1 -0.1)">
  <path d="m760 2039c-283-166-539-315-569-332-99-56-91 19-91-877 0-695 2-788 16-808s23-22 118-22c84 0 106 3 117 17 11 13 15 139 19 687l5 671h930 930l5-671c4-548 8-674 19-687 11-14 33-17 117-17 95 0 104 2 118 22s16 113 16 808c0 746-1 787-19 815-10 18-52 51-102 80-160 93-295 172-449 262-85 50-256 149-380 222-155 90-234 131-255 131-22 0-175-84-545-301zm230-262c31-16 44-75 13-62-56 24-91 28-123 15-85-35-75-189 14-205 45-9 56-1 56 41 0 31-2 34-30 34-25 0-30 4-30 25 0 25 1 26 63 23l62-3 3-71c3-87-5-97-92-102-109-6-166 48-166 158 0 98 60 160 155 160 28 0 61-6 75-13zm888-3c20-14 33-71 15-62-5 2-21 10-36 18-35 17-77 4-94-30-7-14-13-49-13-78 0-88 49-120 133-87 13 6 17 2 17-19 0-33-25-46-88-46-85 0-132 56-132 155 0 69 23 121 64 146 38 23 104 25 134 3zm-1237-44c47-121 86-236 82-242-2-5-17-8-33-8-24 0-30 6-40 35l-12 36-56-3c-54-3-57-4-66-35-7-28-14-33-39-33-26 0-29 3-24 28 2 15 24 82 48 150l44 123 39-3c37-3 41-6 57-48zm639 25c0-24-3-25-55-25h-55v-35-35h51c47 0 50-2 47-22s-10-23-50-26l-48-3v-40-39h55c52 0 55-1 55-25v-26l-87 3-88 3-3 134c-1 74 0 141 2 148 4 9 30 13 91 13 84 0 85 0 85-25zm161 9c7-9 34-57 61-107l47-92 1 108v107h25 25v-151-150l-37 3c-37 3-39 5-95 113l-57 110-1-113v-113l-27 3-28 3-3 134c-1 74 0 141 2 148 7 18 71 16 87-3zm588-46c28-60 29-62 39-38 41 100 41 100 77 100h35l-42-82c-33-64-44-98-48-148-5-65-5-65-37-68l-33-3v63c0 54-6 73-40 136-49 89-50 102-10 102 27 0 33-6 59-62z"/>
  <path d="m787 1283c-9-9-49-115-87-235-61-188-74-220-94-228-13-5-27-14-31-19-11-19-6-543 6-557 6-7 23-14 37-16 27-3 27-3 30-97 1-52 8-101 14-108 15-18 247-19 253 0 2 6 6 55 7 107l3 95 378 3 377 2v-91c0-132-3-129 138-129 79 0 122 4 130 12s12 47 12 110v98h29c16 0 33 6 40 13 12 15 17 539 6 558-4 5-17 14-30 19-25 9-32 27-115 289-27 84-57 162-66 172-16 18-40 19-518 19-460 0-503-1-519-17zm952-127c10-12 110-310 111-328 0-5-31-8-70-8h-70v34c0 41-37 84-80 92-33 7-36 17-15 54 42 74-22 166-90 130-43-23-57-82-30-134 21-39 19-46-11-46-38 0-84-53-84-96v-35l-112 3-113 3-6 39c-8 46-47 86-86 86-27 0-27 4-2 66 15 37 6 77-23 104-31 29-62 25-92-11-29-34-33-71-11-109 21-37 18-50-10-50-32 0-72-39-80-77-4-15-8-34-11-40-5-17-104-18-104-1 0 11 79 257 100 314l10 24h434c353 0 436-3 445-14zm-845-548c24-27 27-36 23-72-16-114-168-115-184 0-4 33-1 45 21 71 43 51 92 51 140 1zm950 0c24-27 27-36 23-72-11-83-100-115-158-57-38 38-39 87-4 130 42 49 92 49 139-1zm-276-65l3-43h-265-266v45 45l263-2 262-3 3-42z"/>
 </g>
</svg>
